%TF.GenerationSoftware,KiCad,Pcbnew,7.0.6*%
%TF.CreationDate,2023-07-30T21:01:10-06:00*%
%TF.ProjectId,current_sink_swim,63757272-656e-4745-9f73-696e6b5f7377,rev?*%
%TF.SameCoordinates,Original*%
%TF.FileFunction,Legend,Bot*%
%TF.FilePolarity,Positive*%
%FSLAX46Y46*%
G04 Gerber Fmt 4.6, Leading zero omitted, Abs format (unit mm)*
G04 Created by KiCad (PCBNEW 7.0.6) date 2023-07-30 21:01:10*
%MOMM*%
%LPD*%
G01*
G04 APERTURE LIST*
G04 Aperture macros list*
%AMRoundRect*
0 Rectangle with rounded corners*
0 $1 Rounding radius*
0 $2 $3 $4 $5 $6 $7 $8 $9 X,Y pos of 4 corners*
0 Add a 4 corners polygon primitive as box body*
4,1,4,$2,$3,$4,$5,$6,$7,$8,$9,$2,$3,0*
0 Add four circle primitives for the rounded corners*
1,1,$1+$1,$2,$3*
1,1,$1+$1,$4,$5*
1,1,$1+$1,$6,$7*
1,1,$1+$1,$8,$9*
0 Add four rect primitives between the rounded corners*
20,1,$1+$1,$2,$3,$4,$5,0*
20,1,$1+$1,$4,$5,$6,$7,0*
20,1,$1+$1,$6,$7,$8,$9,0*
20,1,$1+$1,$8,$9,$2,$3,0*%
G04 Aperture macros list end*
%ADD10C,0.150000*%
%ADD11C,0.120000*%
%ADD12RoundRect,0.250000X0.475000X-0.337500X0.475000X0.337500X-0.475000X0.337500X-0.475000X-0.337500X0*%
%ADD13O,1.600000X1.600000*%
%ADD14C,1.600000*%
%ADD15R,2.000000X1.905000*%
%ADD16O,2.000000X1.905000*%
%ADD17C,4.600000*%
%ADD18C,1.800000*%
%ADD19RoundRect,0.250000X0.350000X0.450000X-0.350000X0.450000X-0.350000X-0.450000X0.350000X-0.450000X0*%
%ADD20R,1.700000X1.700000*%
%ADD21O,1.700000X1.700000*%
%ADD22RoundRect,0.381000X0.381000X-0.762000X0.381000X0.762000X-0.381000X0.762000X-0.381000X-0.762000X0*%
%ADD23RoundRect,0.250000X0.450000X-0.350000X0.450000X0.350000X-0.450000X0.350000X-0.450000X-0.350000X0*%
%ADD24RoundRect,0.250000X-0.475000X0.337500X-0.475000X-0.337500X0.475000X-0.337500X0.475000X0.337500X0*%
%ADD25RoundRect,0.250000X-0.337500X-0.475000X0.337500X-0.475000X0.337500X0.475000X-0.337500X0.475000X0*%
G04 APERTURE END LIST*
D10*
X126739580Y-45770833D02*
X126787200Y-45723214D01*
X126787200Y-45723214D02*
X126834819Y-45580357D01*
X126834819Y-45580357D02*
X126834819Y-45485119D01*
X126834819Y-45485119D02*
X126787200Y-45342262D01*
X126787200Y-45342262D02*
X126691961Y-45247024D01*
X126691961Y-45247024D02*
X126596723Y-45199405D01*
X126596723Y-45199405D02*
X126406247Y-45151786D01*
X126406247Y-45151786D02*
X126263390Y-45151786D01*
X126263390Y-45151786D02*
X126072914Y-45199405D01*
X126072914Y-45199405D02*
X125977676Y-45247024D01*
X125977676Y-45247024D02*
X125882438Y-45342262D01*
X125882438Y-45342262D02*
X125834819Y-45485119D01*
X125834819Y-45485119D02*
X125834819Y-45580357D01*
X125834819Y-45580357D02*
X125882438Y-45723214D01*
X125882438Y-45723214D02*
X125930057Y-45770833D01*
X126834819Y-46723214D02*
X126834819Y-46151786D01*
X126834819Y-46437500D02*
X125834819Y-46437500D01*
X125834819Y-46437500D02*
X125977676Y-46342262D01*
X125977676Y-46342262D02*
X126072914Y-46247024D01*
X126072914Y-46247024D02*
X126120533Y-46151786D01*
X119766666Y-40002219D02*
X120099999Y-39526028D01*
X120338094Y-40002219D02*
X120338094Y-39002219D01*
X120338094Y-39002219D02*
X119957142Y-39002219D01*
X119957142Y-39002219D02*
X119861904Y-39049838D01*
X119861904Y-39049838D02*
X119814285Y-39097457D01*
X119814285Y-39097457D02*
X119766666Y-39192695D01*
X119766666Y-39192695D02*
X119766666Y-39335552D01*
X119766666Y-39335552D02*
X119814285Y-39430790D01*
X119814285Y-39430790D02*
X119861904Y-39478409D01*
X119861904Y-39478409D02*
X119957142Y-39526028D01*
X119957142Y-39526028D02*
X120338094Y-39526028D01*
X118909523Y-39335552D02*
X118909523Y-40002219D01*
X119147618Y-38954600D02*
X119385713Y-39668885D01*
X119385713Y-39668885D02*
X118766666Y-39668885D01*
X119064066Y-54150419D02*
X119397399Y-53674228D01*
X119635494Y-54150419D02*
X119635494Y-53150419D01*
X119635494Y-53150419D02*
X119254542Y-53150419D01*
X119254542Y-53150419D02*
X119159304Y-53198038D01*
X119159304Y-53198038D02*
X119111685Y-53245657D01*
X119111685Y-53245657D02*
X119064066Y-53340895D01*
X119064066Y-53340895D02*
X119064066Y-53483752D01*
X119064066Y-53483752D02*
X119111685Y-53578990D01*
X119111685Y-53578990D02*
X119159304Y-53626609D01*
X119159304Y-53626609D02*
X119254542Y-53674228D01*
X119254542Y-53674228D02*
X119635494Y-53674228D01*
X118206923Y-53150419D02*
X118397399Y-53150419D01*
X118397399Y-53150419D02*
X118492637Y-53198038D01*
X118492637Y-53198038D02*
X118540256Y-53245657D01*
X118540256Y-53245657D02*
X118635494Y-53388514D01*
X118635494Y-53388514D02*
X118683113Y-53578990D01*
X118683113Y-53578990D02*
X118683113Y-53959942D01*
X118683113Y-53959942D02*
X118635494Y-54055180D01*
X118635494Y-54055180D02*
X118587875Y-54102800D01*
X118587875Y-54102800D02*
X118492637Y-54150419D01*
X118492637Y-54150419D02*
X118302161Y-54150419D01*
X118302161Y-54150419D02*
X118206923Y-54102800D01*
X118206923Y-54102800D02*
X118159304Y-54055180D01*
X118159304Y-54055180D02*
X118111685Y-53959942D01*
X118111685Y-53959942D02*
X118111685Y-53721847D01*
X118111685Y-53721847D02*
X118159304Y-53626609D01*
X118159304Y-53626609D02*
X118206923Y-53578990D01*
X118206923Y-53578990D02*
X118302161Y-53531371D01*
X118302161Y-53531371D02*
X118492637Y-53531371D01*
X118492637Y-53531371D02*
X118587875Y-53578990D01*
X118587875Y-53578990D02*
X118635494Y-53626609D01*
X118635494Y-53626609D02*
X118683113Y-53721847D01*
X117480219Y-48652733D02*
X117004028Y-48319400D01*
X117480219Y-48081305D02*
X116480219Y-48081305D01*
X116480219Y-48081305D02*
X116480219Y-48462257D01*
X116480219Y-48462257D02*
X116527838Y-48557495D01*
X116527838Y-48557495D02*
X116575457Y-48605114D01*
X116575457Y-48605114D02*
X116670695Y-48652733D01*
X116670695Y-48652733D02*
X116813552Y-48652733D01*
X116813552Y-48652733D02*
X116908790Y-48605114D01*
X116908790Y-48605114D02*
X116956409Y-48557495D01*
X116956409Y-48557495D02*
X117004028Y-48462257D01*
X117004028Y-48462257D02*
X117004028Y-48081305D01*
X117480219Y-49605114D02*
X117480219Y-49033686D01*
X117480219Y-49319400D02*
X116480219Y-49319400D01*
X116480219Y-49319400D02*
X116623076Y-49224162D01*
X116623076Y-49224162D02*
X116718314Y-49128924D01*
X116718314Y-49128924D02*
X116765933Y-49033686D01*
X126979580Y-57633333D02*
X127027200Y-57585714D01*
X127027200Y-57585714D02*
X127074819Y-57442857D01*
X127074819Y-57442857D02*
X127074819Y-57347619D01*
X127074819Y-57347619D02*
X127027200Y-57204762D01*
X127027200Y-57204762D02*
X126931961Y-57109524D01*
X126931961Y-57109524D02*
X126836723Y-57061905D01*
X126836723Y-57061905D02*
X126646247Y-57014286D01*
X126646247Y-57014286D02*
X126503390Y-57014286D01*
X126503390Y-57014286D02*
X126312914Y-57061905D01*
X126312914Y-57061905D02*
X126217676Y-57109524D01*
X126217676Y-57109524D02*
X126122438Y-57204762D01*
X126122438Y-57204762D02*
X126074819Y-57347619D01*
X126074819Y-57347619D02*
X126074819Y-57442857D01*
X126074819Y-57442857D02*
X126122438Y-57585714D01*
X126122438Y-57585714D02*
X126170057Y-57633333D01*
X126074819Y-57966667D02*
X126074819Y-58585714D01*
X126074819Y-58585714D02*
X126455771Y-58252381D01*
X126455771Y-58252381D02*
X126455771Y-58395238D01*
X126455771Y-58395238D02*
X126503390Y-58490476D01*
X126503390Y-58490476D02*
X126551009Y-58538095D01*
X126551009Y-58538095D02*
X126646247Y-58585714D01*
X126646247Y-58585714D02*
X126884342Y-58585714D01*
X126884342Y-58585714D02*
X126979580Y-58538095D01*
X126979580Y-58538095D02*
X127027200Y-58490476D01*
X127027200Y-58490476D02*
X127074819Y-58395238D01*
X127074819Y-58395238D02*
X127074819Y-58109524D01*
X127074819Y-58109524D02*
X127027200Y-58014286D01*
X127027200Y-58014286D02*
X126979580Y-57966667D01*
X127389766Y-53834380D02*
X127437385Y-53882000D01*
X127437385Y-53882000D02*
X127580242Y-53929619D01*
X127580242Y-53929619D02*
X127675480Y-53929619D01*
X127675480Y-53929619D02*
X127818337Y-53882000D01*
X127818337Y-53882000D02*
X127913575Y-53786761D01*
X127913575Y-53786761D02*
X127961194Y-53691523D01*
X127961194Y-53691523D02*
X128008813Y-53501047D01*
X128008813Y-53501047D02*
X128008813Y-53358190D01*
X128008813Y-53358190D02*
X127961194Y-53167714D01*
X127961194Y-53167714D02*
X127913575Y-53072476D01*
X127913575Y-53072476D02*
X127818337Y-52977238D01*
X127818337Y-52977238D02*
X127675480Y-52929619D01*
X127675480Y-52929619D02*
X127580242Y-52929619D01*
X127580242Y-52929619D02*
X127437385Y-52977238D01*
X127437385Y-52977238D02*
X127389766Y-53024857D01*
X126532623Y-53262952D02*
X126532623Y-53929619D01*
X126770718Y-52882000D02*
X127008813Y-53596285D01*
X127008813Y-53596285D02*
X126389766Y-53596285D01*
X123766666Y-43339580D02*
X123814285Y-43387200D01*
X123814285Y-43387200D02*
X123957142Y-43434819D01*
X123957142Y-43434819D02*
X124052380Y-43434819D01*
X124052380Y-43434819D02*
X124195237Y-43387200D01*
X124195237Y-43387200D02*
X124290475Y-43291961D01*
X124290475Y-43291961D02*
X124338094Y-43196723D01*
X124338094Y-43196723D02*
X124385713Y-43006247D01*
X124385713Y-43006247D02*
X124385713Y-42863390D01*
X124385713Y-42863390D02*
X124338094Y-42672914D01*
X124338094Y-42672914D02*
X124290475Y-42577676D01*
X124290475Y-42577676D02*
X124195237Y-42482438D01*
X124195237Y-42482438D02*
X124052380Y-42434819D01*
X124052380Y-42434819D02*
X123957142Y-42434819D01*
X123957142Y-42434819D02*
X123814285Y-42482438D01*
X123814285Y-42482438D02*
X123766666Y-42530057D01*
X123385713Y-42530057D02*
X123338094Y-42482438D01*
X123338094Y-42482438D02*
X123242856Y-42434819D01*
X123242856Y-42434819D02*
X123004761Y-42434819D01*
X123004761Y-42434819D02*
X122909523Y-42482438D01*
X122909523Y-42482438D02*
X122861904Y-42530057D01*
X122861904Y-42530057D02*
X122814285Y-42625295D01*
X122814285Y-42625295D02*
X122814285Y-42720533D01*
X122814285Y-42720533D02*
X122861904Y-42863390D01*
X122861904Y-42863390D02*
X123433332Y-43434819D01*
X123433332Y-43434819D02*
X122814285Y-43434819D01*
D11*
%TO.C,C1*%
X125435000Y-46198752D02*
X125435000Y-45676248D01*
X123965000Y-46198752D02*
X123965000Y-45676248D01*
%TO.C,R4*%
X119827064Y-40565000D02*
X119372936Y-40565000D01*
X119827064Y-42035000D02*
X119372936Y-42035000D01*
%TO.C,R6*%
X119226064Y-51106400D02*
X118771936Y-51106400D01*
X119226064Y-52576400D02*
X118771936Y-52576400D01*
%TO.C,R1*%
X117735000Y-46227064D02*
X117735000Y-45772936D01*
X116265000Y-46227064D02*
X116265000Y-45772936D01*
%TO.C,C3*%
X129035000Y-57538748D02*
X129035000Y-58061252D01*
X127565000Y-57538748D02*
X127565000Y-58061252D01*
%TO.C,C4*%
X126838748Y-52635000D02*
X127361252Y-52635000D01*
X126838748Y-51165000D02*
X127361252Y-51165000D01*
%TO.C,C2*%
X123338748Y-40565000D02*
X123861252Y-40565000D01*
X123338748Y-42035000D02*
X123861252Y-42035000D01*
%TD*%
%LPC*%
D12*
%TO.C,C1*%
X124700000Y-46975000D03*
X124700000Y-44900000D03*
%TD*%
D13*
%TO.C,R3*%
X133146800Y-56083200D03*
D14*
X133146800Y-43383200D03*
%TD*%
D15*
%TO.C,Q2*%
X137515600Y-47447200D03*
D16*
X137515600Y-49987200D03*
X137515600Y-52527200D03*
%TD*%
D17*
%TO.C,RV1*%
X113637600Y-51293400D03*
X113637600Y-41293400D03*
D18*
X110337600Y-43793400D03*
X110337600Y-46293400D03*
X110337600Y-48793400D03*
%TD*%
D17*
%TO.C,RV2*%
X117000000Y-35966400D03*
X127000000Y-35966400D03*
D18*
X124500000Y-32666400D03*
X122000000Y-32666400D03*
X119500000Y-32666400D03*
%TD*%
D19*
%TO.C,R4*%
X120600000Y-41300000D03*
X118600000Y-41300000D03*
%TD*%
D20*
%TO.C,J2*%
X111150400Y-56388000D03*
D21*
X111150400Y-58928000D03*
X111150400Y-61468000D03*
%TD*%
D20*
%TO.C,J3*%
X125476000Y-67716400D03*
D21*
X128016000Y-67716400D03*
%TD*%
D20*
%TO.C,J1*%
X116941600Y-67564000D03*
D21*
X119481600Y-67564000D03*
%TD*%
D22*
%TO.C,J4*%
X143103600Y-37465000D03*
X143103600Y-62865000D03*
%TD*%
D19*
%TO.C,R6*%
X119999000Y-51841400D03*
X117999000Y-51841400D03*
%TD*%
D23*
%TO.C,R1*%
X117000000Y-47000000D03*
X117000000Y-45000000D03*
%TD*%
D24*
%TO.C,C3*%
X128300000Y-56762500D03*
X128300000Y-58837500D03*
%TD*%
D25*
%TO.C,C4*%
X128137500Y-51900000D03*
X126062500Y-51900000D03*
%TD*%
%TO.C,C2*%
X122562500Y-41300000D03*
X124637500Y-41300000D03*
%TD*%
%LPD*%
M02*
