%TF.GenerationSoftware,KiCad,Pcbnew,7.0.6*%
%TF.CreationDate,2023-07-30T21:01:10-06:00*%
%TF.ProjectId,current_sink_swim,63757272-656e-4745-9f73-696e6b5f7377,rev?*%
%TF.SameCoordinates,Original*%
%TF.FileFunction,Copper,L1,Top*%
%TF.FilePolarity,Positive*%
%FSLAX46Y46*%
G04 Gerber Fmt 4.6, Leading zero omitted, Abs format (unit mm)*
G04 Created by KiCad (PCBNEW 7.0.6) date 2023-07-30 21:01:10*
%MOMM*%
%LPD*%
G01*
G04 APERTURE LIST*
G04 Aperture macros list*
%AMRoundRect*
0 Rectangle with rounded corners*
0 $1 Rounding radius*
0 $2 $3 $4 $5 $6 $7 $8 $9 X,Y pos of 4 corners*
0 Add a 4 corners polygon primitive as box body*
4,1,4,$2,$3,$4,$5,$6,$7,$8,$9,$2,$3,0*
0 Add four circle primitives for the rounded corners*
1,1,$1+$1,$2,$3*
1,1,$1+$1,$4,$5*
1,1,$1+$1,$6,$7*
1,1,$1+$1,$8,$9*
0 Add four rect primitives between the rounded corners*
20,1,$1+$1,$2,$3,$4,$5,0*
20,1,$1+$1,$4,$5,$6,$7,0*
20,1,$1+$1,$6,$7,$8,$9,0*
20,1,$1+$1,$8,$9,$2,$3,0*%
G04 Aperture macros list end*
%TA.AperFunction,SMDPad,CuDef*%
%ADD10RoundRect,0.250000X-0.350000X-0.450000X0.350000X-0.450000X0.350000X0.450000X-0.350000X0.450000X0*%
%TD*%
%TA.AperFunction,ComponentPad*%
%ADD11O,1.600000X1.600000*%
%TD*%
%TA.AperFunction,ComponentPad*%
%ADD12C,1.600000*%
%TD*%
%TA.AperFunction,ComponentPad*%
%ADD13R,2.000000X1.905000*%
%TD*%
%TA.AperFunction,ComponentPad*%
%ADD14O,2.000000X1.905000*%
%TD*%
%TA.AperFunction,ComponentPad*%
%ADD15C,4.600000*%
%TD*%
%TA.AperFunction,ComponentPad*%
%ADD16C,1.800000*%
%TD*%
%TA.AperFunction,SMDPad,CuDef*%
%ADD17RoundRect,0.150000X-0.150000X0.825000X-0.150000X-0.825000X0.150000X-0.825000X0.150000X0.825000X0*%
%TD*%
%TA.AperFunction,SMDPad,CuDef*%
%ADD18RoundRect,0.250000X-0.450000X0.350000X-0.450000X-0.350000X0.450000X-0.350000X0.450000X0.350000X0*%
%TD*%
%TA.AperFunction,ComponentPad*%
%ADD19R,1.700000X1.700000*%
%TD*%
%TA.AperFunction,ComponentPad*%
%ADD20O,1.700000X1.700000*%
%TD*%
%TA.AperFunction,SMDPad,CuDef*%
%ADD21RoundRect,0.250000X-0.250000X-0.250000X0.250000X-0.250000X0.250000X0.250000X-0.250000X0.250000X0*%
%TD*%
%TA.AperFunction,SMDPad,CuDef*%
%ADD22RoundRect,0.250000X0.350000X0.450000X-0.350000X0.450000X-0.350000X-0.450000X0.350000X-0.450000X0*%
%TD*%
%TA.AperFunction,WasherPad*%
%ADD23RoundRect,0.381000X0.381000X-0.762000X0.381000X0.762000X-0.381000X0.762000X-0.381000X-0.762000X0*%
%TD*%
%TA.AperFunction,ViaPad*%
%ADD24C,0.889000*%
%TD*%
%TA.AperFunction,ViaPad*%
%ADD25C,1.143000*%
%TD*%
%TA.AperFunction,Conductor*%
%ADD26C,0.254000*%
%TD*%
%TA.AperFunction,Conductor*%
%ADD27C,0.609600*%
%TD*%
G04 APERTURE END LIST*
D10*
%TO.P,R2,1*%
%TO.N,Net-(R2-Pad1)*%
X126700000Y-43800000D03*
%TO.P,R2,2*%
%TO.N,/ Current Control/FETGate*%
X128700000Y-43800000D03*
%TD*%
D11*
%TO.P,R3,2*%
%TO.N,Current_Sink-*%
X133146800Y-56083200D03*
D12*
%TO.P,R3,1*%
%TO.N,Net-(Q2-S)*%
X133146800Y-43383200D03*
%TD*%
D13*
%TO.P,Q2,1,G*%
%TO.N,/ Current Control/FETGate*%
X137515600Y-47447200D03*
D14*
%TO.P,Q2,2,D*%
%TO.N,Current_Sink+*%
X137515600Y-49987200D03*
%TO.P,Q2,3,S*%
%TO.N,Net-(Q2-S)*%
X137515600Y-52527200D03*
%TD*%
D15*
%TO.P,RV1,*%
%TO.N,*%
X113637600Y-51293400D03*
X113637600Y-41293400D03*
D16*
%TO.P,RV1,1,1*%
%TO.N,unconnected-(RV1-Pad1)*%
X110337600Y-43793400D03*
%TO.P,RV1,2,2*%
%TO.N,Net-(U1A-+)*%
X110337600Y-46293400D03*
%TO.P,RV1,3,3*%
%TO.N,Current_Sink-*%
X110337600Y-48793400D03*
%TD*%
D17*
%TO.P,U3,1,VO*%
%TO.N,2.7V*%
X125603000Y-55321200D03*
%TO.P,U3,2,GND*%
%TO.N,Current_Sink-*%
X124333000Y-55321200D03*
%TO.P,U3,3,GND*%
X123063000Y-55321200D03*
%TO.P,U3,4,ADJ*%
%TO.N,Net-(U3-ADJ)*%
X121793000Y-55321200D03*
%TO.P,U3,5,INHIBIT*%
%TO.N,Net-(U3-INHIBIT)*%
X121793000Y-60271200D03*
%TO.P,U3,6,GND*%
%TO.N,Current_Sink-*%
X123063000Y-60271200D03*
%TO.P,U3,7,GND*%
X124333000Y-60271200D03*
%TO.P,U3,8,VI*%
%TO.N,Vin*%
X125603000Y-60271200D03*
%TD*%
D15*
%TO.P,RV2,*%
%TO.N,*%
X117000000Y-35966400D03*
X127000000Y-35966400D03*
D16*
%TO.P,RV2,1,1*%
%TO.N,unconnected-(RV2-Pad1)*%
X124500000Y-32666400D03*
%TO.P,RV2,2,2*%
%TO.N,Net-(U1B-+)*%
X122000000Y-32666400D03*
%TO.P,RV2,3,3*%
%TO.N,Current_Sink-*%
X119500000Y-32666400D03*
%TD*%
D18*
%TO.P,R7,1*%
%TO.N,Current_Sink-*%
X119700000Y-58500000D03*
%TO.P,R7,2*%
%TO.N,Net-(U3-INHIBIT)*%
X119700000Y-60500000D03*
%TD*%
D19*
%TO.P,J2,1,Pin_1*%
%TO.N,Net-(J1-Pin_1)*%
X111150400Y-56388000D03*
D20*
%TO.P,J2,2,Pin_2*%
%TO.N,Vin*%
X111150400Y-58928000D03*
%TO.P,J2,3,Pin_3*%
%TO.N,Current_Sink+*%
X111150400Y-61468000D03*
%TD*%
D19*
%TO.P,J3,1,Pin_1*%
%TO.N,Current_Sink+*%
X125476000Y-67716400D03*
D20*
%TO.P,J3,2,Pin_2*%
%TO.N,Current_Sink-*%
X128016000Y-67716400D03*
%TD*%
D10*
%TO.P,R9,2*%
%TO.N,Net-(U3-ADJ)*%
X119973600Y-55041800D03*
%TO.P,R9,1*%
%TO.N,Current_Sink-*%
X117973600Y-55041800D03*
%TD*%
D19*
%TO.P,J1,1,Pin_1*%
%TO.N,Net-(J1-Pin_1)*%
X116941600Y-67564000D03*
D20*
%TO.P,J1,2,Pin_2*%
%TO.N,Current_Sink-*%
X119481600Y-67564000D03*
%TD*%
D21*
%TO.P,D1,1,K*%
%TO.N,Net-(D1-K)*%
X137500000Y-43500000D03*
%TO.P,D1,2,A*%
%TO.N,/ Current Control/FETGate*%
X140000000Y-43500000D03*
%TD*%
D17*
%TO.P,U1,1*%
%TO.N,Net-(R2-Pad1)*%
X122682000Y-43789600D03*
%TO.P,U1,2,-*%
%TO.N,Net-(Q2-S)*%
X121412000Y-43789600D03*
%TO.P,U1,3,+*%
%TO.N,Net-(U1A-+)*%
X120142000Y-43789600D03*
%TO.P,U1,4,V-*%
%TO.N,Current_Sink-*%
X118872000Y-43789600D03*
%TO.P,U1,5,+*%
%TO.N,Net-(U1B-+)*%
X118872000Y-48739600D03*
%TO.P,U1,6,-*%
%TO.N,Net-(U1B--)*%
X120142000Y-48739600D03*
%TO.P,U1,7*%
%TO.N,Net-(D1-K)*%
X121412000Y-48739600D03*
%TO.P,U1,8,V+*%
%TO.N,2.7V*%
X122682000Y-48739600D03*
%TD*%
D22*
%TO.P,R5,2*%
%TO.N,Net-(U1B--)*%
X122012200Y-51816000D03*
%TO.P,R5,1*%
%TO.N,Current_Sink+*%
X124012200Y-51816000D03*
%TD*%
D23*
%TO.P,J4,*%
%TO.N,*%
X143103600Y-37465000D03*
X143103600Y-62865000D03*
%TD*%
D18*
%TO.P,R8,2*%
%TO.N,2.7V*%
X128000000Y-56500000D03*
%TO.P,R8,1*%
%TO.N,Net-(U3-ADJ)*%
X128000000Y-54500000D03*
%TD*%
D24*
%TO.N,Net-(D1-K)*%
X135900000Y-44200000D03*
%TO.N,/ Current Control/FETGate*%
X134500000Y-44500000D03*
X131800000Y-44600000D03*
D25*
%TO.N,2.7V*%
X130000000Y-49300000D03*
X126100000Y-48600000D03*
D24*
%TO.N,Net-(U1B-+)*%
X118200000Y-39800000D03*
%TO.N,2.7V*%
X129900000Y-53000000D03*
%TO.N,Net-(U1A-+)*%
X119100000Y-45900000D03*
D25*
%TO.N,Vin*%
X127200000Y-60200000D03*
D24*
%TO.N,Net-(U1B--)*%
X120900000Y-50500000D03*
%TO.N,Net-(U1B-+)*%
X120600000Y-45500000D03*
D25*
%TO.N,Current_Sink-*%
X122300000Y-58100000D03*
X124900000Y-58100000D03*
X117100000Y-43000000D03*
D24*
%TO.N,Net-(D1-K)*%
X132000000Y-46500000D03*
D25*
%TO.N,2.7V*%
X121800000Y-46600000D03*
%TD*%
D26*
%TO.N,Net-(U1A-+)*%
X119100000Y-45900000D02*
X118706600Y-46293400D01*
X118706600Y-46293400D02*
X110337600Y-46293400D01*
%TO.N,Net-(D1-K)*%
X121412000Y-48739600D02*
X121412000Y-49267389D01*
X121412000Y-49267389D02*
X122291011Y-50146400D01*
X122291011Y-50146400D02*
X123072989Y-50146400D01*
X123072989Y-50146400D02*
X126719389Y-46500000D01*
X126719389Y-46500000D02*
X132000000Y-46500000D01*
%TO.N,/ Current Control/FETGate*%
X140000000Y-43500000D02*
X137515600Y-45984400D01*
X137515600Y-45984400D02*
X137515600Y-47447200D01*
%TO.N,Net-(D1-K)*%
X135900000Y-44200000D02*
X136800000Y-44200000D01*
X136800000Y-44200000D02*
X137500000Y-43500000D01*
D27*
%TO.N,2.7V*%
X126100000Y-48600000D02*
X129300000Y-48600000D01*
X129300000Y-48600000D02*
X130000000Y-49300000D01*
D26*
%TO.N,/ Current Control/FETGate*%
X134500000Y-44500000D02*
X134568400Y-44500000D01*
X134568400Y-44500000D02*
X137515600Y-47447200D01*
X128700000Y-43800000D02*
X131000000Y-43800000D01*
X131000000Y-43800000D02*
X131800000Y-44600000D01*
%TO.N,Net-(R2-Pad1)*%
X122682000Y-43789600D02*
X126689600Y-43789600D01*
X126689600Y-43789600D02*
X126700000Y-43800000D01*
%TO.N,Net-(U1B-+)*%
X118200000Y-39800000D02*
X122000000Y-36000000D01*
X122000000Y-36000000D02*
X122000000Y-32666400D01*
D27*
%TO.N,Current_Sink+*%
X138843200Y-57143200D02*
X139903200Y-56083200D01*
X138074400Y-57912000D02*
X138843200Y-57143200D01*
X138843200Y-57143200D02*
X133516000Y-51816000D01*
X133516000Y-51816000D02*
X124012200Y-51816000D01*
D26*
%TO.N,Net-(U1B--)*%
X122012200Y-51816000D02*
X122012200Y-51612200D01*
X122012200Y-51612200D02*
X120900000Y-50500000D01*
%TO.N,Net-(U1A-+)*%
X119100000Y-45900000D02*
X119603800Y-45396200D01*
X119603800Y-45396200D02*
X119603800Y-44327800D01*
X119603800Y-44327800D02*
X120142000Y-43789600D01*
%TO.N,Net-(U1B-+)*%
X118872000Y-48739600D02*
X118872000Y-47295434D01*
X118872000Y-47295434D02*
X120600000Y-45567434D01*
X120600000Y-45567434D02*
X120600000Y-45500000D01*
D27*
%TO.N,Net-(J1-Pin_1)*%
X111150400Y-56388000D02*
X109690800Y-57847600D01*
X109690800Y-57847600D02*
X109690800Y-62072587D01*
X109690800Y-62072587D02*
X115182213Y-67564000D01*
X115182213Y-67564000D02*
X116941600Y-67564000D01*
D26*
%TO.N,Net-(U3-ADJ)*%
X119973600Y-55041800D02*
X121513600Y-55041800D01*
X121513600Y-55041800D02*
X121793000Y-55321200D01*
D27*
%TO.N,2.7V*%
X128000000Y-56500000D02*
X128015658Y-56500000D01*
X128015658Y-56500000D02*
X129900000Y-54615658D01*
X129900000Y-54615658D02*
X129900000Y-53000000D01*
X128000000Y-56500000D02*
X126781800Y-56500000D01*
X126781800Y-56500000D02*
X125603000Y-55321200D01*
D26*
%TO.N,Net-(U3-ADJ)*%
X128000000Y-54500000D02*
X127414400Y-53914400D01*
X122285600Y-53914400D02*
X121793000Y-54407000D01*
X127414400Y-53914400D02*
X122285600Y-53914400D01*
X121793000Y-54407000D02*
X121793000Y-55321200D01*
D27*
%TO.N,Net-(Q2-S)*%
X121412000Y-43789600D02*
X121412000Y-43010363D01*
X121412000Y-43010363D02*
X122322363Y-42100000D01*
X122322363Y-42100000D02*
X130230656Y-42100000D01*
X132063600Y-42300000D02*
X133146800Y-43383200D01*
X130230656Y-42100000D02*
X130430656Y-42300000D01*
X130430656Y-42300000D02*
X132063600Y-42300000D01*
D26*
%TO.N,Net-(U3-INHIBIT)*%
X121793000Y-60271200D02*
X119928800Y-60271200D01*
X119928800Y-60271200D02*
X119700000Y-60500000D01*
D27*
%TO.N,Vin*%
X125603000Y-60271200D02*
X127128800Y-60271200D01*
X127128800Y-60271200D02*
X127200000Y-60200000D01*
X125603000Y-60271200D02*
X125603000Y-61050437D01*
X125603000Y-61050437D02*
X124797637Y-61855800D01*
X124797637Y-61855800D02*
X114078200Y-61855800D01*
X114078200Y-61855800D02*
X111150400Y-58928000D01*
%TO.N,Current_Sink+*%
X111150400Y-61468000D02*
X113639600Y-63957200D01*
X113639600Y-63957200D02*
X125476000Y-63957200D01*
D26*
%TO.N,Net-(U1B--)*%
X120142000Y-48739600D02*
X120142000Y-49742000D01*
X120142000Y-49742000D02*
X120900000Y-50500000D01*
D27*
%TO.N,Current_Sink-*%
X117100000Y-43000000D02*
X117889600Y-43789600D01*
X117889600Y-43789600D02*
X118872000Y-43789600D01*
X122300000Y-58100000D02*
X121016142Y-58100000D01*
X121016142Y-58100000D02*
X117973600Y-55057458D01*
X117973600Y-55057458D02*
X117973600Y-55041800D01*
X123063000Y-60271200D02*
X123063000Y-59937000D01*
X123063000Y-59937000D02*
X124900000Y-58100000D01*
X124333000Y-60271200D02*
X124333000Y-60133000D01*
X124333000Y-60133000D02*
X122300000Y-58100000D01*
X123063000Y-55321200D02*
X123063000Y-56263000D01*
X123063000Y-56263000D02*
X124900000Y-58100000D01*
X124333000Y-55321200D02*
X124333000Y-56067000D01*
X124333000Y-56067000D02*
X122300000Y-58100000D01*
X122300000Y-58100000D02*
X123063000Y-57337000D01*
X123063000Y-57337000D02*
X123063000Y-55321200D01*
X124900000Y-58100000D02*
X124333000Y-57533000D01*
X124333000Y-57533000D02*
X124333000Y-55321200D01*
X119700000Y-58500000D02*
X121900000Y-58500000D01*
X121900000Y-58500000D02*
X122300000Y-58100000D01*
X124900000Y-58100000D02*
X122300000Y-58100000D01*
X123063000Y-60271200D02*
X123063000Y-58863000D01*
X123063000Y-58863000D02*
X122300000Y-58100000D01*
X124333000Y-60271200D02*
X124333000Y-58667000D01*
X124333000Y-58667000D02*
X124900000Y-58100000D01*
%TO.N,2.7V*%
X122682000Y-48739600D02*
X122682000Y-47482000D01*
X122682000Y-47482000D02*
X121800000Y-46600000D01*
%TO.N,Net-(Q2-S)*%
X133146800Y-43383200D02*
X133146800Y-48158400D01*
X133146800Y-48158400D02*
X137515600Y-52527200D01*
%TO.N,Current_Sink+*%
X125476000Y-67716400D02*
X125476000Y-63957200D01*
X125476000Y-63957200D02*
X129844800Y-59588400D01*
X129844800Y-59588400D02*
X129844800Y-58716400D01*
X130649200Y-57912000D02*
X138074400Y-57912000D01*
X129844800Y-58716400D02*
X130649200Y-57912000D01*
X139903200Y-56083200D02*
X139903200Y-52374800D01*
X139903200Y-52374800D02*
X137515600Y-49987200D01*
%TD*%
M02*
