M48
; DRILL file {KiCad 7.0.6} date Sun 30 Jul 2023 09:02:42 PM
; FORMAT={2:4/ absolute / inch / suppress leading zeros}
; #@! TF.CreationDate,2023-07-30T21:02:42-06:00
; #@! TF.GenerationSoftware,Kicad,Pcbnew,7.0.6
; #@! TF.FileFunction,Plated,1,2,PTH
FMAT,2
INCH,TZ
; #@! TA.AperFunction,Plated,PTH,ViaDrill
T1C0.0250
; #@! TA.AperFunction,Plated,PTH,ViaDrill
T2C0.0300
; #@! TA.AperFunction,Plated,PTH,ComponentDrill
T3C0.0315
; #@! TA.AperFunction,Plated,PTH,ComponentDrill
T4C0.0394
; #@! TA.AperFunction,Plated,PTH,ComponentDrill
T5C0.0433
; #@! TA.AperFunction,Plated,PTH,ComponentDrill
T6C0.0906
%
G90
G05
T1
X46535Y-15669
X46890Y-18071
X47480Y-17913
X47598Y-19882
X51142Y-20866
X51890Y-17559
X51969Y-18307
X52953Y-17520
X53504Y-17402
T2
X46102Y-16929
X47953Y-18346
X48150Y-22874
X49173Y-22874
X49646Y-19134
X50079Y-23701
X51181Y-19409
T3
X52420Y-17080
X52420Y-22080
T4
X43440Y-17241
X43440Y-18226
X43440Y-19210
X43760Y-22200
X43760Y-23200
X43760Y-24200
X46040Y-26600
X47040Y-26600
X47047Y-12861
X48031Y-12861
X49016Y-12861
X49400Y-26660
X50400Y-26660
T5
X54140Y-18680
X54140Y-19680
X54140Y-20680
T6
X44739Y-16257
X44739Y-20194
X46063Y-14160
X50000Y-14160
T0
M30
