%TF.GenerationSoftware,KiCad,Pcbnew,7.0.6*%
%TF.CreationDate,2023-07-30T21:01:10-06:00*%
%TF.ProjectId,current_sink_swim,63757272-656e-4745-9f73-696e6b5f7377,rev?*%
%TF.SameCoordinates,Original*%
%TF.FileFunction,Legend,Top*%
%TF.FilePolarity,Positive*%
%FSLAX46Y46*%
G04 Gerber Fmt 4.6, Leading zero omitted, Abs format (unit mm)*
G04 Created by KiCad (PCBNEW 7.0.6) date 2023-07-30 21:01:10*
%MOMM*%
%LPD*%
G01*
G04 APERTURE LIST*
G04 Aperture macros list*
%AMRoundRect*
0 Rectangle with rounded corners*
0 $1 Rounding radius*
0 $2 $3 $4 $5 $6 $7 $8 $9 X,Y pos of 4 corners*
0 Add a 4 corners polygon primitive as box body*
4,1,4,$2,$3,$4,$5,$6,$7,$8,$9,$2,$3,0*
0 Add four circle primitives for the rounded corners*
1,1,$1+$1,$2,$3*
1,1,$1+$1,$4,$5*
1,1,$1+$1,$6,$7*
1,1,$1+$1,$8,$9*
0 Add four rect primitives between the rounded corners*
20,1,$1+$1,$2,$3,$4,$5,0*
20,1,$1+$1,$4,$5,$6,$7,0*
20,1,$1+$1,$6,$7,$8,$9,0*
20,1,$1+$1,$8,$9,$2,$3,0*%
G04 Aperture macros list end*
%ADD10C,0.300000*%
%ADD11C,0.150000*%
%ADD12C,0.100000*%
%ADD13C,0.120000*%
%ADD14RoundRect,0.250000X-0.350000X-0.450000X0.350000X-0.450000X0.350000X0.450000X-0.350000X0.450000X0*%
%ADD15O,1.600000X1.600000*%
%ADD16C,1.600000*%
%ADD17R,2.000000X1.905000*%
%ADD18O,2.000000X1.905000*%
%ADD19C,4.600000*%
%ADD20C,1.800000*%
%ADD21RoundRect,0.150000X-0.150000X0.825000X-0.150000X-0.825000X0.150000X-0.825000X0.150000X0.825000X0*%
%ADD22RoundRect,0.250000X-0.450000X0.350000X-0.450000X-0.350000X0.450000X-0.350000X0.450000X0.350000X0*%
%ADD23R,1.700000X1.700000*%
%ADD24O,1.700000X1.700000*%
%ADD25RoundRect,0.250000X-0.250000X-0.250000X0.250000X-0.250000X0.250000X0.250000X-0.250000X0.250000X0*%
%ADD26RoundRect,0.250000X0.350000X0.450000X-0.350000X0.450000X-0.350000X-0.450000X0.350000X-0.450000X0*%
%ADD27RoundRect,0.381000X0.381000X-0.762000X0.381000X0.762000X-0.381000X0.762000X-0.381000X-0.762000X0*%
G04 APERTURE END LIST*
D10*
X147757028Y-44207143D02*
X147685600Y-44135715D01*
X147685600Y-44135715D02*
X147614171Y-43921429D01*
X147614171Y-43921429D02*
X147614171Y-43778572D01*
X147614171Y-43778572D02*
X147685600Y-43564286D01*
X147685600Y-43564286D02*
X147828457Y-43421429D01*
X147828457Y-43421429D02*
X147971314Y-43350000D01*
X147971314Y-43350000D02*
X148257028Y-43278572D01*
X148257028Y-43278572D02*
X148471314Y-43278572D01*
X148471314Y-43278572D02*
X148757028Y-43350000D01*
X148757028Y-43350000D02*
X148899885Y-43421429D01*
X148899885Y-43421429D02*
X149042742Y-43564286D01*
X149042742Y-43564286D02*
X149114171Y-43778572D01*
X149114171Y-43778572D02*
X149114171Y-43921429D01*
X149114171Y-43921429D02*
X149042742Y-44135715D01*
X149042742Y-44135715D02*
X148971314Y-44207143D01*
X148614171Y-45492858D02*
X147614171Y-45492858D01*
X148614171Y-44850000D02*
X147828457Y-44850000D01*
X147828457Y-44850000D02*
X147685600Y-44921429D01*
X147685600Y-44921429D02*
X147614171Y-45064286D01*
X147614171Y-45064286D02*
X147614171Y-45278572D01*
X147614171Y-45278572D02*
X147685600Y-45421429D01*
X147685600Y-45421429D02*
X147757028Y-45492858D01*
X147614171Y-46207143D02*
X148614171Y-46207143D01*
X148328457Y-46207143D02*
X148471314Y-46278572D01*
X148471314Y-46278572D02*
X148542742Y-46350001D01*
X148542742Y-46350001D02*
X148614171Y-46492858D01*
X148614171Y-46492858D02*
X148614171Y-46635715D01*
X147614171Y-47135714D02*
X148614171Y-47135714D01*
X148328457Y-47135714D02*
X148471314Y-47207143D01*
X148471314Y-47207143D02*
X148542742Y-47278572D01*
X148542742Y-47278572D02*
X148614171Y-47421429D01*
X148614171Y-47421429D02*
X148614171Y-47564286D01*
X147685600Y-48635714D02*
X147614171Y-48492857D01*
X147614171Y-48492857D02*
X147614171Y-48207143D01*
X147614171Y-48207143D02*
X147685600Y-48064285D01*
X147685600Y-48064285D02*
X147828457Y-47992857D01*
X147828457Y-47992857D02*
X148399885Y-47992857D01*
X148399885Y-47992857D02*
X148542742Y-48064285D01*
X148542742Y-48064285D02*
X148614171Y-48207143D01*
X148614171Y-48207143D02*
X148614171Y-48492857D01*
X148614171Y-48492857D02*
X148542742Y-48635714D01*
X148542742Y-48635714D02*
X148399885Y-48707143D01*
X148399885Y-48707143D02*
X148257028Y-48707143D01*
X148257028Y-48707143D02*
X148114171Y-47992857D01*
X148614171Y-49349999D02*
X147614171Y-49349999D01*
X148471314Y-49349999D02*
X148542742Y-49421428D01*
X148542742Y-49421428D02*
X148614171Y-49564285D01*
X148614171Y-49564285D02*
X148614171Y-49778571D01*
X148614171Y-49778571D02*
X148542742Y-49921428D01*
X148542742Y-49921428D02*
X148399885Y-49992857D01*
X148399885Y-49992857D02*
X147614171Y-49992857D01*
X148614171Y-50492857D02*
X148614171Y-51064285D01*
X149114171Y-50707142D02*
X147828457Y-50707142D01*
X147828457Y-50707142D02*
X147685600Y-50778571D01*
X147685600Y-50778571D02*
X147614171Y-50921428D01*
X147614171Y-50921428D02*
X147614171Y-51064285D01*
X147685600Y-52635714D02*
X147614171Y-52850000D01*
X147614171Y-52850000D02*
X147614171Y-53207142D01*
X147614171Y-53207142D02*
X147685600Y-53350000D01*
X147685600Y-53350000D02*
X147757028Y-53421428D01*
X147757028Y-53421428D02*
X147899885Y-53492857D01*
X147899885Y-53492857D02*
X148042742Y-53492857D01*
X148042742Y-53492857D02*
X148185600Y-53421428D01*
X148185600Y-53421428D02*
X148257028Y-53350000D01*
X148257028Y-53350000D02*
X148328457Y-53207142D01*
X148328457Y-53207142D02*
X148399885Y-52921428D01*
X148399885Y-52921428D02*
X148471314Y-52778571D01*
X148471314Y-52778571D02*
X148542742Y-52707142D01*
X148542742Y-52707142D02*
X148685600Y-52635714D01*
X148685600Y-52635714D02*
X148828457Y-52635714D01*
X148828457Y-52635714D02*
X148971314Y-52707142D01*
X148971314Y-52707142D02*
X149042742Y-52778571D01*
X149042742Y-52778571D02*
X149114171Y-52921428D01*
X149114171Y-52921428D02*
X149114171Y-53278571D01*
X149114171Y-53278571D02*
X149042742Y-53492857D01*
X147614171Y-54135713D02*
X148614171Y-54135713D01*
X149114171Y-54135713D02*
X149042742Y-54064285D01*
X149042742Y-54064285D02*
X148971314Y-54135713D01*
X148971314Y-54135713D02*
X149042742Y-54207142D01*
X149042742Y-54207142D02*
X149114171Y-54135713D01*
X149114171Y-54135713D02*
X148971314Y-54135713D01*
X148614171Y-54849999D02*
X147614171Y-54849999D01*
X148471314Y-54849999D02*
X148542742Y-54921428D01*
X148542742Y-54921428D02*
X148614171Y-55064285D01*
X148614171Y-55064285D02*
X148614171Y-55278571D01*
X148614171Y-55278571D02*
X148542742Y-55421428D01*
X148542742Y-55421428D02*
X148399885Y-55492857D01*
X148399885Y-55492857D02*
X147614171Y-55492857D01*
X147614171Y-56207142D02*
X149114171Y-56207142D01*
X148185600Y-56350000D02*
X147614171Y-56778571D01*
X148614171Y-56778571D02*
X148042742Y-56207142D01*
X145199171Y-46600000D02*
X145270600Y-46457143D01*
X145270600Y-46457143D02*
X145342028Y-46385714D01*
X145342028Y-46385714D02*
X145484885Y-46314286D01*
X145484885Y-46314286D02*
X145913457Y-46314286D01*
X145913457Y-46314286D02*
X146056314Y-46385714D01*
X146056314Y-46385714D02*
X146127742Y-46457143D01*
X146127742Y-46457143D02*
X146199171Y-46600000D01*
X146199171Y-46600000D02*
X146199171Y-46814286D01*
X146199171Y-46814286D02*
X146127742Y-46957143D01*
X146127742Y-46957143D02*
X146056314Y-47028572D01*
X146056314Y-47028572D02*
X145913457Y-47100000D01*
X145913457Y-47100000D02*
X145484885Y-47100000D01*
X145484885Y-47100000D02*
X145342028Y-47028572D01*
X145342028Y-47028572D02*
X145270600Y-46957143D01*
X145270600Y-46957143D02*
X145199171Y-46814286D01*
X145199171Y-46814286D02*
X145199171Y-46600000D01*
X145199171Y-47742857D02*
X146199171Y-47742857D01*
X145913457Y-47742857D02*
X146056314Y-47814286D01*
X146056314Y-47814286D02*
X146127742Y-47885715D01*
X146127742Y-47885715D02*
X146199171Y-48028572D01*
X146199171Y-48028572D02*
X146199171Y-48171429D01*
X145270600Y-49742857D02*
X145199171Y-49957143D01*
X145199171Y-49957143D02*
X145199171Y-50314285D01*
X145199171Y-50314285D02*
X145270600Y-50457143D01*
X145270600Y-50457143D02*
X145342028Y-50528571D01*
X145342028Y-50528571D02*
X145484885Y-50600000D01*
X145484885Y-50600000D02*
X145627742Y-50600000D01*
X145627742Y-50600000D02*
X145770600Y-50528571D01*
X145770600Y-50528571D02*
X145842028Y-50457143D01*
X145842028Y-50457143D02*
X145913457Y-50314285D01*
X145913457Y-50314285D02*
X145984885Y-50028571D01*
X145984885Y-50028571D02*
X146056314Y-49885714D01*
X146056314Y-49885714D02*
X146127742Y-49814285D01*
X146127742Y-49814285D02*
X146270600Y-49742857D01*
X146270600Y-49742857D02*
X146413457Y-49742857D01*
X146413457Y-49742857D02*
X146556314Y-49814285D01*
X146556314Y-49814285D02*
X146627742Y-49885714D01*
X146627742Y-49885714D02*
X146699171Y-50028571D01*
X146699171Y-50028571D02*
X146699171Y-50385714D01*
X146699171Y-50385714D02*
X146627742Y-50600000D01*
X146199171Y-51099999D02*
X145199171Y-51385714D01*
X145199171Y-51385714D02*
X145913457Y-51671428D01*
X145913457Y-51671428D02*
X145199171Y-51957142D01*
X145199171Y-51957142D02*
X146199171Y-52242856D01*
X145199171Y-52814285D02*
X146199171Y-52814285D01*
X146699171Y-52814285D02*
X146627742Y-52742857D01*
X146627742Y-52742857D02*
X146556314Y-52814285D01*
X146556314Y-52814285D02*
X146627742Y-52885714D01*
X146627742Y-52885714D02*
X146699171Y-52814285D01*
X146699171Y-52814285D02*
X146556314Y-52814285D01*
X145199171Y-53528571D02*
X146199171Y-53528571D01*
X146056314Y-53528571D02*
X146127742Y-53600000D01*
X146127742Y-53600000D02*
X146199171Y-53742857D01*
X146199171Y-53742857D02*
X146199171Y-53957143D01*
X146199171Y-53957143D02*
X146127742Y-54100000D01*
X146127742Y-54100000D02*
X145984885Y-54171429D01*
X145984885Y-54171429D02*
X145199171Y-54171429D01*
X145984885Y-54171429D02*
X146127742Y-54242857D01*
X146127742Y-54242857D02*
X146199171Y-54385714D01*
X146199171Y-54385714D02*
X146199171Y-54600000D01*
X146199171Y-54600000D02*
X146127742Y-54742857D01*
X146127742Y-54742857D02*
X145984885Y-54814286D01*
X145984885Y-54814286D02*
X145199171Y-54814286D01*
D11*
X127633333Y-45854819D02*
X127300000Y-45378628D01*
X127061905Y-45854819D02*
X127061905Y-44854819D01*
X127061905Y-44854819D02*
X127442857Y-44854819D01*
X127442857Y-44854819D02*
X127538095Y-44902438D01*
X127538095Y-44902438D02*
X127585714Y-44950057D01*
X127585714Y-44950057D02*
X127633333Y-45045295D01*
X127633333Y-45045295D02*
X127633333Y-45188152D01*
X127633333Y-45188152D02*
X127585714Y-45283390D01*
X127585714Y-45283390D02*
X127538095Y-45331009D01*
X127538095Y-45331009D02*
X127442857Y-45378628D01*
X127442857Y-45378628D02*
X127061905Y-45378628D01*
X128014286Y-44950057D02*
X128061905Y-44902438D01*
X128061905Y-44902438D02*
X128157143Y-44854819D01*
X128157143Y-44854819D02*
X128395238Y-44854819D01*
X128395238Y-44854819D02*
X128490476Y-44902438D01*
X128490476Y-44902438D02*
X128538095Y-44950057D01*
X128538095Y-44950057D02*
X128585714Y-45045295D01*
X128585714Y-45045295D02*
X128585714Y-45140533D01*
X128585714Y-45140533D02*
X128538095Y-45283390D01*
X128538095Y-45283390D02*
X127966667Y-45854819D01*
X127966667Y-45854819D02*
X128585714Y-45854819D01*
X133601619Y-49899866D02*
X133125428Y-50233199D01*
X133601619Y-50471294D02*
X132601619Y-50471294D01*
X132601619Y-50471294D02*
X132601619Y-50090342D01*
X132601619Y-50090342D02*
X132649238Y-49995104D01*
X132649238Y-49995104D02*
X132696857Y-49947485D01*
X132696857Y-49947485D02*
X132792095Y-49899866D01*
X132792095Y-49899866D02*
X132934952Y-49899866D01*
X132934952Y-49899866D02*
X133030190Y-49947485D01*
X133030190Y-49947485D02*
X133077809Y-49995104D01*
X133077809Y-49995104D02*
X133125428Y-50090342D01*
X133125428Y-50090342D02*
X133125428Y-50471294D01*
X132601619Y-49566532D02*
X132601619Y-48947485D01*
X132601619Y-48947485D02*
X132982571Y-49280818D01*
X132982571Y-49280818D02*
X132982571Y-49137961D01*
X132982571Y-49137961D02*
X133030190Y-49042723D01*
X133030190Y-49042723D02*
X133077809Y-48995104D01*
X133077809Y-48995104D02*
X133173047Y-48947485D01*
X133173047Y-48947485D02*
X133411142Y-48947485D01*
X133411142Y-48947485D02*
X133506380Y-48995104D01*
X133506380Y-48995104D02*
X133554000Y-49042723D01*
X133554000Y-49042723D02*
X133601619Y-49137961D01*
X133601619Y-49137961D02*
X133601619Y-49423675D01*
X133601619Y-49423675D02*
X133554000Y-49518913D01*
X133554000Y-49518913D02*
X133506380Y-49566532D01*
X140554857Y-49828438D02*
X140507238Y-49923676D01*
X140507238Y-49923676D02*
X140412000Y-50018914D01*
X140412000Y-50018914D02*
X140269142Y-50161771D01*
X140269142Y-50161771D02*
X140221523Y-50257009D01*
X140221523Y-50257009D02*
X140221523Y-50352247D01*
X140459619Y-50304628D02*
X140412000Y-50399866D01*
X140412000Y-50399866D02*
X140316761Y-50495104D01*
X140316761Y-50495104D02*
X140126285Y-50542723D01*
X140126285Y-50542723D02*
X139792952Y-50542723D01*
X139792952Y-50542723D02*
X139602476Y-50495104D01*
X139602476Y-50495104D02*
X139507238Y-50399866D01*
X139507238Y-50399866D02*
X139459619Y-50304628D01*
X139459619Y-50304628D02*
X139459619Y-50114152D01*
X139459619Y-50114152D02*
X139507238Y-50018914D01*
X139507238Y-50018914D02*
X139602476Y-49923676D01*
X139602476Y-49923676D02*
X139792952Y-49876057D01*
X139792952Y-49876057D02*
X140126285Y-49876057D01*
X140126285Y-49876057D02*
X140316761Y-49923676D01*
X140316761Y-49923676D02*
X140412000Y-50018914D01*
X140412000Y-50018914D02*
X140459619Y-50114152D01*
X140459619Y-50114152D02*
X140459619Y-50304628D01*
X139554857Y-49495104D02*
X139507238Y-49447485D01*
X139507238Y-49447485D02*
X139459619Y-49352247D01*
X139459619Y-49352247D02*
X139459619Y-49114152D01*
X139459619Y-49114152D02*
X139507238Y-49018914D01*
X139507238Y-49018914D02*
X139554857Y-48971295D01*
X139554857Y-48971295D02*
X139650095Y-48923676D01*
X139650095Y-48923676D02*
X139745333Y-48923676D01*
X139745333Y-48923676D02*
X139888190Y-48971295D01*
X139888190Y-48971295D02*
X140459619Y-49542723D01*
X140459619Y-49542723D02*
X140459619Y-48923676D01*
X109104761Y-53254819D02*
X108771428Y-52778628D01*
X108533333Y-53254819D02*
X108533333Y-52254819D01*
X108533333Y-52254819D02*
X108914285Y-52254819D01*
X108914285Y-52254819D02*
X109009523Y-52302438D01*
X109009523Y-52302438D02*
X109057142Y-52350057D01*
X109057142Y-52350057D02*
X109104761Y-52445295D01*
X109104761Y-52445295D02*
X109104761Y-52588152D01*
X109104761Y-52588152D02*
X109057142Y-52683390D01*
X109057142Y-52683390D02*
X109009523Y-52731009D01*
X109009523Y-52731009D02*
X108914285Y-52778628D01*
X108914285Y-52778628D02*
X108533333Y-52778628D01*
X109390476Y-52254819D02*
X109723809Y-53254819D01*
X109723809Y-53254819D02*
X110057142Y-52254819D01*
X110914285Y-53254819D02*
X110342857Y-53254819D01*
X110628571Y-53254819D02*
X110628571Y-52254819D01*
X110628571Y-52254819D02*
X110533333Y-52397676D01*
X110533333Y-52397676D02*
X110438095Y-52492914D01*
X110438095Y-52492914D02*
X110342857Y-52540533D01*
X123152819Y-58608904D02*
X123962342Y-58608904D01*
X123962342Y-58608904D02*
X124057580Y-58561285D01*
X124057580Y-58561285D02*
X124105200Y-58513666D01*
X124105200Y-58513666D02*
X124152819Y-58418428D01*
X124152819Y-58418428D02*
X124152819Y-58227952D01*
X124152819Y-58227952D02*
X124105200Y-58132714D01*
X124105200Y-58132714D02*
X124057580Y-58085095D01*
X124057580Y-58085095D02*
X123962342Y-58037476D01*
X123962342Y-58037476D02*
X123152819Y-58037476D01*
X123152819Y-57656523D02*
X123152819Y-57037476D01*
X123152819Y-57037476D02*
X123533771Y-57370809D01*
X123533771Y-57370809D02*
X123533771Y-57227952D01*
X123533771Y-57227952D02*
X123581390Y-57132714D01*
X123581390Y-57132714D02*
X123629009Y-57085095D01*
X123629009Y-57085095D02*
X123724247Y-57037476D01*
X123724247Y-57037476D02*
X123962342Y-57037476D01*
X123962342Y-57037476D02*
X124057580Y-57085095D01*
X124057580Y-57085095D02*
X124105200Y-57132714D01*
X124105200Y-57132714D02*
X124152819Y-57227952D01*
X124152819Y-57227952D02*
X124152819Y-57513666D01*
X124152819Y-57513666D02*
X124105200Y-57608904D01*
X124105200Y-57608904D02*
X124057580Y-57656523D01*
X116554819Y-32295238D02*
X116078628Y-32628571D01*
X116554819Y-32866666D02*
X115554819Y-32866666D01*
X115554819Y-32866666D02*
X115554819Y-32485714D01*
X115554819Y-32485714D02*
X115602438Y-32390476D01*
X115602438Y-32390476D02*
X115650057Y-32342857D01*
X115650057Y-32342857D02*
X115745295Y-32295238D01*
X115745295Y-32295238D02*
X115888152Y-32295238D01*
X115888152Y-32295238D02*
X115983390Y-32342857D01*
X115983390Y-32342857D02*
X116031009Y-32390476D01*
X116031009Y-32390476D02*
X116078628Y-32485714D01*
X116078628Y-32485714D02*
X116078628Y-32866666D01*
X115554819Y-32009523D02*
X116554819Y-31676190D01*
X116554819Y-31676190D02*
X115554819Y-31342857D01*
X115650057Y-31057142D02*
X115602438Y-31009523D01*
X115602438Y-31009523D02*
X115554819Y-30914285D01*
X115554819Y-30914285D02*
X115554819Y-30676190D01*
X115554819Y-30676190D02*
X115602438Y-30580952D01*
X115602438Y-30580952D02*
X115650057Y-30533333D01*
X115650057Y-30533333D02*
X115745295Y-30485714D01*
X115745295Y-30485714D02*
X115840533Y-30485714D01*
X115840533Y-30485714D02*
X115983390Y-30533333D01*
X115983390Y-30533333D02*
X116554819Y-31104761D01*
X116554819Y-31104761D02*
X116554819Y-30485714D01*
X118154819Y-60166666D02*
X117678628Y-60499999D01*
X118154819Y-60738094D02*
X117154819Y-60738094D01*
X117154819Y-60738094D02*
X117154819Y-60357142D01*
X117154819Y-60357142D02*
X117202438Y-60261904D01*
X117202438Y-60261904D02*
X117250057Y-60214285D01*
X117250057Y-60214285D02*
X117345295Y-60166666D01*
X117345295Y-60166666D02*
X117488152Y-60166666D01*
X117488152Y-60166666D02*
X117583390Y-60214285D01*
X117583390Y-60214285D02*
X117631009Y-60261904D01*
X117631009Y-60261904D02*
X117678628Y-60357142D01*
X117678628Y-60357142D02*
X117678628Y-60738094D01*
X117154819Y-59833332D02*
X117154819Y-59166666D01*
X117154819Y-59166666D02*
X118154819Y-59595237D01*
X109666666Y-63854819D02*
X109666666Y-64569104D01*
X109666666Y-64569104D02*
X109619047Y-64711961D01*
X109619047Y-64711961D02*
X109523809Y-64807200D01*
X109523809Y-64807200D02*
X109380952Y-64854819D01*
X109380952Y-64854819D02*
X109285714Y-64854819D01*
X110095238Y-63950057D02*
X110142857Y-63902438D01*
X110142857Y-63902438D02*
X110238095Y-63854819D01*
X110238095Y-63854819D02*
X110476190Y-63854819D01*
X110476190Y-63854819D02*
X110571428Y-63902438D01*
X110571428Y-63902438D02*
X110619047Y-63950057D01*
X110619047Y-63950057D02*
X110666666Y-64045295D01*
X110666666Y-64045295D02*
X110666666Y-64140533D01*
X110666666Y-64140533D02*
X110619047Y-64283390D01*
X110619047Y-64283390D02*
X110047619Y-64854819D01*
X110047619Y-64854819D02*
X110666666Y-64854819D01*
X122263819Y-68049733D02*
X122978104Y-68049733D01*
X122978104Y-68049733D02*
X123120961Y-68097352D01*
X123120961Y-68097352D02*
X123216200Y-68192590D01*
X123216200Y-68192590D02*
X123263819Y-68335447D01*
X123263819Y-68335447D02*
X123263819Y-68430685D01*
X122263819Y-67668780D02*
X122263819Y-67049733D01*
X122263819Y-67049733D02*
X122644771Y-67383066D01*
X122644771Y-67383066D02*
X122644771Y-67240209D01*
X122644771Y-67240209D02*
X122692390Y-67144971D01*
X122692390Y-67144971D02*
X122740009Y-67097352D01*
X122740009Y-67097352D02*
X122835247Y-67049733D01*
X122835247Y-67049733D02*
X123073342Y-67049733D01*
X123073342Y-67049733D02*
X123168580Y-67097352D01*
X123168580Y-67097352D02*
X123216200Y-67144971D01*
X123216200Y-67144971D02*
X123263819Y-67240209D01*
X123263819Y-67240209D02*
X123263819Y-67525923D01*
X123263819Y-67525923D02*
X123216200Y-67621161D01*
X123216200Y-67621161D02*
X123168580Y-67668780D01*
X118806933Y-53846619D02*
X118473600Y-53370428D01*
X118235505Y-53846619D02*
X118235505Y-52846619D01*
X118235505Y-52846619D02*
X118616457Y-52846619D01*
X118616457Y-52846619D02*
X118711695Y-52894238D01*
X118711695Y-52894238D02*
X118759314Y-52941857D01*
X118759314Y-52941857D02*
X118806933Y-53037095D01*
X118806933Y-53037095D02*
X118806933Y-53179952D01*
X118806933Y-53179952D02*
X118759314Y-53275190D01*
X118759314Y-53275190D02*
X118711695Y-53322809D01*
X118711695Y-53322809D02*
X118616457Y-53370428D01*
X118616457Y-53370428D02*
X118235505Y-53370428D01*
X119283124Y-53846619D02*
X119473600Y-53846619D01*
X119473600Y-53846619D02*
X119568838Y-53799000D01*
X119568838Y-53799000D02*
X119616457Y-53751380D01*
X119616457Y-53751380D02*
X119711695Y-53608523D01*
X119711695Y-53608523D02*
X119759314Y-53418047D01*
X119759314Y-53418047D02*
X119759314Y-53037095D01*
X119759314Y-53037095D02*
X119711695Y-52941857D01*
X119711695Y-52941857D02*
X119664076Y-52894238D01*
X119664076Y-52894238D02*
X119568838Y-52846619D01*
X119568838Y-52846619D02*
X119378362Y-52846619D01*
X119378362Y-52846619D02*
X119283124Y-52894238D01*
X119283124Y-52894238D02*
X119235505Y-52941857D01*
X119235505Y-52941857D02*
X119187886Y-53037095D01*
X119187886Y-53037095D02*
X119187886Y-53275190D01*
X119187886Y-53275190D02*
X119235505Y-53370428D01*
X119235505Y-53370428D02*
X119283124Y-53418047D01*
X119283124Y-53418047D02*
X119378362Y-53465666D01*
X119378362Y-53465666D02*
X119568838Y-53465666D01*
X119568838Y-53465666D02*
X119664076Y-53418047D01*
X119664076Y-53418047D02*
X119711695Y-53370428D01*
X119711695Y-53370428D02*
X119759314Y-53275190D01*
X113729419Y-68733333D02*
X114443704Y-68733333D01*
X114443704Y-68733333D02*
X114586561Y-68780952D01*
X114586561Y-68780952D02*
X114681800Y-68876190D01*
X114681800Y-68876190D02*
X114729419Y-69019047D01*
X114729419Y-69019047D02*
X114729419Y-69114285D01*
X114729419Y-67733333D02*
X114729419Y-68304761D01*
X114729419Y-68019047D02*
X113729419Y-68019047D01*
X113729419Y-68019047D02*
X113872276Y-68114285D01*
X113872276Y-68114285D02*
X113967514Y-68209523D01*
X113967514Y-68209523D02*
X114015133Y-68304761D01*
X135061905Y-43254819D02*
X135061905Y-42254819D01*
X135061905Y-42254819D02*
X135300000Y-42254819D01*
X135300000Y-42254819D02*
X135442857Y-42302438D01*
X135442857Y-42302438D02*
X135538095Y-42397676D01*
X135538095Y-42397676D02*
X135585714Y-42492914D01*
X135585714Y-42492914D02*
X135633333Y-42683390D01*
X135633333Y-42683390D02*
X135633333Y-42826247D01*
X135633333Y-42826247D02*
X135585714Y-43016723D01*
X135585714Y-43016723D02*
X135538095Y-43111961D01*
X135538095Y-43111961D02*
X135442857Y-43207200D01*
X135442857Y-43207200D02*
X135300000Y-43254819D01*
X135300000Y-43254819D02*
X135061905Y-43254819D01*
X136585714Y-43254819D02*
X136014286Y-43254819D01*
X136300000Y-43254819D02*
X136300000Y-42254819D01*
X136300000Y-42254819D02*
X136204762Y-42397676D01*
X136204762Y-42397676D02*
X136109524Y-42492914D01*
X136109524Y-42492914D02*
X136014286Y-42540533D01*
X120154819Y-47361904D02*
X120964342Y-47361904D01*
X120964342Y-47361904D02*
X121059580Y-47314285D01*
X121059580Y-47314285D02*
X121107200Y-47266666D01*
X121107200Y-47266666D02*
X121154819Y-47171428D01*
X121154819Y-47171428D02*
X121154819Y-46980952D01*
X121154819Y-46980952D02*
X121107200Y-46885714D01*
X121107200Y-46885714D02*
X121059580Y-46838095D01*
X121059580Y-46838095D02*
X120964342Y-46790476D01*
X120964342Y-46790476D02*
X120154819Y-46790476D01*
X121154819Y-45790476D02*
X121154819Y-46361904D01*
X121154819Y-46076190D02*
X120154819Y-46076190D01*
X120154819Y-46076190D02*
X120297676Y-46171428D01*
X120297676Y-46171428D02*
X120392914Y-46266666D01*
X120392914Y-46266666D02*
X120440533Y-46361904D01*
X122769333Y-50950019D02*
X122436000Y-50473828D01*
X122197905Y-50950019D02*
X122197905Y-49950019D01*
X122197905Y-49950019D02*
X122578857Y-49950019D01*
X122578857Y-49950019D02*
X122674095Y-49997638D01*
X122674095Y-49997638D02*
X122721714Y-50045257D01*
X122721714Y-50045257D02*
X122769333Y-50140495D01*
X122769333Y-50140495D02*
X122769333Y-50283352D01*
X122769333Y-50283352D02*
X122721714Y-50378590D01*
X122721714Y-50378590D02*
X122674095Y-50426209D01*
X122674095Y-50426209D02*
X122578857Y-50473828D01*
X122578857Y-50473828D02*
X122197905Y-50473828D01*
X123674095Y-49950019D02*
X123197905Y-49950019D01*
X123197905Y-49950019D02*
X123150286Y-50426209D01*
X123150286Y-50426209D02*
X123197905Y-50378590D01*
X123197905Y-50378590D02*
X123293143Y-50330971D01*
X123293143Y-50330971D02*
X123531238Y-50330971D01*
X123531238Y-50330971D02*
X123626476Y-50378590D01*
X123626476Y-50378590D02*
X123674095Y-50426209D01*
X123674095Y-50426209D02*
X123721714Y-50521447D01*
X123721714Y-50521447D02*
X123721714Y-50759542D01*
X123721714Y-50759542D02*
X123674095Y-50854780D01*
X123674095Y-50854780D02*
X123626476Y-50902400D01*
X123626476Y-50902400D02*
X123531238Y-50950019D01*
X123531238Y-50950019D02*
X123293143Y-50950019D01*
X123293143Y-50950019D02*
X123197905Y-50902400D01*
X123197905Y-50902400D02*
X123150286Y-50854780D01*
D12*
X142657419Y-50433333D02*
X143371704Y-50433333D01*
X143371704Y-50433333D02*
X143514561Y-50480952D01*
X143514561Y-50480952D02*
X143609800Y-50576190D01*
X143609800Y-50576190D02*
X143657419Y-50719047D01*
X143657419Y-50719047D02*
X143657419Y-50814285D01*
X142990752Y-49528571D02*
X143657419Y-49528571D01*
X142609800Y-49766666D02*
X143324085Y-50004761D01*
X143324085Y-50004761D02*
X143324085Y-49385714D01*
D11*
X130654819Y-55166666D02*
X130178628Y-55499999D01*
X130654819Y-55738094D02*
X129654819Y-55738094D01*
X129654819Y-55738094D02*
X129654819Y-55357142D01*
X129654819Y-55357142D02*
X129702438Y-55261904D01*
X129702438Y-55261904D02*
X129750057Y-55214285D01*
X129750057Y-55214285D02*
X129845295Y-55166666D01*
X129845295Y-55166666D02*
X129988152Y-55166666D01*
X129988152Y-55166666D02*
X130083390Y-55214285D01*
X130083390Y-55214285D02*
X130131009Y-55261904D01*
X130131009Y-55261904D02*
X130178628Y-55357142D01*
X130178628Y-55357142D02*
X130178628Y-55738094D01*
X130083390Y-54595237D02*
X130035771Y-54690475D01*
X130035771Y-54690475D02*
X129988152Y-54738094D01*
X129988152Y-54738094D02*
X129892914Y-54785713D01*
X129892914Y-54785713D02*
X129845295Y-54785713D01*
X129845295Y-54785713D02*
X129750057Y-54738094D01*
X129750057Y-54738094D02*
X129702438Y-54690475D01*
X129702438Y-54690475D02*
X129654819Y-54595237D01*
X129654819Y-54595237D02*
X129654819Y-54404761D01*
X129654819Y-54404761D02*
X129702438Y-54309523D01*
X129702438Y-54309523D02*
X129750057Y-54261904D01*
X129750057Y-54261904D02*
X129845295Y-54214285D01*
X129845295Y-54214285D02*
X129892914Y-54214285D01*
X129892914Y-54214285D02*
X129988152Y-54261904D01*
X129988152Y-54261904D02*
X130035771Y-54309523D01*
X130035771Y-54309523D02*
X130083390Y-54404761D01*
X130083390Y-54404761D02*
X130083390Y-54595237D01*
X130083390Y-54595237D02*
X130131009Y-54690475D01*
X130131009Y-54690475D02*
X130178628Y-54738094D01*
X130178628Y-54738094D02*
X130273866Y-54785713D01*
X130273866Y-54785713D02*
X130464342Y-54785713D01*
X130464342Y-54785713D02*
X130559580Y-54738094D01*
X130559580Y-54738094D02*
X130607200Y-54690475D01*
X130607200Y-54690475D02*
X130654819Y-54595237D01*
X130654819Y-54595237D02*
X130654819Y-54404761D01*
X130654819Y-54404761D02*
X130607200Y-54309523D01*
X130607200Y-54309523D02*
X130559580Y-54261904D01*
X130559580Y-54261904D02*
X130464342Y-54214285D01*
X130464342Y-54214285D02*
X130273866Y-54214285D01*
X130273866Y-54214285D02*
X130178628Y-54261904D01*
X130178628Y-54261904D02*
X130131009Y-54309523D01*
X130131009Y-54309523D02*
X130083390Y-54404761D01*
%TO.C,G\u002A\u002A\u002A*%
G36*
X153265350Y-50050824D02*
G01*
X153333572Y-50052279D01*
X153410040Y-50055445D01*
X153486676Y-50059899D01*
X153555405Y-50065218D01*
X153574043Y-50066997D01*
X153633240Y-50072400D01*
X153694264Y-50076972D01*
X153751069Y-50080325D01*
X153797607Y-50082069D01*
X153810172Y-50082226D01*
X153853664Y-50083413D01*
X153894597Y-50086369D01*
X153926351Y-50090550D01*
X153935181Y-50092492D01*
X153959839Y-50098139D01*
X153997122Y-50105469D01*
X154041344Y-50113402D01*
X154074080Y-50118848D01*
X154143910Y-50130509D01*
X154209854Y-50142379D01*
X154268396Y-50153771D01*
X154316025Y-50163998D01*
X154349224Y-50172372D01*
X154351878Y-50173161D01*
X154418494Y-50198509D01*
X154474908Y-50230175D01*
X154519415Y-50266509D01*
X154550313Y-50305861D01*
X154565897Y-50346578D01*
X154565919Y-50380579D01*
X154550059Y-50420505D01*
X154518017Y-50462546D01*
X154471624Y-50504532D01*
X154444477Y-50524246D01*
X154412470Y-50545478D01*
X154384392Y-50562516D01*
X154356194Y-50577255D01*
X154323826Y-50591590D01*
X154283239Y-50607416D01*
X154230381Y-50626631D01*
X154211020Y-50633519D01*
X154163327Y-50651114D01*
X154118375Y-50668907D01*
X154080940Y-50684931D01*
X154055798Y-50697216D01*
X154054125Y-50698174D01*
X154011226Y-50717117D01*
X153974501Y-50719293D01*
X153942127Y-50704640D01*
X153929839Y-50693905D01*
X153909788Y-50669941D01*
X153903679Y-50648094D01*
X153909770Y-50620629D01*
X153911988Y-50614595D01*
X153920243Y-50601379D01*
X153936067Y-50587935D01*
X153961338Y-50573363D01*
X153997933Y-50556764D01*
X154047731Y-50537238D01*
X154112608Y-50513884D01*
X154146945Y-50501982D01*
X154193652Y-50485608D01*
X154236439Y-50470021D01*
X154270992Y-50456831D01*
X154293000Y-50447650D01*
X154295104Y-50446643D01*
X154326032Y-50429725D01*
X154357315Y-50410076D01*
X154384828Y-50390614D01*
X154404447Y-50374260D01*
X154412048Y-50363932D01*
X154412050Y-50363852D01*
X154403838Y-50353891D01*
X154381857Y-50340560D01*
X154350132Y-50325626D01*
X154312687Y-50310855D01*
X154273546Y-50298015D01*
X154245389Y-50290689D01*
X154161858Y-50274013D01*
X154063254Y-50257734D01*
X153953021Y-50242231D01*
X153834604Y-50227880D01*
X153711450Y-50215060D01*
X153587005Y-50204148D01*
X153464712Y-50195522D01*
X153348019Y-50189559D01*
X153310135Y-50188202D01*
X153252580Y-50185967D01*
X153200032Y-50183136D01*
X153155825Y-50179950D01*
X153123290Y-50176652D01*
X153105759Y-50173483D01*
X153105303Y-50173320D01*
X153083189Y-50157377D01*
X153066072Y-50132485D01*
X153060117Y-50109897D01*
X153065664Y-50097986D01*
X153079325Y-50079343D01*
X153082467Y-50075608D01*
X153104816Y-50049627D01*
X153265350Y-50050824D01*
G37*
G36*
X150526689Y-51938023D02*
G01*
X150553696Y-51948200D01*
X150573569Y-51962062D01*
X150581041Y-51971077D01*
X150586045Y-51982723D01*
X150588965Y-52000400D01*
X150590185Y-52027507D01*
X150590088Y-52067445D01*
X150589478Y-52103051D01*
X150588773Y-52154496D01*
X150589279Y-52191135D01*
X150591373Y-52216667D01*
X150595431Y-52234786D01*
X150601828Y-52249189D01*
X150604884Y-52254348D01*
X150629621Y-52284659D01*
X150665815Y-52317445D01*
X150707834Y-52348046D01*
X150742536Y-52368168D01*
X150781594Y-52385121D01*
X150823331Y-52398783D01*
X150864184Y-52408564D01*
X150900589Y-52413872D01*
X150928982Y-52414115D01*
X150945800Y-52408702D01*
X150948852Y-52402411D01*
X150945201Y-52389047D01*
X150935303Y-52362891D01*
X150920744Y-52327935D01*
X150906025Y-52294584D01*
X150887097Y-52251759D01*
X150875056Y-52220871D01*
X150868685Y-52197203D01*
X150866766Y-52176041D01*
X150868082Y-52152669D01*
X150868444Y-52149051D01*
X150875260Y-52111523D01*
X150888443Y-52084370D01*
X150899697Y-52070852D01*
X150921854Y-52049159D01*
X150943040Y-52033635D01*
X150966931Y-52023278D01*
X150997202Y-52017083D01*
X151037527Y-52014046D01*
X151091582Y-52013165D01*
X151110901Y-52013170D01*
X151167272Y-52013768D01*
X151210843Y-52015705D01*
X151247322Y-52019656D01*
X151282417Y-52026293D01*
X151321836Y-52036293D01*
X151333139Y-52039426D01*
X151439933Y-52074205D01*
X151532465Y-52114473D01*
X151609960Y-52159678D01*
X151671643Y-52209271D01*
X151716738Y-52262701D01*
X151744470Y-52319418D01*
X151748694Y-52334438D01*
X151749018Y-52371650D01*
X151733927Y-52405387D01*
X151706526Y-52432259D01*
X151669919Y-52448872D01*
X151640572Y-52452580D01*
X151619448Y-52448358D01*
X151587935Y-52437360D01*
X151551676Y-52422086D01*
X151516311Y-52405038D01*
X151487480Y-52388716D01*
X151473690Y-52378594D01*
X151478209Y-52375777D01*
X151497203Y-52374846D01*
X151526707Y-52375966D01*
X151530323Y-52376215D01*
X151567824Y-52377273D01*
X151597512Y-52375041D01*
X151612010Y-52370998D01*
X151620024Y-52364755D01*
X151619963Y-52356692D01*
X151610059Y-52343472D01*
X151588543Y-52321755D01*
X151583158Y-52316548D01*
X151520399Y-52267522D01*
X151443108Y-52226362D01*
X151353920Y-52193994D01*
X151255473Y-52171340D01*
X151150403Y-52159325D01*
X151131881Y-52158399D01*
X151083899Y-52156850D01*
X151051427Y-52156959D01*
X151031511Y-52158956D01*
X151021195Y-52163069D01*
X151018148Y-52167214D01*
X151019795Y-52180592D01*
X151028184Y-52206569D01*
X151041879Y-52241130D01*
X151055732Y-52272349D01*
X151074063Y-52314839D01*
X151089397Y-52355948D01*
X151099734Y-52390004D01*
X151102875Y-52406105D01*
X151100436Y-52455248D01*
X151082556Y-52495761D01*
X151050507Y-52526988D01*
X151005562Y-52548276D01*
X150948995Y-52558968D01*
X150882078Y-52558410D01*
X150823621Y-52549766D01*
X150756098Y-52531294D01*
X150687446Y-52503997D01*
X150621891Y-52470214D01*
X150563657Y-52432290D01*
X150516971Y-52392567D01*
X150495545Y-52367883D01*
X150463344Y-52319266D01*
X150442241Y-52273262D01*
X150430092Y-52223355D01*
X150424750Y-52163027D01*
X150424375Y-52151632D01*
X150425025Y-52083668D01*
X150431118Y-52033119D01*
X150435222Y-52017363D01*
X150454357Y-51976155D01*
X150479889Y-51948820D01*
X150509720Y-51937180D01*
X150526689Y-51938023D01*
G37*
G36*
X151210389Y-49253499D02*
G01*
X151314052Y-49270783D01*
X151409167Y-49303703D01*
X151494825Y-49351943D01*
X151570117Y-49415189D01*
X151570356Y-49415431D01*
X151604937Y-49448357D01*
X151642452Y-49480756D01*
X151666497Y-49499390D01*
X151676128Y-49506854D01*
X151683866Y-49512193D01*
X151737099Y-49554207D01*
X151771856Y-49597372D01*
X151788150Y-49641779D01*
X151785995Y-49687516D01*
X151765403Y-49734675D01*
X151726389Y-49783344D01*
X151724317Y-49785454D01*
X151687437Y-49818035D01*
X151643828Y-49849265D01*
X151597222Y-49877209D01*
X151551349Y-49899931D01*
X151509942Y-49915496D01*
X151476734Y-49921967D01*
X151463147Y-49920908D01*
X151440647Y-49906971D01*
X151423384Y-49882102D01*
X151415578Y-49853864D01*
X151417172Y-49838501D01*
X151426506Y-49821696D01*
X151444989Y-49797102D01*
X151468646Y-49770000D01*
X151469010Y-49769612D01*
X151509177Y-49720753D01*
X151532816Y-49676282D01*
X151535695Y-49660710D01*
X151661867Y-49660710D01*
X151666497Y-49665340D01*
X151671127Y-49660710D01*
X151666497Y-49656080D01*
X151661867Y-49660710D01*
X151535695Y-49660710D01*
X151540659Y-49633865D01*
X151533433Y-49591166D01*
X151528713Y-49578611D01*
X151520742Y-49563375D01*
X151509050Y-49551492D01*
X151489740Y-49540510D01*
X151458919Y-49527978D01*
X151433798Y-49518879D01*
X151398945Y-49507330D01*
X151351048Y-49492590D01*
X151294324Y-49475845D01*
X151232992Y-49458282D01*
X151171269Y-49441087D01*
X151113372Y-49425447D01*
X151063519Y-49412549D01*
X151025928Y-49403578D01*
X151017949Y-49401886D01*
X150983997Y-49401671D01*
X150939387Y-49410927D01*
X150888237Y-49427963D01*
X150834664Y-49451085D01*
X150782786Y-49478600D01*
X150736722Y-49508816D01*
X150714728Y-49526526D01*
X150686741Y-49553022D01*
X150666081Y-49578294D01*
X150652577Y-49604922D01*
X150646060Y-49635490D01*
X150646363Y-49672580D01*
X150653315Y-49718773D01*
X150666748Y-49776652D01*
X150686493Y-49848799D01*
X150692306Y-49869058D01*
X150709941Y-49932057D01*
X150728747Y-50002410D01*
X150746663Y-50072223D01*
X150761629Y-50133607D01*
X150763819Y-50143017D01*
X150775586Y-50195069D01*
X150783227Y-50232474D01*
X150787108Y-50258552D01*
X150787597Y-50276624D01*
X150785060Y-50290010D01*
X150781094Y-50299582D01*
X150761038Y-50328265D01*
X150736448Y-50339756D01*
X150714163Y-50337874D01*
X150688342Y-50322265D01*
X150664145Y-50289686D01*
X150642436Y-50241672D01*
X150624075Y-50179756D01*
X150623219Y-50176144D01*
X150605455Y-50103137D01*
X150584261Y-50020382D01*
X150561702Y-49935697D01*
X150539844Y-49856900D01*
X150528640Y-49818129D01*
X150511994Y-49750838D01*
X150502393Y-49687769D01*
X150500338Y-49633367D01*
X150504138Y-49600520D01*
X150523573Y-49541694D01*
X150555864Y-49488459D01*
X150602917Y-49438292D01*
X150661287Y-49392392D01*
X150690503Y-49371592D01*
X150706032Y-49359135D01*
X150709461Y-49352890D01*
X150702379Y-49350727D01*
X150692516Y-49350502D01*
X150663172Y-49344025D01*
X150646938Y-49325869D01*
X150644878Y-49302629D01*
X150656993Y-49280152D01*
X150685482Y-49265489D01*
X150729896Y-49258715D01*
X150789784Y-49259902D01*
X150857743Y-49268023D01*
X150906435Y-49273279D01*
X150944875Y-49271626D01*
X150963454Y-49267949D01*
X150990482Y-49262972D01*
X151029626Y-49258024D01*
X151074492Y-49253850D01*
X151099089Y-49252165D01*
X151210389Y-49253499D01*
G37*
G36*
X151260366Y-47686267D02*
G01*
X151260597Y-47686274D01*
X151363771Y-47697153D01*
X151459478Y-47718740D01*
X151546268Y-47750068D01*
X151622694Y-47790172D01*
X151687304Y-47838083D01*
X151738649Y-47892835D01*
X151775279Y-47953461D01*
X151795745Y-48018995D01*
X151799011Y-48045377D01*
X151802111Y-48075559D01*
X151807628Y-48092703D01*
X151818246Y-48102291D01*
X151829254Y-48107104D01*
X151855052Y-48125637D01*
X151873766Y-48155258D01*
X151881812Y-48188867D01*
X151880081Y-48207785D01*
X151869958Y-48228680D01*
X151850822Y-48254884D01*
X151834826Y-48272507D01*
X151796230Y-48302795D01*
X151747303Y-48326058D01*
X151686713Y-48342519D01*
X151613128Y-48352402D01*
X151525216Y-48355928D01*
X151421644Y-48353322D01*
X151370179Y-48350249D01*
X151340306Y-48348641D01*
X151317246Y-48349558D01*
X151295712Y-48354391D01*
X151270418Y-48364532D01*
X151236077Y-48381375D01*
X151219188Y-48390010D01*
X151171111Y-48415709D01*
X151113556Y-48448101D01*
X151050592Y-48484742D01*
X150986292Y-48523186D01*
X150924726Y-48560990D01*
X150869965Y-48595708D01*
X150826079Y-48624897D01*
X150814583Y-48632967D01*
X150785927Y-48654760D01*
X150757362Y-48678615D01*
X150731818Y-48701763D01*
X150712223Y-48721439D01*
X150701508Y-48734875D01*
X150701973Y-48739346D01*
X150703583Y-48746081D01*
X150698834Y-48757866D01*
X150681994Y-48771784D01*
X150655222Y-48777446D01*
X150625114Y-48774958D01*
X150598263Y-48764421D01*
X150588075Y-48756120D01*
X150574596Y-48730395D01*
X150569576Y-48696099D01*
X150574032Y-48661623D01*
X150575934Y-48656007D01*
X150593062Y-48628161D01*
X150625064Y-48593806D01*
X150670236Y-48554684D01*
X150690105Y-48539229D01*
X150721866Y-48516465D01*
X150765455Y-48487020D01*
X150817205Y-48453200D01*
X150873448Y-48417311D01*
X150930515Y-48381658D01*
X150984739Y-48348549D01*
X151032452Y-48320289D01*
X151069986Y-48299183D01*
X151081431Y-48293209D01*
X151126041Y-48270755D01*
X151044003Y-48231769D01*
X150968690Y-48193788D01*
X150897403Y-48153676D01*
X150832771Y-48113179D01*
X150777419Y-48074045D01*
X150733974Y-48038022D01*
X150705064Y-48006858D01*
X150704190Y-48005659D01*
X150679230Y-47958944D01*
X150672597Y-47919329D01*
X150830991Y-47919329D01*
X150839411Y-47928027D01*
X150860212Y-47944465D01*
X150890255Y-47966280D01*
X150926077Y-47990894D01*
X150998085Y-48036874D01*
X151069109Y-48077991D01*
X151137008Y-48113307D01*
X151199641Y-48141884D01*
X151254868Y-48162784D01*
X151300547Y-48175068D01*
X151334537Y-48177799D01*
X151346684Y-48175210D01*
X151373952Y-48165879D01*
X151413509Y-48153927D01*
X151460088Y-48140776D01*
X151508421Y-48127846D01*
X151553239Y-48116557D01*
X151589277Y-48108332D01*
X151606307Y-48105179D01*
X151635508Y-48100418D01*
X151658886Y-48095801D01*
X151664182Y-48094480D01*
X151677970Y-48083075D01*
X151679300Y-48062272D01*
X151669724Y-48034788D01*
X151650789Y-48003341D01*
X151624046Y-47970649D01*
X151591044Y-47939430D01*
X151564400Y-47919472D01*
X151499333Y-47882757D01*
X151428388Y-47856882D01*
X151347839Y-47840798D01*
X151260366Y-47833678D01*
X151165989Y-47833853D01*
X151069247Y-47840758D01*
X150978309Y-47853678D01*
X150939592Y-47861697D01*
X150906168Y-47871754D01*
X150874395Y-47885099D01*
X150848639Y-47899415D01*
X150833265Y-47912384D01*
X150830991Y-47919329D01*
X150672597Y-47919329D01*
X150671685Y-47913883D01*
X150680479Y-47871095D01*
X150704537Y-47831196D01*
X150742782Y-47794804D01*
X150794139Y-47762536D01*
X150857533Y-47735011D01*
X150931886Y-47712846D01*
X151016125Y-47696657D01*
X151109172Y-47687063D01*
X151209952Y-47684682D01*
X151260366Y-47686267D01*
G37*
G36*
X153802159Y-48281476D02*
G01*
X153862114Y-48282574D01*
X153908750Y-48284766D01*
X153947260Y-48288631D01*
X153982838Y-48294752D01*
X154020678Y-48303709D01*
X154035146Y-48307548D01*
X154110109Y-48331365D01*
X154180571Y-48360494D01*
X154243627Y-48393287D01*
X154296375Y-48428094D01*
X154335912Y-48463267D01*
X154355485Y-48489488D01*
X154374630Y-48540276D01*
X154376682Y-48591695D01*
X154361740Y-48640301D01*
X154350761Y-48658563D01*
X154327501Y-48685893D01*
X154303162Y-48699165D01*
X154272473Y-48699993D01*
X154239398Y-48692666D01*
X154210674Y-48682630D01*
X154200371Y-48673711D01*
X154208430Y-48665809D01*
X154221132Y-48661742D01*
X154240961Y-48648338D01*
X154252250Y-48623969D01*
X154254390Y-48594406D01*
X154246771Y-48565420D01*
X154233299Y-48546579D01*
X154202556Y-48524304D01*
X154157818Y-48500682D01*
X154103327Y-48477582D01*
X154043328Y-48456872D01*
X154004630Y-48445898D01*
X153972833Y-48437988D01*
X153945272Y-48432266D01*
X153918185Y-48428473D01*
X153887808Y-48426354D01*
X153850380Y-48425649D01*
X153802138Y-48426103D01*
X153739318Y-48427457D01*
X153736092Y-48427535D01*
X153665780Y-48429644D01*
X153610600Y-48432354D01*
X153567168Y-48435978D01*
X153532101Y-48440831D01*
X153502012Y-48447224D01*
X153490704Y-48450257D01*
X153442306Y-48464530D01*
X153406580Y-48476867D01*
X153378164Y-48489550D01*
X153351697Y-48504862D01*
X153332723Y-48517494D01*
X153300959Y-48541959D01*
X153282787Y-48564277D01*
X153278365Y-48587310D01*
X153287856Y-48613921D01*
X153311417Y-48646974D01*
X153341897Y-48681481D01*
X153398350Y-48731221D01*
X153467720Y-48774644D01*
X153545142Y-48809806D01*
X153625749Y-48834760D01*
X153704676Y-48847559D01*
X153758499Y-48848106D01*
X153782288Y-48844723D01*
X153820984Y-48837097D01*
X153871641Y-48825906D01*
X153931311Y-48811825D01*
X153997047Y-48795530D01*
X154065902Y-48777698D01*
X154069450Y-48776758D01*
X154136557Y-48759233D01*
X154199014Y-48743443D01*
X154254243Y-48729999D01*
X154299665Y-48719512D01*
X154332704Y-48712593D01*
X154350781Y-48709853D01*
X154351878Y-48709835D01*
X154378606Y-48717947D01*
X154402857Y-48737241D01*
X154418548Y-48761904D01*
X154421327Y-48776192D01*
X154412882Y-48801700D01*
X154387300Y-48829378D01*
X154344213Y-48859533D01*
X154283250Y-48892475D01*
X154280754Y-48893699D01*
X154155960Y-48946090D01*
X154032525Y-48980407D01*
X153909325Y-48996924D01*
X153854705Y-48998624D01*
X153835124Y-49000335D01*
X153810278Y-49005924D01*
X153778403Y-49016076D01*
X153737733Y-49031475D01*
X153686503Y-49052806D01*
X153622949Y-49080753D01*
X153545305Y-49116000D01*
X153509224Y-49132612D01*
X153444418Y-49162676D01*
X153394414Y-49186307D01*
X153357125Y-49204675D01*
X153330464Y-49218950D01*
X153312346Y-49230302D01*
X153300685Y-49239901D01*
X153293393Y-49248917D01*
X153289668Y-49255724D01*
X153270401Y-49276996D01*
X153240175Y-49291337D01*
X153205870Y-49296789D01*
X153174368Y-49291390D01*
X153170562Y-49289651D01*
X153137229Y-49265366D01*
X153121168Y-49235638D01*
X153122810Y-49201918D01*
X153136285Y-49174331D01*
X153159262Y-49150629D01*
X153198850Y-49122549D01*
X153253846Y-49090774D01*
X153323048Y-49055989D01*
X153405253Y-49018876D01*
X153424211Y-49010784D01*
X153462502Y-48993862D01*
X153492723Y-48979091D01*
X153511839Y-48968059D01*
X153516814Y-48962353D01*
X153516810Y-48962350D01*
X153505331Y-48955857D01*
X153481512Y-48943960D01*
X153449882Y-48928900D01*
X153439774Y-48924206D01*
X153357671Y-48880933D01*
X153289287Y-48832244D01*
X153229900Y-48774407D01*
X153193539Y-48729679D01*
X153157857Y-48673675D01*
X153138116Y-48620857D01*
X153133015Y-48567649D01*
X153133182Y-48563635D01*
X153141022Y-48521625D01*
X153161446Y-48482132D01*
X153196515Y-48441672D01*
X153215811Y-48423812D01*
X153276007Y-48379517D01*
X153346968Y-48343830D01*
X153429894Y-48316460D01*
X153525987Y-48297115D01*
X153636448Y-48285503D01*
X153762478Y-48281334D01*
X153802159Y-48281476D01*
G37*
G36*
X151290197Y-50848803D02*
G01*
X151312849Y-50869635D01*
X151324104Y-50899492D01*
X151329698Y-50929321D01*
X151789786Y-50929321D01*
X151901555Y-50929377D01*
X151996277Y-50929641D01*
X152075424Y-50930258D01*
X152140470Y-50931373D01*
X152192886Y-50933132D01*
X152234145Y-50935679D01*
X152265720Y-50939159D01*
X152289083Y-50943717D01*
X152305707Y-50949498D01*
X152317064Y-50956648D01*
X152324627Y-50965311D01*
X152329869Y-50975632D01*
X152332542Y-50982765D01*
X152336594Y-51004724D01*
X152327684Y-51022008D01*
X152322709Y-51027278D01*
X152314739Y-51033929D01*
X152304168Y-51038943D01*
X152288268Y-51042648D01*
X152264312Y-51045373D01*
X152229571Y-51047446D01*
X152181317Y-51049197D01*
X152128708Y-51050650D01*
X152061150Y-51052592D01*
X151981967Y-51055185D01*
X151898035Y-51058184D01*
X151816226Y-51061346D01*
X151752752Y-51064011D01*
X151682056Y-51066807D01*
X151606866Y-51069239D01*
X151532957Y-51071157D01*
X151466104Y-51072411D01*
X151412974Y-51072850D01*
X151359381Y-51072982D01*
X151321249Y-51073651D01*
X151295519Y-51075267D01*
X151279132Y-51078242D01*
X151269030Y-51082985D01*
X151262153Y-51089908D01*
X151259585Y-51093430D01*
X151248750Y-51112506D01*
X151245170Y-51124550D01*
X151253508Y-51136262D01*
X151276249Y-51151474D01*
X151309980Y-51168621D01*
X151351291Y-51186138D01*
X151396768Y-51202461D01*
X151443001Y-51216025D01*
X151446661Y-51216952D01*
X151487938Y-51226683D01*
X151538410Y-51237681D01*
X151594626Y-51249291D01*
X151653132Y-51260855D01*
X151710476Y-51271720D01*
X151763206Y-51281229D01*
X151807869Y-51288728D01*
X151841014Y-51293560D01*
X151858216Y-51295088D01*
X151881401Y-51301694D01*
X151901572Y-51317593D01*
X151911674Y-51336906D01*
X151911885Y-51339802D01*
X151905856Y-51353821D01*
X151893365Y-51369168D01*
X151880962Y-51378639D01*
X151864042Y-51384250D01*
X151837935Y-51386905D01*
X151798451Y-51387507D01*
X151719576Y-51384267D01*
X151633324Y-51375465D01*
X151543993Y-51361949D01*
X151455878Y-51344570D01*
X151373277Y-51324178D01*
X151300487Y-51301623D01*
X151241803Y-51277755D01*
X151240515Y-51277130D01*
X151171097Y-51243270D01*
X151141667Y-51273634D01*
X151110781Y-51299449D01*
X151066322Y-51326787D01*
X151007258Y-51356141D01*
X150932560Y-51388005D01*
X150841195Y-51422872D01*
X150796063Y-51439074D01*
X150738958Y-51459587D01*
X150684816Y-51479651D01*
X150637220Y-51497893D01*
X150599757Y-51512935D01*
X150576010Y-51523403D01*
X150575125Y-51523843D01*
X150530125Y-51546447D01*
X150579755Y-51591756D01*
X150607050Y-51619056D01*
X150618407Y-51637727D01*
X150613453Y-51649179D01*
X150591813Y-51654816D01*
X150562706Y-51656084D01*
X150496356Y-51650757D01*
X150443737Y-51634398D01*
X150405562Y-51607239D01*
X150402868Y-51604282D01*
X150382659Y-51577115D01*
X150376255Y-51553294D01*
X150382440Y-51525323D01*
X150387909Y-51511886D01*
X150405072Y-51486345D01*
X150433919Y-51457063D01*
X150469496Y-51428429D01*
X150506844Y-51404831D01*
X150511602Y-51402347D01*
X150529097Y-51394767D01*
X150561064Y-51382185D01*
X150604504Y-51365730D01*
X150656414Y-51346533D01*
X150713793Y-51325725D01*
X150738471Y-51316895D01*
X150824474Y-51285648D01*
X150894488Y-51258770D01*
X150950297Y-51235423D01*
X150993686Y-51214769D01*
X151026437Y-51195971D01*
X151050337Y-51178192D01*
X151064561Y-51163808D01*
X151078901Y-51143434D01*
X151081426Y-51125960D01*
X151077070Y-51109792D01*
X151073740Y-51100278D01*
X151069753Y-51092971D01*
X151062967Y-51087754D01*
X151051241Y-51084510D01*
X151032433Y-51083122D01*
X151004401Y-51083472D01*
X150965005Y-51085444D01*
X150912102Y-51088921D01*
X150843552Y-51093786D01*
X150817797Y-51095628D01*
X150760322Y-51099394D01*
X150708039Y-51102184D01*
X150664194Y-51103875D01*
X150632029Y-51104345D01*
X150614789Y-51103471D01*
X150614079Y-51103322D01*
X150579914Y-51087863D01*
X150561174Y-51063016D01*
X150558842Y-51030658D01*
X150565102Y-51009881D01*
X150571104Y-50997993D01*
X150579385Y-50988114D01*
X150591761Y-50979919D01*
X150610048Y-50973081D01*
X150636059Y-50967274D01*
X150671612Y-50962172D01*
X150718521Y-50957448D01*
X150778601Y-50952776D01*
X150853668Y-50947830D01*
X150938927Y-50942673D01*
X151100311Y-50933125D01*
X151135147Y-50901652D01*
X151179396Y-50868060D01*
X151221380Y-50848039D01*
X151259011Y-50841612D01*
X151290197Y-50848803D01*
G37*
G36*
X150272093Y-46476939D02*
G01*
X150312816Y-46479566D01*
X150363999Y-46483616D01*
X150422993Y-46488902D01*
X150468763Y-46493363D01*
X150544711Y-46500646D01*
X150626784Y-46507897D01*
X150709200Y-46514646D01*
X150786174Y-46520424D01*
X150851923Y-46524762D01*
X150865513Y-46525543D01*
X150902169Y-46527007D01*
X150953609Y-46528233D01*
X151017862Y-46529230D01*
X151092957Y-46530003D01*
X151176923Y-46530559D01*
X151267788Y-46530904D01*
X151363582Y-46531046D01*
X151462334Y-46530990D01*
X151562071Y-46530743D01*
X151660824Y-46530312D01*
X151756621Y-46529703D01*
X151847490Y-46528923D01*
X151931461Y-46527978D01*
X152006563Y-46526875D01*
X152070824Y-46525620D01*
X152122273Y-46524220D01*
X152158940Y-46522682D01*
X152177615Y-46521192D01*
X152213484Y-46522746D01*
X152239211Y-46536284D01*
X152252374Y-46558953D01*
X152250550Y-46587904D01*
X152245085Y-46600596D01*
X152232351Y-46613851D01*
X152208674Y-46624301D01*
X152172052Y-46632423D01*
X152120482Y-46638697D01*
X152069304Y-46642570D01*
X152024904Y-46645447D01*
X151983996Y-46648269D01*
X151952289Y-46650634D01*
X151939665Y-46651703D01*
X151921762Y-46652778D01*
X151888215Y-46654223D01*
X151841895Y-46655935D01*
X151785671Y-46657813D01*
X151722415Y-46659757D01*
X151664529Y-46661404D01*
X151421803Y-46668061D01*
X151416391Y-46710576D01*
X151412071Y-46736289D01*
X151404329Y-46774730D01*
X151394268Y-46820669D01*
X151383169Y-46868138D01*
X151370482Y-46923851D01*
X151362908Y-46966105D01*
X151359888Y-46999067D01*
X151360865Y-47026910D01*
X151361343Y-47031079D01*
X151365861Y-47060144D01*
X151370826Y-47081757D01*
X151373383Y-47088232D01*
X151384888Y-47091163D01*
X151414577Y-47092877D01*
X151462154Y-47093373D01*
X151527322Y-47092647D01*
X151609787Y-47090697D01*
X151624827Y-47090263D01*
X151709077Y-47087901D01*
X151792078Y-47085795D01*
X151871374Y-47083990D01*
X151944512Y-47082533D01*
X152009036Y-47081466D01*
X152062491Y-47080836D01*
X152102424Y-47080686D01*
X152126378Y-47081063D01*
X152126853Y-47081084D01*
X152146129Y-47089634D01*
X152155880Y-47108887D01*
X152153762Y-47132477D01*
X152149136Y-47141594D01*
X152130573Y-47156841D01*
X152095615Y-47170632D01*
X152043927Y-47183020D01*
X151975170Y-47194056D01*
X151889010Y-47203793D01*
X151785109Y-47212281D01*
X151663130Y-47219574D01*
X151635054Y-47220965D01*
X151561012Y-47224788D01*
X151503669Y-47228426D01*
X151461206Y-47232064D01*
X151431807Y-47235889D01*
X151413655Y-47240088D01*
X151405210Y-47244553D01*
X151385586Y-47256254D01*
X151360993Y-47254134D01*
X151339624Y-47245051D01*
X151329510Y-47241806D01*
X151311934Y-47239012D01*
X151285433Y-47236612D01*
X151248549Y-47234545D01*
X151199819Y-47232755D01*
X151137784Y-47231183D01*
X151060982Y-47229770D01*
X150967953Y-47228457D01*
X150907182Y-47227732D01*
X150802385Y-47226465D01*
X150714521Y-47225118D01*
X150642001Y-47223506D01*
X150583239Y-47221444D01*
X150536646Y-47218748D01*
X150500637Y-47215231D01*
X150473623Y-47210710D01*
X150454016Y-47204999D01*
X150440231Y-47197913D01*
X150430678Y-47189268D01*
X150423772Y-47178878D01*
X150419881Y-47170951D01*
X150413844Y-47138315D01*
X150423040Y-47107370D01*
X150442368Y-47086787D01*
X150454687Y-47080854D01*
X150471677Y-47077655D01*
X150497054Y-47077034D01*
X150534534Y-47078833D01*
X150569545Y-47081416D01*
X150606713Y-47083798D01*
X150658882Y-47086337D01*
X150722534Y-47088905D01*
X150794153Y-47091373D01*
X150870222Y-47093611D01*
X150947223Y-47095489D01*
X150958322Y-47095725D01*
X151240961Y-47101619D01*
X151241522Y-47015324D01*
X151242865Y-46971117D01*
X151247026Y-46932200D01*
X151255159Y-46891864D01*
X151268420Y-46843401D01*
X151274712Y-46822540D01*
X151288073Y-46778504D01*
X151299855Y-46738885D01*
X151308725Y-46708217D01*
X151313186Y-46691722D01*
X151319032Y-46667393D01*
X151227679Y-46671916D01*
X151176996Y-46673070D01*
X151110749Y-46672477D01*
X151031798Y-46670282D01*
X150943002Y-46666634D01*
X150847220Y-46661677D01*
X150747312Y-46655559D01*
X150646137Y-46648427D01*
X150546553Y-46640426D01*
X150460396Y-46632580D01*
X150389092Y-46625553D01*
X150333887Y-46619732D01*
X150292431Y-46614715D01*
X150262372Y-46610099D01*
X150241361Y-46605482D01*
X150227046Y-46600460D01*
X150217077Y-46594632D01*
X150211519Y-46589944D01*
X150194722Y-46564355D01*
X150189696Y-46534562D01*
X150196873Y-46507498D01*
X150205742Y-46496656D01*
X150223358Y-46482840D01*
X150232635Y-46476703D01*
X150244483Y-46475922D01*
X150272093Y-46476939D01*
G37*
G36*
X154952583Y-46598521D02*
G01*
X154996318Y-46606737D01*
X155026032Y-46619406D01*
X155035409Y-46626892D01*
X155047474Y-46649167D01*
X155046421Y-46673291D01*
X155033443Y-46692269D01*
X155023372Y-46697483D01*
X155014526Y-46701423D01*
X155011676Y-46708408D01*
X155015532Y-46722238D01*
X155026801Y-46746716D01*
X155035985Y-46765235D01*
X155065634Y-46828798D01*
X155088235Y-46888321D01*
X155104624Y-46947956D01*
X155115641Y-47011851D01*
X155122123Y-47084158D01*
X155124908Y-47169025D01*
X155125174Y-47206827D01*
X155126546Y-47282179D01*
X155130211Y-47352122D01*
X155135846Y-47411557D01*
X155139739Y-47438326D01*
X155145423Y-47480182D01*
X155150524Y-47533875D01*
X155154509Y-47592724D01*
X155156847Y-47650044D01*
X155156946Y-47654320D01*
X155158899Y-47711084D01*
X155161932Y-47755220D01*
X155165857Y-47784731D01*
X155170231Y-47797386D01*
X155180082Y-47818855D01*
X155179544Y-47847681D01*
X155169560Y-47876574D01*
X155157913Y-47892483D01*
X155128084Y-47911043D01*
X155094804Y-47913812D01*
X155061693Y-47902118D01*
X155032369Y-47877288D01*
X155010452Y-47840647D01*
X155009430Y-47838045D01*
X155000113Y-47809530D01*
X154998735Y-47787963D01*
X155004853Y-47763781D01*
X155005854Y-47760867D01*
X155012953Y-47726620D01*
X155016349Y-47677882D01*
X155016111Y-47618293D01*
X155012312Y-47551494D01*
X155005021Y-47481125D01*
X154999697Y-47443178D01*
X154989768Y-47358174D01*
X154987306Y-47274944D01*
X154988602Y-47231342D01*
X154989964Y-47136757D01*
X154985363Y-47050088D01*
X154975106Y-46974534D01*
X154959498Y-46913295D01*
X154957688Y-46908171D01*
X154944667Y-46872291D01*
X154928722Y-46828175D01*
X154913177Y-46785019D01*
X154912327Y-46782654D01*
X154899973Y-46749007D01*
X154889831Y-46722736D01*
X154883596Y-46708185D01*
X154882695Y-46706705D01*
X154872883Y-46706730D01*
X154847188Y-46708713D01*
X154808120Y-46712406D01*
X154758183Y-46717563D01*
X154699886Y-46723936D01*
X154647870Y-46729865D01*
X154561366Y-46739407D01*
X154471077Y-46748485D01*
X154380576Y-46756805D01*
X154293437Y-46764071D01*
X154213233Y-46769989D01*
X154143538Y-46774264D01*
X154087924Y-46776601D01*
X154078710Y-46776812D01*
X154058896Y-46777779D01*
X154055854Y-46780451D01*
X154066595Y-46785589D01*
X154088873Y-46799819D01*
X154103464Y-46823130D01*
X154111490Y-46858473D01*
X154114071Y-46908796D01*
X154114076Y-46910509D01*
X154117565Y-46967725D01*
X154127319Y-47036161D01*
X154139247Y-47095708D01*
X154156816Y-47175200D01*
X154169846Y-47238978D01*
X154178372Y-47289274D01*
X154182427Y-47328321D01*
X154182044Y-47358351D01*
X154177259Y-47381598D01*
X154168104Y-47400292D01*
X154154614Y-47416667D01*
X154144251Y-47426488D01*
X154111357Y-47447649D01*
X154080886Y-47451708D01*
X154055058Y-47438965D01*
X154036968Y-47411875D01*
X154029994Y-47378825D01*
X154033807Y-47360571D01*
X154037402Y-47338352D01*
X154035933Y-47302928D01*
X154029251Y-47253192D01*
X154017207Y-47188038D01*
X153999652Y-47106361D01*
X153999579Y-47106038D01*
X153989642Y-47055410D01*
X153981950Y-47003596D01*
X153977523Y-46958110D01*
X153976851Y-46938897D01*
X153975296Y-46901339D01*
X153971068Y-46873755D01*
X153965773Y-46861466D01*
X153959977Y-46849525D01*
X153968308Y-46838779D01*
X153984181Y-46823126D01*
X154000220Y-46804990D01*
X154018520Y-46782810D01*
X153921291Y-46788683D01*
X153882417Y-46790878D01*
X153829455Y-46793651D01*
X153766818Y-46796782D01*
X153698922Y-46800052D01*
X153630180Y-46803240D01*
X153611083Y-46804102D01*
X153504595Y-46809198D01*
X153415260Y-46814224D01*
X153341714Y-46819323D01*
X153282592Y-46824638D01*
X153236528Y-46830311D01*
X153202158Y-46836486D01*
X153178117Y-46843306D01*
X153163039Y-46850913D01*
X153162900Y-46851015D01*
X153132785Y-46865798D01*
X153090555Y-46877083D01*
X153042455Y-46883780D01*
X152994734Y-46884798D01*
X152977422Y-46883403D01*
X152928617Y-46872252D01*
X152889837Y-46852704D01*
X152862741Y-46827000D01*
X152848987Y-46797379D01*
X152850235Y-46766084D01*
X152867973Y-46735542D01*
X152875321Y-46728125D01*
X152884067Y-46722195D01*
X152896625Y-46717328D01*
X152915409Y-46713101D01*
X152942830Y-46709089D01*
X152981303Y-46704869D01*
X153033241Y-46700016D01*
X153101055Y-46694107D01*
X153106417Y-46693646D01*
X153249326Y-46682445D01*
X153404323Y-46672383D01*
X153573229Y-46663357D01*
X153757867Y-46655265D01*
X153861101Y-46651378D01*
X153956436Y-46647715D01*
X154053426Y-46643518D01*
X154149318Y-46638940D01*
X154241354Y-46634133D01*
X154326778Y-46629250D01*
X154402833Y-46624444D01*
X154466765Y-46619867D01*
X154515816Y-46615672D01*
X154527817Y-46614447D01*
X154549287Y-46612512D01*
X154585318Y-46609685D01*
X154631991Y-46606256D01*
X154685385Y-46602513D01*
X154727153Y-46599698D01*
X154819011Y-46595090D01*
X154893817Y-46594668D01*
X154952583Y-46598521D01*
G37*
G36*
X153232173Y-51729926D02*
G01*
X153270521Y-51732254D01*
X153308615Y-51734763D01*
X153360547Y-51737818D01*
X153421653Y-51741162D01*
X153487269Y-51744542D01*
X153552730Y-51747702D01*
X153555524Y-51747831D01*
X153656453Y-51753320D01*
X153739666Y-51759699D01*
X153805952Y-51767117D01*
X153856098Y-51775724D01*
X153890895Y-51785669D01*
X153911129Y-51797099D01*
X153917591Y-51810165D01*
X153916461Y-51815978D01*
X153921550Y-51822093D01*
X153941181Y-51830481D01*
X153976320Y-51841447D01*
X154027929Y-51855300D01*
X154081123Y-51868523D01*
X154195657Y-51897601D01*
X154293300Y-51925287D01*
X154375573Y-51952158D01*
X154444001Y-51978793D01*
X154500107Y-52005771D01*
X154545412Y-52033670D01*
X154573160Y-52055496D01*
X154606381Y-52093888D01*
X154621845Y-52133711D01*
X154619573Y-52173132D01*
X154599589Y-52210313D01*
X154570929Y-52237164D01*
X154530981Y-52261343D01*
X154477290Y-52286297D01*
X154414462Y-52310294D01*
X154347103Y-52331603D01*
X154279820Y-52348492D01*
X154268538Y-52350836D01*
X154236836Y-52357872D01*
X154211625Y-52364676D01*
X154200536Y-52368783D01*
X154201226Y-52376500D01*
X154217740Y-52392014D01*
X154250349Y-52415558D01*
X154274615Y-52431606D01*
X154341703Y-52478815D01*
X154408957Y-52533047D01*
X154474235Y-52591991D01*
X154535394Y-52653335D01*
X154590292Y-52714769D01*
X154636787Y-52773979D01*
X154672737Y-52828655D01*
X154696000Y-52876485D01*
X154700838Y-52891515D01*
X154706907Y-52935075D01*
X154698161Y-52969688D01*
X154673611Y-52998726D01*
X154668143Y-53003085D01*
X154654562Y-53012859D01*
X154640437Y-53021191D01*
X154624319Y-53028150D01*
X154604763Y-53033806D01*
X154580323Y-53038229D01*
X154549552Y-53041488D01*
X154511004Y-53043654D01*
X154463232Y-53044795D01*
X154404790Y-53044981D01*
X154334232Y-53044282D01*
X154250110Y-53042768D01*
X154150980Y-53040508D01*
X154035393Y-53037572D01*
X153981481Y-53036151D01*
X153846868Y-53032534D01*
X153729754Y-53029282D01*
X153629121Y-53026360D01*
X153543951Y-53023729D01*
X153473227Y-53021356D01*
X153415931Y-53019202D01*
X153371047Y-53017232D01*
X153337557Y-53015410D01*
X153314444Y-53013700D01*
X153300689Y-53012064D01*
X153299521Y-53011852D01*
X153268636Y-52997860D01*
X153248868Y-52972910D01*
X153241425Y-52941688D01*
X153247511Y-52908880D01*
X153265957Y-52881467D01*
X153290302Y-52857122D01*
X153631261Y-52867968D01*
X153724873Y-52870980D01*
X153826522Y-52874311D01*
X153931287Y-52877795D01*
X154034250Y-52881267D01*
X154130490Y-52884562D01*
X154215088Y-52887514D01*
X154244308Y-52888553D01*
X154327610Y-52891228D01*
X154397852Y-52892847D01*
X154453880Y-52893404D01*
X154494538Y-52892897D01*
X154518669Y-52891321D01*
X154525102Y-52889585D01*
X154523229Y-52879177D01*
X154510653Y-52858161D01*
X154489574Y-52829216D01*
X154462192Y-52795018D01*
X154430707Y-52758246D01*
X154397319Y-52721578D01*
X154364227Y-52687690D01*
X154341891Y-52666582D01*
X154306079Y-52636979D01*
X154258049Y-52601244D01*
X154201867Y-52562069D01*
X154141596Y-52522146D01*
X154081300Y-52484168D01*
X154025045Y-52450829D01*
X153977415Y-52425084D01*
X153946007Y-52409628D01*
X153921357Y-52399268D01*
X153898240Y-52392917D01*
X153871427Y-52389490D01*
X153835694Y-52387899D01*
X153795155Y-52387189D01*
X153690832Y-52382471D01*
X153588455Y-52371715D01*
X153491712Y-52355588D01*
X153404292Y-52334755D01*
X153329882Y-52309883D01*
X153303174Y-52298287D01*
X153259448Y-52270706D01*
X153231490Y-52238497D01*
X153219326Y-52204228D01*
X153222982Y-52170466D01*
X153242483Y-52139777D01*
X153277857Y-52114730D01*
X153301214Y-52105220D01*
X153350906Y-52095752D01*
X153414221Y-52094961D01*
X153488686Y-52102360D01*
X153571832Y-52117462D01*
X153661186Y-52139780D01*
X153754278Y-52168826D01*
X153848636Y-52204115D01*
X153888881Y-52221043D01*
X153908074Y-52228959D01*
X153925277Y-52234142D01*
X153944401Y-52236805D01*
X153969359Y-52237165D01*
X154004059Y-52235437D01*
X154052414Y-52231837D01*
X154065650Y-52230785D01*
X154128716Y-52224175D01*
X154195423Y-52214464D01*
X154261797Y-52202477D01*
X154323864Y-52189043D01*
X154377648Y-52174989D01*
X154419175Y-52161142D01*
X154435611Y-52153778D01*
X154462240Y-52139825D01*
X154430209Y-52120297D01*
X154394353Y-52102404D01*
X154342451Y-52082163D01*
X154276736Y-52060195D01*
X154199444Y-52037117D01*
X154112807Y-52013550D01*
X154019061Y-51990111D01*
X153920440Y-51967420D01*
X153819178Y-51946096D01*
X153759242Y-51934433D01*
X153675541Y-51918737D01*
X153607018Y-51906147D01*
X153550667Y-51896249D01*
X153503483Y-51888629D01*
X153462462Y-51882872D01*
X153424599Y-51878564D01*
X153386889Y-51875292D01*
X153346327Y-51872639D01*
X153299909Y-51870193D01*
X153289734Y-51869696D01*
X153224661Y-51865927D01*
X153175859Y-51861261D01*
X153141079Y-51854894D01*
X153118074Y-51846026D01*
X153104594Y-51833852D01*
X153098391Y-51817572D01*
X153097157Y-51800976D01*
X153103148Y-51771425D01*
X153114682Y-51754355D01*
X153133359Y-51741162D01*
X153156703Y-51733042D01*
X153188410Y-51729471D01*
X153232173Y-51729926D01*
G37*
G36*
X151106745Y-45383504D02*
G01*
X151132393Y-45396976D01*
X151151648Y-45413799D01*
X151156628Y-45422485D01*
X151157953Y-45440794D01*
X151155548Y-45469465D01*
X151152278Y-45489721D01*
X151145099Y-45548772D01*
X151143038Y-45623806D01*
X151146071Y-45713014D01*
X151154175Y-45814587D01*
X151156771Y-45839661D01*
X151162209Y-45896498D01*
X151166699Y-45955501D01*
X151169801Y-46010035D01*
X151171080Y-46053467D01*
X151171090Y-46056834D01*
X151171090Y-46141063D01*
X151205815Y-46108161D01*
X151234377Y-46082645D01*
X151274293Y-46049079D01*
X151321945Y-46010310D01*
X151373713Y-45969189D01*
X151425979Y-45928562D01*
X151475123Y-45891280D01*
X151517527Y-45860190D01*
X151545318Y-45840924D01*
X151581768Y-45818271D01*
X151628449Y-45791382D01*
X151678842Y-45763922D01*
X151718377Y-45743546D01*
X151767599Y-45717319D01*
X151818883Y-45687221D01*
X151865446Y-45657369D01*
X151894480Y-45636634D01*
X151952965Y-45595588D01*
X152003700Y-45567792D01*
X152045807Y-45553105D01*
X152078404Y-45551388D01*
X152100613Y-45562503D01*
X152111554Y-45586309D01*
X152110348Y-45622668D01*
X152097137Y-45668743D01*
X152078102Y-45722187D01*
X152063487Y-45770636D01*
X152052521Y-45818439D01*
X152044433Y-45869940D01*
X152038452Y-45929487D01*
X152033809Y-46001427D01*
X152032115Y-46035445D01*
X152029150Y-46093252D01*
X152025948Y-46146309D01*
X152022753Y-46191214D01*
X152019806Y-46224570D01*
X152017350Y-46242976D01*
X152017254Y-46243403D01*
X152010850Y-46270793D01*
X152051384Y-46238774D01*
X152078780Y-46216187D01*
X152112606Y-46186977D01*
X152145825Y-46157229D01*
X152147746Y-46155467D01*
X152180498Y-46126134D01*
X152220952Y-46090990D01*
X152262387Y-46055842D01*
X152279748Y-46041417D01*
X152373034Y-45957054D01*
X152448052Y-45872766D01*
X152497636Y-45800818D01*
X152529982Y-45755398D01*
X152561928Y-45728096D01*
X152593204Y-45719001D01*
X152623543Y-45728205D01*
X152648407Y-45750501D01*
X152661497Y-45767487D01*
X152668471Y-45783095D01*
X152670558Y-45803325D01*
X152668984Y-45834175D01*
X152667991Y-45846277D01*
X152663580Y-45876624D01*
X152654672Y-45921191D01*
X152642155Y-45976475D01*
X152626920Y-46038977D01*
X152609854Y-46105197D01*
X152591848Y-46171633D01*
X152573790Y-46234786D01*
X152556570Y-46291155D01*
X152549375Y-46313244D01*
X152538529Y-46345844D01*
X152529685Y-46372622D01*
X152524905Y-46387323D01*
X152528916Y-46387242D01*
X152543613Y-46375641D01*
X152567003Y-46354500D01*
X152597093Y-46325798D01*
X152631889Y-46291514D01*
X152669397Y-46253627D01*
X152707624Y-46214117D01*
X152744578Y-46174962D01*
X152778263Y-46138142D01*
X152795388Y-46118785D01*
X152832347Y-46074575D01*
X152871486Y-46024849D01*
X152907363Y-45976651D01*
X152927924Y-45947147D01*
X152955214Y-45908745D01*
X152980396Y-45877749D01*
X153000613Y-45857523D01*
X153008527Y-45852233D01*
X153048732Y-45841471D01*
X153083037Y-45848134D01*
X153110715Y-45871989D01*
X153120897Y-45888428D01*
X153128628Y-45907372D01*
X153131142Y-45928046D01*
X153128762Y-45956826D01*
X153125483Y-45978438D01*
X153120197Y-46011222D01*
X153112922Y-46056989D01*
X153104327Y-46111476D01*
X153095076Y-46170420D01*
X153085838Y-46229559D01*
X153077279Y-46284630D01*
X153070067Y-46331370D01*
X153064867Y-46365518D01*
X153063687Y-46373433D01*
X153058214Y-46410473D01*
X153098404Y-46373433D01*
X153119059Y-46354113D01*
X153149662Y-46325123D01*
X153186849Y-46289668D01*
X153227255Y-46250952D01*
X153249829Y-46229237D01*
X153308726Y-46174649D01*
X153359995Y-46131556D01*
X153402099Y-46101212D01*
X153418086Y-46091818D01*
X153447784Y-46073987D01*
X153486627Y-46047735D01*
X153529604Y-46016581D01*
X153571700Y-45984043D01*
X153572151Y-45983681D01*
X153618843Y-45947420D01*
X153654627Y-45923055D01*
X153681985Y-45909689D01*
X153703397Y-45906423D01*
X153721345Y-45912358D01*
X153736092Y-45924326D01*
X153749296Y-45943807D01*
X153753313Y-45968748D01*
X153747857Y-46002005D01*
X153732646Y-46046434D01*
X153721185Y-46073980D01*
X153700590Y-46127945D01*
X153685837Y-46183364D01*
X153674758Y-46248486D01*
X153674140Y-46253054D01*
X153668020Y-46298734D01*
X153662272Y-46341460D01*
X153657661Y-46375555D01*
X153655491Y-46391460D01*
X153650460Y-46428007D01*
X153700065Y-46386830D01*
X153742440Y-46350147D01*
X153793283Y-46303742D01*
X153848493Y-46251495D01*
X153903971Y-46197288D01*
X153955619Y-46145003D01*
X153957272Y-46143292D01*
X154032013Y-46076048D01*
X154119668Y-46014670D01*
X154189393Y-45975477D01*
X154215809Y-45960921D01*
X154235001Y-45948190D01*
X154240955Y-45942529D01*
X154252233Y-45933672D01*
X154275151Y-45920917D01*
X154297955Y-45910105D01*
X154331379Y-45893397D01*
X154362211Y-45874820D01*
X154376524Y-45864299D01*
X154408730Y-45845773D01*
X154439633Y-45842567D01*
X154465520Y-45853412D01*
X154482680Y-45877044D01*
X154487583Y-45902206D01*
X154486809Y-45923447D01*
X154483975Y-45957016D01*
X154479620Y-45996902D01*
X154477701Y-46012296D01*
X154470903Y-46055892D01*
X154461756Y-46092551D01*
X154447965Y-46129266D01*
X154427240Y-46173030D01*
X154420959Y-46185398D01*
X154402482Y-46224977D01*
X154385076Y-46268457D01*
X154369888Y-46312106D01*
X154358062Y-46352191D01*
X154350743Y-46384978D01*
X154349076Y-46406737D01*
X154351182Y-46412863D01*
X154360676Y-46410908D01*
X154378550Y-46400599D01*
X154382273Y-46398017D01*
X154406213Y-46383998D01*
X154438969Y-46368452D01*
X154461340Y-46359368D01*
X154490183Y-46347445D01*
X154511494Y-46336540D01*
X154519401Y-46330398D01*
X154539120Y-46313689D01*
X154574549Y-46299497D01*
X154622964Y-46288537D01*
X154681644Y-46281523D01*
X154712309Y-46279781D01*
X154799520Y-46275867D01*
X154871155Y-46271138D01*
X154930151Y-46265194D01*
X154979449Y-46257636D01*
X155021985Y-46248064D01*
X155060699Y-46236078D01*
X155076398Y-46230277D01*
X155116647Y-46216242D01*
X155148949Y-46207887D01*
X155169220Y-46206232D01*
X155171055Y-46206650D01*
X155195074Y-46221371D01*
X155219857Y-46247337D01*
X155240764Y-46278289D01*
X155253157Y-46307968D01*
X155254721Y-46319540D01*
X155255600Y-46340307D01*
X155257746Y-46350158D01*
X155258047Y-46350283D01*
X155267374Y-46346665D01*
X155289437Y-46337001D01*
X155320187Y-46323081D01*
X155334266Y-46316605D01*
X155388024Y-46293884D01*
X155446866Y-46272601D01*
X155507753Y-46253488D01*
X155567649Y-46237275D01*
X155623517Y-46224694D01*
X155672320Y-46216477D01*
X155711021Y-46213354D01*
X155736582Y-46216057D01*
X155741797Y-46218471D01*
X155760396Y-46240199D01*
X155767632Y-46268331D01*
X155764336Y-46287172D01*
X155758651Y-46299570D01*
X155751412Y-46311286D01*
X155740530Y-46324395D01*
X155723917Y-46340976D01*
X155699484Y-46363103D01*
X155665144Y-46392853D01*
X155618809Y-46432302D01*
X155615859Y-46434804D01*
X155566413Y-46478431D01*
X155517080Y-46524978D01*
X155470591Y-46571603D01*
X155429676Y-46615460D01*
X155397065Y-46653708D01*
X155375489Y-46683501D01*
X155372964Y-46687787D01*
X155370672Y-46697408D01*
X155379039Y-46701721D01*
X155400253Y-46700854D01*
X155436503Y-46694935D01*
X155450231Y-46692273D01*
X155487719Y-46687097D01*
X155533563Y-46684062D01*
X155582475Y-46683146D01*
X155629164Y-46684327D01*
X155668342Y-46687584D01*
X155694720Y-46692895D01*
X155695786Y-46693281D01*
X155725042Y-46710010D01*
X155756715Y-46736604D01*
X155784039Y-46766844D01*
X155796352Y-46785682D01*
X155803774Y-46807031D01*
X155799995Y-46828766D01*
X155796879Y-46836612D01*
X155787276Y-46851793D01*
X155769817Y-46867311D01*
X155741507Y-46885329D01*
X155699349Y-46908008D01*
X155694463Y-46910509D01*
X155643935Y-46938250D01*
X155600348Y-46967283D01*
X155557082Y-47002389D01*
X155519523Y-47036849D01*
X155488191Y-47067645D01*
X155463272Y-47094118D01*
X155447093Y-47113646D01*
X155441979Y-47123605D01*
X155442211Y-47124022D01*
X155453289Y-47128537D01*
X155479039Y-47136098D01*
X155516040Y-47145786D01*
X155560874Y-47156679D01*
X155579514Y-47161003D01*
X155641467Y-47176002D01*
X155687647Y-47189839D01*
X155720560Y-47204306D01*
X155742715Y-47221199D01*
X155756620Y-47242310D01*
X155764784Y-47269435D01*
X155768838Y-47296434D01*
X155771726Y-47328495D01*
X155770238Y-47348731D01*
X155763116Y-47363574D01*
X155753494Y-47374852D01*
X155734225Y-47390909D01*
X155704680Y-47410686D01*
X155671482Y-47429777D01*
X155614163Y-47463213D01*
X155560287Y-47500590D01*
X155513866Y-47538769D01*
X155478910Y-47574616D01*
X155468327Y-47588644D01*
X155451223Y-47619349D01*
X155438934Y-47651344D01*
X155432882Y-47679479D01*
X155434492Y-47698606D01*
X155436959Y-47702074D01*
X155448035Y-47707842D01*
X155472852Y-47718805D01*
X155507887Y-47733461D01*
X155549616Y-47750305D01*
X155555534Y-47752651D01*
X155606181Y-47774209D01*
X155654838Y-47797633D01*
X155695902Y-47820098D01*
X155718925Y-47835041D01*
X155755834Y-47861151D01*
X155796485Y-47888420D01*
X155822883Y-47905224D01*
X155860309Y-47931880D01*
X155881052Y-47957189D01*
X155886387Y-47984330D01*
X155877589Y-48016484D01*
X155872139Y-48028070D01*
X155849045Y-48059158D01*
X155808439Y-48095719D01*
X155750471Y-48137641D01*
X155675287Y-48184814D01*
X155619996Y-48216704D01*
X155537065Y-48272706D01*
X155476987Y-48326630D01*
X155447173Y-48358882D01*
X155415816Y-48396222D01*
X155385316Y-48435365D01*
X155358076Y-48473022D01*
X155336494Y-48505905D01*
X155322973Y-48530728D01*
X155319565Y-48542201D01*
X155327735Y-48550289D01*
X155349234Y-48560941D01*
X155379501Y-48571919D01*
X155381168Y-48572438D01*
X155429887Y-48589672D01*
X155474044Y-48610731D01*
X155517246Y-48638022D01*
X155563098Y-48673951D01*
X155615206Y-48720925D01*
X155641594Y-48746248D01*
X155685395Y-48789305D01*
X155717278Y-48822115D01*
X155738909Y-48847018D01*
X155751954Y-48866355D01*
X155758079Y-48882465D01*
X155758950Y-48897688D01*
X155757369Y-48908851D01*
X155747988Y-48931161D01*
X155727619Y-48952084D01*
X155694530Y-48972649D01*
X155646992Y-48993887D01*
X155583275Y-49016829D01*
X155567258Y-49022095D01*
X155496984Y-49045517D01*
X155440974Y-49065810D01*
X155395577Y-49084543D01*
X155357142Y-49103285D01*
X155322018Y-49123604D01*
X155303990Y-49135221D01*
X155275026Y-49156468D01*
X155255703Y-49174699D01*
X155247944Y-49187646D01*
X155253672Y-49193045D01*
X155254881Y-49193083D01*
X155268156Y-49201371D01*
X155283805Y-49223452D01*
X155299708Y-49255154D01*
X155313743Y-49292305D01*
X155323110Y-49327352D01*
X155331406Y-49361630D01*
X155341902Y-49387034D01*
X155357790Y-49406577D01*
X155382264Y-49423267D01*
X155418515Y-49440116D01*
X155460001Y-49456440D01*
X155544196Y-49494007D01*
X155611888Y-49536635D01*
X155664655Y-49585394D01*
X155681674Y-49606498D01*
X155703239Y-49637919D01*
X155714820Y-49662216D01*
X155719034Y-49685834D01*
X155719208Y-49698889D01*
X155716664Y-49728141D01*
X155711309Y-49751676D01*
X155709314Y-49756340D01*
X155699230Y-49766196D01*
X155675962Y-49784485D01*
X155641837Y-49809521D01*
X155599182Y-49839616D01*
X155550322Y-49873084D01*
X155523516Y-49891073D01*
X155454259Y-49938021D01*
X155400027Y-49976616D01*
X155359753Y-50007671D01*
X155332372Y-50032000D01*
X155318993Y-50047223D01*
X155304710Y-50068355D01*
X155299680Y-50082627D01*
X155305955Y-50091838D01*
X155325589Y-50097786D01*
X155360631Y-50102270D01*
X155384361Y-50104505D01*
X155428467Y-50109618D01*
X155481097Y-50117476D01*
X155538549Y-50127333D01*
X155597126Y-50138448D01*
X155653127Y-50150078D01*
X155702853Y-50161479D01*
X155742606Y-50171909D01*
X155768684Y-50180625D01*
X155772749Y-50182508D01*
X155804822Y-50208833D01*
X155818349Y-50233075D01*
X155825139Y-50254506D01*
X155825105Y-50272019D01*
X155817318Y-50293405D01*
X155809138Y-50310145D01*
X155799835Y-50326835D01*
X155788723Y-50341554D01*
X155773206Y-50356359D01*
X155750688Y-50373307D01*
X155718572Y-50394456D01*
X155674262Y-50421864D01*
X155648269Y-50437624D01*
X155590686Y-50473161D01*
X155545076Y-50503404D01*
X155507032Y-50531701D01*
X155472148Y-50561400D01*
X155436017Y-50595850D01*
X155423348Y-50608551D01*
X155391778Y-50640855D01*
X155365831Y-50668130D01*
X155347829Y-50687879D01*
X155340097Y-50697604D01*
X155340008Y-50698153D01*
X155349630Y-50700727D01*
X155373795Y-50705779D01*
X155408812Y-50712569D01*
X155449180Y-50720031D01*
X155537906Y-50737073D01*
X155610015Y-50753350D01*
X155667349Y-50769592D01*
X155711751Y-50786529D01*
X155745063Y-50804891D01*
X155769127Y-50825407D01*
X155785785Y-50848809D01*
X155788710Y-50854566D01*
X155798109Y-50883627D01*
X155796773Y-50910987D01*
X155783635Y-50937571D01*
X155757629Y-50964301D01*
X155717689Y-50992099D01*
X155662748Y-51021890D01*
X155591739Y-51054596D01*
X155525647Y-51082265D01*
X155472041Y-51106080D01*
X155417410Y-51133845D01*
X155369220Y-51161648D01*
X155350122Y-51174169D01*
X155315148Y-51199151D01*
X155296101Y-51216069D01*
X155293472Y-51227091D01*
X155307753Y-51234388D01*
X155339435Y-51240127D01*
X155365841Y-51243579D01*
X155421040Y-51251476D01*
X155475911Y-51261027D01*
X155526238Y-51271348D01*
X155567804Y-51281553D01*
X155596396Y-51290757D01*
X155601594Y-51293080D01*
X155633420Y-51311461D01*
X155667816Y-51335137D01*
X155700794Y-51360876D01*
X155728369Y-51385448D01*
X155746555Y-51405623D01*
X155751353Y-51414453D01*
X155752946Y-51440469D01*
X155749023Y-51460459D01*
X155737629Y-51475579D01*
X155713084Y-51491651D01*
X155674220Y-51509177D01*
X155619868Y-51528658D01*
X155548858Y-51550597D01*
X155518630Y-51559296D01*
X155468877Y-51574362D01*
X155417155Y-51591702D01*
X155366229Y-51610189D01*
X155318864Y-51628697D01*
X155277826Y-51646098D01*
X155245879Y-51661265D01*
X155225789Y-51673071D01*
X155220320Y-51680390D01*
X155220612Y-51680762D01*
X155232797Y-51685589D01*
X155260947Y-51692889D01*
X155302741Y-51702183D01*
X155355860Y-51712990D01*
X155417986Y-51724831D01*
X155486799Y-51737227D01*
X155527890Y-51744316D01*
X155597714Y-51756961D01*
X155651434Y-51768792D01*
X155691386Y-51780726D01*
X155719904Y-51793677D01*
X155739324Y-51808560D01*
X155751980Y-51826290D01*
X155755273Y-51833407D01*
X155765390Y-51868875D01*
X155761404Y-51896984D01*
X155744845Y-51920828D01*
X155731434Y-51932143D01*
X155712979Y-51941576D01*
X155687148Y-51949618D01*
X155651608Y-51956762D01*
X155604024Y-51963499D01*
X155542065Y-51970320D01*
X155483462Y-51975905D01*
X155398037Y-51985061D01*
X155329499Y-51995698D01*
X155276238Y-52008420D01*
X155236640Y-52023833D01*
X155209095Y-52042543D01*
X155191992Y-52065153D01*
X155184399Y-52088210D01*
X155182546Y-52114811D01*
X155190178Y-52128834D01*
X155190996Y-52129384D01*
X155212114Y-52139872D01*
X155246405Y-52153722D01*
X155289218Y-52169273D01*
X155335900Y-52184861D01*
X155381801Y-52198824D01*
X155397443Y-52203188D01*
X155451772Y-52218856D01*
X155494381Y-52234298D01*
X155530144Y-52252398D01*
X155563937Y-52276038D01*
X155600634Y-52308101D01*
X155640603Y-52346968D01*
X155677059Y-52383754D01*
X155702127Y-52410590D01*
X155717852Y-52430278D01*
X155726277Y-52445619D01*
X155729449Y-52459412D01*
X155729660Y-52468939D01*
X155728077Y-52486962D01*
X155723133Y-52501975D01*
X155712843Y-52514952D01*
X155695225Y-52526867D01*
X155668295Y-52538692D01*
X155630071Y-52551403D01*
X155578568Y-52565973D01*
X155511804Y-52583375D01*
X155480364Y-52591352D01*
X155417048Y-52607641D01*
X155356728Y-52623701D01*
X155302745Y-52638600D01*
X155258444Y-52651408D01*
X155227165Y-52661191D01*
X155217682Y-52664569D01*
X155184817Y-52678985D01*
X155155867Y-52694637D01*
X155134549Y-52709147D01*
X155124578Y-52720134D01*
X155125221Y-52723767D01*
X155135039Y-52727895D01*
X155159476Y-52736910D01*
X155195607Y-52749769D01*
X155240507Y-52765428D01*
X155282501Y-52779860D01*
X155393679Y-52820577D01*
X155490899Y-52861905D01*
X155572953Y-52903251D01*
X155638636Y-52944023D01*
X155675215Y-52972782D01*
X155709414Y-53008412D01*
X155726303Y-53039663D01*
X155725630Y-53067430D01*
X155707139Y-53092611D01*
X155670579Y-53116103D01*
X155629749Y-53133683D01*
X155560073Y-53157979D01*
X155490695Y-53177726D01*
X155418192Y-53193515D01*
X155339136Y-53205932D01*
X155250104Y-53215567D01*
X155147671Y-53223008D01*
X155092673Y-53225976D01*
X155003058Y-53232374D01*
X154921204Y-53242147D01*
X154850464Y-53254783D01*
X154794194Y-53269771D01*
X154785750Y-53272720D01*
X154761594Y-53283344D01*
X154751863Y-53293758D01*
X154752222Y-53305334D01*
X154749260Y-53327028D01*
X154732850Y-53349001D01*
X154707433Y-53366743D01*
X154683755Y-53374832D01*
X154663003Y-53379053D01*
X154652898Y-53381750D01*
X154652711Y-53381919D01*
X154644945Y-53470071D01*
X154638923Y-53542361D01*
X154634662Y-53601369D01*
X154632183Y-53649671D01*
X154631505Y-53689847D01*
X154632646Y-53724474D01*
X154635626Y-53756131D01*
X154640465Y-53787395D01*
X154647181Y-53820846D01*
X154655793Y-53859060D01*
X154656274Y-53861144D01*
X154662473Y-53902226D01*
X154663041Y-53942774D01*
X154658437Y-53977805D01*
X154649125Y-54002333D01*
X154642575Y-54009281D01*
X154612857Y-54022011D01*
X154579843Y-54021540D01*
X154539827Y-54008323D01*
X154515899Y-53997540D01*
X154493007Y-53985841D01*
X154469119Y-53971783D01*
X154442206Y-53953924D01*
X154410236Y-53930819D01*
X154371178Y-53901025D01*
X154323002Y-53863098D01*
X154263677Y-53815595D01*
X154226341Y-53785495D01*
X154164874Y-53736478D01*
X154098319Y-53684458D01*
X154031013Y-53632752D01*
X153967291Y-53584678D01*
X153911487Y-53543551D01*
X153889476Y-53527741D01*
X153839129Y-53492149D01*
X153801933Y-53466421D01*
X153776051Y-53449536D01*
X153759648Y-53440477D01*
X153750886Y-53438226D01*
X153747930Y-53441763D01*
X153748869Y-53449743D01*
X153751931Y-53468183D01*
X153756287Y-53500931D01*
X153761430Y-53543864D01*
X153766849Y-53592857D01*
X153768655Y-53610072D01*
X153775342Y-53686754D01*
X153777461Y-53747410D01*
X153774580Y-53794068D01*
X153766266Y-53828755D01*
X153752087Y-53853498D01*
X153731610Y-53870324D01*
X153711234Y-53879174D01*
X153663910Y-53885623D01*
X153611099Y-53877193D01*
X153556281Y-53855211D01*
X153502935Y-53821003D01*
X153462323Y-53784330D01*
X153437466Y-53757516D01*
X153404928Y-53721412D01*
X153369020Y-53680844D01*
X153335638Y-53642482D01*
X153271198Y-53569288D01*
X153209620Y-53502431D01*
X153152425Y-53443408D01*
X153101133Y-53393712D01*
X153057264Y-53354841D01*
X153022338Y-53328290D01*
X153007180Y-53319325D01*
X152966042Y-53302242D01*
X152933486Y-53295712D01*
X152911995Y-53300079D01*
X152906800Y-53305349D01*
X152908082Y-53317396D01*
X152916517Y-53341848D01*
X152930598Y-53374735D01*
X152942815Y-53400263D01*
X152973811Y-53468483D01*
X152994369Y-53527360D01*
X153003791Y-53574796D01*
X153004331Y-53585028D01*
X152996673Y-53606841D01*
X152977254Y-53627929D01*
X152952244Y-53642923D01*
X152933214Y-53646938D01*
X152908644Y-53641514D01*
X152872413Y-53626700D01*
X152827589Y-53604334D01*
X152777242Y-53576249D01*
X152724442Y-53544281D01*
X152672257Y-53510266D01*
X152623757Y-53476038D01*
X152582012Y-53443433D01*
X152559308Y-53423370D01*
X152515538Y-53378238D01*
X152469218Y-53324324D01*
X152426614Y-53269132D01*
X152407320Y-53241378D01*
X152381874Y-53202927D01*
X152327267Y-53248556D01*
X152297130Y-53271079D01*
X152255902Y-53298299D01*
X152209101Y-53326722D01*
X152164037Y-53351904D01*
X152117600Y-53377709D01*
X152063706Y-53409483D01*
X152005751Y-53445040D01*
X151947134Y-53482196D01*
X151891252Y-53518764D01*
X151841504Y-53552560D01*
X151801286Y-53581399D01*
X151775423Y-53601848D01*
X151742231Y-53623565D01*
X151703471Y-53638661D01*
X151666357Y-53644824D01*
X151646851Y-53643026D01*
X151625825Y-53631383D01*
X151609685Y-53614090D01*
X151601308Y-53598250D01*
X151598871Y-53581309D01*
X151602057Y-53556698D01*
X151606019Y-53537843D01*
X151614656Y-53504227D01*
X151624244Y-53474645D01*
X151629774Y-53461536D01*
X151639259Y-53438961D01*
X151651374Y-53404132D01*
X151665269Y-53360183D01*
X151680090Y-53310246D01*
X151694987Y-53257457D01*
X151709106Y-53204948D01*
X151721596Y-53155854D01*
X151731605Y-53113308D01*
X151738280Y-53080445D01*
X151740771Y-53060397D01*
X151740041Y-53055961D01*
X151731716Y-53059230D01*
X151712165Y-53070750D01*
X151685342Y-53088167D01*
X151680662Y-53091328D01*
X151625658Y-53126654D01*
X151557185Y-53167345D01*
X151478774Y-53211412D01*
X151393954Y-53256869D01*
X151313329Y-53298191D01*
X151269354Y-53320827D01*
X151230661Y-53341865D01*
X151200646Y-53359375D01*
X151182703Y-53371427D01*
X151179882Y-53374024D01*
X151169851Y-53388856D01*
X151154065Y-53415644D01*
X151135155Y-53449831D01*
X151124791Y-53469350D01*
X151091006Y-53526596D01*
X151056988Y-53567750D01*
X151020069Y-53595080D01*
X150977579Y-53610851D01*
X150953078Y-53615153D01*
X150892949Y-53618861D01*
X150847196Y-53612828D01*
X150814253Y-53596743D01*
X150802387Y-53585185D01*
X150790964Y-53569205D01*
X150785078Y-53552484D01*
X150783616Y-53529085D01*
X150785379Y-53494323D01*
X150792434Y-53445646D01*
X150807244Y-53383874D01*
X150828921Y-53312291D01*
X150853850Y-53241428D01*
X150850354Y-53240161D01*
X150836108Y-53249802D01*
X150813731Y-53268440D01*
X150800099Y-53280728D01*
X150711802Y-53355978D01*
X150620576Y-53422271D01*
X150530639Y-53476708D01*
X150475887Y-53503901D01*
X150433600Y-53524071D01*
X150394574Y-53544760D01*
X150363824Y-53563197D01*
X150349087Y-53573985D01*
X150314746Y-53595392D01*
X150282168Y-53599800D01*
X150253101Y-53588731D01*
X150229292Y-53563705D01*
X150212490Y-53526243D01*
X150204442Y-53477867D01*
X150204338Y-53448023D01*
X150208770Y-53395154D01*
X150217133Y-53329915D01*
X150228464Y-53257799D01*
X150241800Y-53184297D01*
X150256179Y-53114901D01*
X150270640Y-53055103D01*
X150277356Y-53031326D01*
X150291359Y-52981648D01*
X150304342Y-52929887D01*
X150314506Y-52883496D01*
X150318708Y-52860017D01*
X150324871Y-52822788D01*
X150331093Y-52790033D01*
X150336100Y-52768428D01*
X150336398Y-52767418D01*
X150343443Y-52744268D01*
X150259545Y-52743234D01*
X150221394Y-52741479D01*
X150180539Y-52736793D01*
X150135007Y-52728661D01*
X150082823Y-52716567D01*
X150022015Y-52699997D01*
X149950608Y-52678436D01*
X149866628Y-52651367D01*
X149768102Y-52618277D01*
X149727362Y-52604335D01*
X149643849Y-52576242D01*
X149574532Y-52554209D01*
X149520182Y-52538462D01*
X149481569Y-52529225D01*
X149461465Y-52526659D01*
X149427865Y-52520827D01*
X149408467Y-52504002D01*
X149404208Y-52477193D01*
X149406066Y-52467184D01*
X149418449Y-52449330D01*
X149447266Y-52429884D01*
X149492901Y-52408689D01*
X149555739Y-52385590D01*
X149636164Y-52360430D01*
X149734560Y-52333052D01*
X149737413Y-52332295D01*
X149798380Y-52315709D01*
X149846539Y-52301173D01*
X149887136Y-52286603D01*
X149925416Y-52269915D01*
X149966624Y-52249025D01*
X150016005Y-52221850D01*
X150017475Y-52221024D01*
X150072281Y-52190219D01*
X149961915Y-52164978D01*
X149824483Y-52127216D01*
X149680611Y-52075664D01*
X149545972Y-52017257D01*
X149444922Y-51967800D01*
X149361200Y-51922425D01*
X149294196Y-51880616D01*
X149243296Y-51841858D01*
X149207891Y-51805634D01*
X149187368Y-51771431D01*
X149181115Y-51738731D01*
X149185819Y-51713746D01*
X149195783Y-51694818D01*
X149212710Y-51678334D01*
X149239206Y-51662862D01*
X149277878Y-51646969D01*
X149331333Y-51629222D01*
X149349999Y-51623515D01*
X149398223Y-51608373D01*
X149445347Y-51592535D01*
X149485534Y-51578020D01*
X149510137Y-51568116D01*
X149551522Y-51551703D01*
X149597616Y-51537455D01*
X149651840Y-51524560D01*
X149717611Y-51512209D01*
X149798348Y-51499593D01*
X149801028Y-51499203D01*
X149850016Y-51491485D01*
X149894900Y-51483311D01*
X149931188Y-51475572D01*
X149954393Y-51469163D01*
X149956796Y-51468235D01*
X149987148Y-51455473D01*
X149928609Y-51434251D01*
X149888043Y-51417740D01*
X149836556Y-51394124D01*
X149779073Y-51365889D01*
X149720517Y-51335518D01*
X149665814Y-51305494D01*
X149621721Y-51279446D01*
X149590855Y-51257643D01*
X149553445Y-51227384D01*
X149515604Y-51193734D01*
X149499104Y-51177884D01*
X149441779Y-51112529D01*
X149399938Y-51043729D01*
X149370720Y-50966241D01*
X149360005Y-50922849D01*
X149351885Y-50855901D01*
X149358751Y-50798872D01*
X149381258Y-50749955D01*
X149420056Y-50707343D01*
X149444570Y-50688659D01*
X149473077Y-50670317D01*
X149496407Y-50660221D01*
X149522640Y-50655949D01*
X149556633Y-50655081D01*
X149592409Y-50656310D01*
X149639690Y-50659692D01*
X149691662Y-50664673D01*
X149730617Y-50669251D01*
X149773593Y-50674509D01*
X149809321Y-50678349D01*
X149834123Y-50680415D01*
X149844326Y-50680349D01*
X149844356Y-50680323D01*
X149837342Y-50675442D01*
X149815949Y-50663344D01*
X149782323Y-50645176D01*
X149738608Y-50622083D01*
X149686950Y-50595211D01*
X149636561Y-50569316D01*
X149575091Y-50537343D01*
X149515588Y-50505374D01*
X149461186Y-50475172D01*
X149415018Y-50448495D01*
X149380217Y-50427105D01*
X149364848Y-50416629D01*
X149308010Y-50367150D01*
X149267857Y-50315433D01*
X149244826Y-50262484D01*
X149239349Y-50209308D01*
X149251862Y-50156911D01*
X149252282Y-50155917D01*
X149261837Y-50125485D01*
X149270070Y-50085134D01*
X149275236Y-50043462D01*
X149275316Y-50042410D01*
X149282966Y-49985915D01*
X149297398Y-49943348D01*
X149320296Y-49910834D01*
X149339832Y-49893763D01*
X149352144Y-49886312D01*
X149367651Y-49880865D01*
X149388128Y-49877499D01*
X149415352Y-49876287D01*
X149451100Y-49877304D01*
X149497149Y-49880624D01*
X149555275Y-49886323D01*
X149627256Y-49894476D01*
X149714868Y-49905156D01*
X149767116Y-49911723D01*
X149837424Y-49920362D01*
X149901819Y-49927770D01*
X149958007Y-49933725D01*
X150003695Y-49938003D01*
X150036589Y-49940378D01*
X150054392Y-49940627D01*
X150056827Y-49940035D01*
X150058349Y-49933025D01*
X150050382Y-49923087D01*
X150031587Y-49909408D01*
X150000622Y-49891169D01*
X149956148Y-49867556D01*
X149896826Y-49837753D01*
X149856180Y-49817840D01*
X149767688Y-49774597D01*
X149694072Y-49738143D01*
X149633440Y-49707400D01*
X149583903Y-49681290D01*
X149543570Y-49658735D01*
X149510549Y-49638656D01*
X149482952Y-49619978D01*
X149458886Y-49601620D01*
X149436461Y-49582507D01*
X149424827Y-49571916D01*
X149392245Y-49544792D01*
X149356310Y-49519415D01*
X149331646Y-49504954D01*
X149300939Y-49488366D01*
X149281029Y-49473032D01*
X149267964Y-49453708D01*
X149257786Y-49425149D01*
X149250328Y-49397110D01*
X149237778Y-49357598D01*
X149221276Y-49318180D01*
X149209036Y-49295250D01*
X149182850Y-49249155D01*
X149168879Y-49211435D01*
X149166934Y-49176716D01*
X149176825Y-49139623D01*
X149198361Y-49094780D01*
X149201729Y-49088605D01*
X149222724Y-49060866D01*
X149254869Y-49030020D01*
X149292521Y-49000775D01*
X149330039Y-48977835D01*
X149340477Y-48972863D01*
X149375827Y-48959145D01*
X149425391Y-48942334D01*
X149485352Y-48923561D01*
X149551893Y-48903956D01*
X149621196Y-48884649D01*
X149689445Y-48866769D01*
X149742598Y-48853814D01*
X149791829Y-48841851D01*
X149833482Y-48830846D01*
X149864763Y-48821610D01*
X149882882Y-48814955D01*
X149886127Y-48812118D01*
X149874819Y-48805801D01*
X149850863Y-48794890D01*
X149818887Y-48781465D01*
X149809880Y-48777839D01*
X149693800Y-48727598D01*
X149583109Y-48672170D01*
X149549407Y-48653521D01*
X149507033Y-48631712D01*
X149458854Y-48610245D01*
X149422200Y-48596238D01*
X149377511Y-48577956D01*
X149324088Y-48551414D01*
X149267690Y-48519882D01*
X149214074Y-48486634D01*
X149168999Y-48454939D01*
X149157677Y-48445955D01*
X149127076Y-48411473D01*
X149113614Y-48373642D01*
X149114642Y-48364183D01*
X149263544Y-48364183D01*
X149270971Y-48369854D01*
X149290880Y-48382550D01*
X149319713Y-48400037D01*
X149336570Y-48410001D01*
X149381491Y-48434234D01*
X149432515Y-48458598D01*
X149479495Y-48478286D01*
X149484799Y-48480259D01*
X149524619Y-48495917D01*
X149562313Y-48512656D01*
X149590919Y-48527343D01*
X149595264Y-48529964D01*
X149638001Y-48554429D01*
X149694910Y-48583267D01*
X149762588Y-48615013D01*
X149837630Y-48648203D01*
X149916634Y-48681370D01*
X149996195Y-48713049D01*
X150072911Y-48741774D01*
X150143378Y-48766082D01*
X150144612Y-48766484D01*
X150179136Y-48778937D01*
X150200256Y-48790482D01*
X150212656Y-48804191D01*
X150217745Y-48814458D01*
X150224316Y-48836576D01*
X150219800Y-48853935D01*
X150211354Y-48866439D01*
X150187736Y-48886340D01*
X150151125Y-48903817D01*
X150107039Y-48916932D01*
X150060998Y-48923749D01*
X150046572Y-48924284D01*
X150024004Y-48926483D01*
X149986854Y-48932484D01*
X149938516Y-48941632D01*
X149882383Y-48953273D01*
X149821850Y-48966753D01*
X149801184Y-48971565D01*
X149685787Y-48999691D01*
X149587719Y-49025772D01*
X149505959Y-49050253D01*
X149439483Y-49073583D01*
X149387271Y-49096207D01*
X149348299Y-49118571D01*
X149321545Y-49141124D01*
X149305989Y-49164311D01*
X149300606Y-49188579D01*
X149300584Y-49190325D01*
X149305587Y-49208146D01*
X149318142Y-49232601D01*
X149324008Y-49241775D01*
X149339494Y-49269666D01*
X149355475Y-49306388D01*
X149365706Y-49335413D01*
X149377130Y-49368706D01*
X149388004Y-49388880D01*
X149401696Y-49400915D01*
X149414047Y-49406873D01*
X149436720Y-49419719D01*
X149465602Y-49440829D01*
X149490412Y-49462028D01*
X149514437Y-49483595D01*
X149538228Y-49503109D01*
X149563975Y-49521861D01*
X149593870Y-49541139D01*
X149630101Y-49562234D01*
X149674858Y-49586435D01*
X149730332Y-49615032D01*
X149798712Y-49649313D01*
X149859529Y-49679406D01*
X149951797Y-49725624D01*
X150027964Y-49765710D01*
X150089006Y-49800704D01*
X150135896Y-49831645D01*
X150169610Y-49859573D01*
X150191120Y-49885528D01*
X150201403Y-49910549D01*
X150201433Y-49935675D01*
X150192184Y-49961947D01*
X150174630Y-49990404D01*
X150164151Y-50004366D01*
X150148049Y-50023345D01*
X150131256Y-50038435D01*
X150111846Y-50049753D01*
X150087898Y-50057415D01*
X150057487Y-50061541D01*
X150018689Y-50062246D01*
X149969580Y-50059648D01*
X149908238Y-50053864D01*
X149832738Y-50045012D01*
X149741156Y-50033209D01*
X149725337Y-50031115D01*
X149658035Y-50022372D01*
X149594886Y-50014523D01*
X149538793Y-50007900D01*
X149492660Y-50002836D01*
X149459390Y-49999665D01*
X149442955Y-49998705D01*
X149418319Y-49999984D01*
X149406065Y-50006506D01*
X149400094Y-50022283D01*
X149398970Y-50027635D01*
X149395429Y-50054585D01*
X149393197Y-50089088D01*
X149392855Y-50104029D01*
X149390071Y-50136671D01*
X149383392Y-50165169D01*
X149379293Y-50174636D01*
X149368612Y-50200156D01*
X149366961Y-50225277D01*
X149375323Y-50250873D01*
X149394683Y-50277818D01*
X149426021Y-50306986D01*
X149470323Y-50339251D01*
X149528571Y-50375486D01*
X149601748Y-50416567D01*
X149690837Y-50463367D01*
X149721911Y-50479208D01*
X149783924Y-50510982D01*
X149850632Y-50545737D01*
X149916374Y-50580487D01*
X149975491Y-50612246D01*
X150012496Y-50632539D01*
X150061489Y-50658718D01*
X150110540Y-50683107D01*
X150154814Y-50703423D01*
X150189481Y-50717380D01*
X150197695Y-50720111D01*
X150245746Y-50736823D01*
X150277759Y-50753241D01*
X150296127Y-50770915D01*
X150302815Y-50788188D01*
X150300641Y-50816318D01*
X150288062Y-50843169D01*
X150269035Y-50861479D01*
X150261133Y-50864641D01*
X150246157Y-50864648D01*
X150215928Y-50861826D01*
X150173434Y-50856556D01*
X150121662Y-50849221D01*
X150063599Y-50840201D01*
X150041378Y-50836557D01*
X149916491Y-50816370D01*
X149809457Y-50800341D01*
X149720086Y-50788444D01*
X149648189Y-50780655D01*
X149593577Y-50776950D01*
X149576583Y-50776606D01*
X149541806Y-50778376D01*
X149517920Y-50785202D01*
X149497874Y-50798885D01*
X149481084Y-50816751D01*
X149473833Y-50836979D01*
X149472783Y-50863824D01*
X149476851Y-50894197D01*
X149486694Y-50933171D01*
X149500240Y-50972570D01*
X149500563Y-50973376D01*
X149536806Y-51040212D01*
X149589622Y-51103169D01*
X149657151Y-51160171D01*
X149684303Y-51178576D01*
X149733366Y-51207701D01*
X149794235Y-51240398D01*
X149861314Y-51273898D01*
X149929009Y-51305435D01*
X149991724Y-51332239D01*
X150007549Y-51338488D01*
X150053620Y-51356648D01*
X150085704Y-51370620D01*
X150107248Y-51382465D01*
X150121698Y-51394240D01*
X150132502Y-51408006D01*
X150137529Y-51416135D01*
X150151165Y-51453062D01*
X150146526Y-51487241D01*
X150127033Y-51515799D01*
X150102479Y-51533315D01*
X150063286Y-51551741D01*
X150013209Y-51569865D01*
X149956006Y-51586475D01*
X149895436Y-51600360D01*
X149835255Y-51610309D01*
X149833030Y-51610593D01*
X149747768Y-51622890D01*
X149675654Y-51637026D01*
X149611327Y-51654258D01*
X149549423Y-51675841D01*
X149541868Y-51678797D01*
X149494082Y-51696617D01*
X149440872Y-51714816D01*
X149392713Y-51729832D01*
X149386803Y-51731525D01*
X149349846Y-51742504D01*
X149328064Y-51751796D01*
X149321651Y-51761576D01*
X149330801Y-51774022D01*
X149355707Y-51791311D01*
X149394179Y-51814226D01*
X149521460Y-51883381D01*
X149652398Y-51944794D01*
X149783127Y-51996935D01*
X149909785Y-52038275D01*
X150028505Y-52067283D01*
X150038226Y-52069154D01*
X150102582Y-52081792D01*
X150150922Y-52092800D01*
X150185580Y-52103061D01*
X150208889Y-52113459D01*
X150223180Y-52124876D01*
X150230788Y-52138198D01*
X150232088Y-52142584D01*
X150230341Y-52170073D01*
X150215074Y-52201956D01*
X150189294Y-52234270D01*
X150156007Y-52263053D01*
X150127762Y-52280019D01*
X150094006Y-52297590D01*
X150053532Y-52320099D01*
X150016282Y-52341966D01*
X149986228Y-52358830D01*
X149953178Y-52374207D01*
X149914193Y-52389114D01*
X149866333Y-52404564D01*
X149806656Y-52421574D01*
X149732223Y-52441157D01*
X149719596Y-52444382D01*
X149682806Y-52454338D01*
X149653928Y-52463278D01*
X149636875Y-52469929D01*
X149633941Y-52472246D01*
X149642424Y-52477201D01*
X149666482Y-52487009D01*
X149704026Y-52500952D01*
X149752970Y-52518310D01*
X149811227Y-52538364D01*
X149876710Y-52560395D01*
X149947330Y-52583685D01*
X150021002Y-52607514D01*
X150091191Y-52629768D01*
X150160737Y-52650361D01*
X150223950Y-52666694D01*
X150276930Y-52677828D01*
X150308800Y-52682310D01*
X150344607Y-52686020D01*
X150365689Y-52690027D01*
X150375805Y-52695748D01*
X150378716Y-52704596D01*
X150378731Y-52708611D01*
X150382340Y-52723070D01*
X150389470Y-52724143D01*
X150410304Y-52724947D01*
X150434133Y-52738001D01*
X150455322Y-52759168D01*
X150467324Y-52781273D01*
X150471571Y-52806659D01*
X150470095Y-52841542D01*
X150462586Y-52887674D01*
X150448730Y-52946810D01*
X150428216Y-53020704D01*
X150419566Y-53049846D01*
X150408253Y-53091675D01*
X150396273Y-53143030D01*
X150384482Y-53199370D01*
X150373738Y-53256155D01*
X150364897Y-53308846D01*
X150358816Y-53352903D01*
X150356350Y-53383785D01*
X150356336Y-53384992D01*
X150357039Y-53394467D01*
X150361498Y-53398421D01*
X150373028Y-53396279D01*
X150394942Y-53387471D01*
X150427911Y-53372627D01*
X150497360Y-53336937D01*
X150563045Y-53294132D01*
X150628974Y-53241260D01*
X150655321Y-53216525D01*
X150856253Y-53216525D01*
X150860883Y-53221155D01*
X150865513Y-53216525D01*
X150860883Y-53211895D01*
X150856253Y-53216525D01*
X150655321Y-53216525D01*
X150699156Y-53175371D01*
X150708113Y-53166390D01*
X150747475Y-53125668D01*
X150777013Y-53091889D01*
X150800693Y-53059636D01*
X150822484Y-53023490D01*
X150846351Y-52978034D01*
X150847012Y-52976725D01*
X150860883Y-52950733D01*
X150875086Y-52924119D01*
X150899418Y-52886665D01*
X150922433Y-52862052D01*
X150946557Y-52847969D01*
X150974215Y-52842106D01*
X150988919Y-52841532D01*
X151023140Y-52849072D01*
X151052699Y-52868825D01*
X151072687Y-52896392D01*
X151078489Y-52921809D01*
X151074444Y-52970447D01*
X151062489Y-53034679D01*
X151042885Y-53113484D01*
X151015894Y-53205838D01*
X150981779Y-53310716D01*
X150970539Y-53343478D01*
X150955308Y-53388846D01*
X150943167Y-53427858D01*
X150935050Y-53457271D01*
X150931892Y-53473845D01*
X150932255Y-53476183D01*
X150945547Y-53478304D01*
X150963159Y-53463980D01*
X150983996Y-53434473D01*
X151006961Y-53391049D01*
X151008011Y-53388822D01*
X151027038Y-53350504D01*
X151046122Y-53318618D01*
X151067699Y-53291117D01*
X151094205Y-53265956D01*
X151128077Y-53241089D01*
X151171751Y-53214470D01*
X151227662Y-53184052D01*
X151290076Y-53151931D01*
X151353166Y-53118952D01*
X151420367Y-53082174D01*
X151486353Y-53044622D01*
X151545796Y-53009324D01*
X151589523Y-52981836D01*
X151635822Y-52951742D01*
X151680560Y-52923042D01*
X151719708Y-52898296D01*
X151749239Y-52880060D01*
X151758270Y-52874687D01*
X151806495Y-52853870D01*
X151851151Y-52848751D01*
X151889784Y-52859475D01*
X151900542Y-52866327D01*
X151921798Y-52887571D01*
X151931270Y-52912947D01*
X151929336Y-52946010D01*
X151916374Y-52990315D01*
X151914332Y-52995916D01*
X151902239Y-53031829D01*
X151888048Y-53078864D01*
X151873790Y-53130090D01*
X151864643Y-53165595D01*
X151851907Y-53216264D01*
X151838430Y-53268489D01*
X151826097Y-53315027D01*
X151819147Y-53340367D01*
X151810414Y-53373174D01*
X151804639Y-53398252D01*
X151802848Y-53411047D01*
X151803066Y-53411739D01*
X151811570Y-53408283D01*
X151832191Y-53396530D01*
X151861624Y-53378438D01*
X151889115Y-53360829D01*
X151928286Y-53336245D01*
X151978134Y-53306300D01*
X152032985Y-53274337D01*
X152087166Y-53243693D01*
X152101714Y-53235657D01*
X152150439Y-53207890D01*
X152197248Y-53179396D01*
X152237909Y-53152875D01*
X152268192Y-53131031D01*
X152276989Y-53123731D01*
X152301257Y-53101285D01*
X152313704Y-53086310D01*
X152316705Y-53074384D01*
X152312634Y-53061083D01*
X152311713Y-53059031D01*
X152305133Y-53035246D01*
X152301248Y-53003148D01*
X152300802Y-52989221D01*
X152306806Y-52948872D01*
X152323148Y-52921039D01*
X152347323Y-52907267D01*
X152376825Y-52909100D01*
X152405194Y-52924841D01*
X152421226Y-52944646D01*
X152437921Y-52976520D01*
X152452828Y-53014274D01*
X152463497Y-53051720D01*
X152467481Y-53082167D01*
X152473254Y-53103504D01*
X152489120Y-53135362D01*
X152512900Y-53174394D01*
X152542414Y-53217253D01*
X152575482Y-53260590D01*
X152609925Y-53301058D01*
X152610127Y-53301280D01*
X152631437Y-53322276D01*
X152660879Y-53347988D01*
X152695477Y-53376194D01*
X152732252Y-53404670D01*
X152768228Y-53431193D01*
X152800428Y-53453537D01*
X152825873Y-53469481D01*
X152841588Y-53476800D01*
X152844828Y-53476570D01*
X152842647Y-53467240D01*
X152833518Y-53446036D01*
X152819350Y-53417348D01*
X152817702Y-53414183D01*
X152794623Y-53356359D01*
X152787227Y-53303386D01*
X152794624Y-53257077D01*
X152815923Y-53219244D01*
X152850235Y-53191699D01*
X152896668Y-53176253D01*
X152935861Y-53173610D01*
X152977875Y-53178939D01*
X153022081Y-53193579D01*
X153069516Y-53218362D01*
X153121213Y-53254120D01*
X153178209Y-53301686D01*
X153241538Y-53361893D01*
X153312236Y-53435573D01*
X153391338Y-53523559D01*
X153438002Y-53577418D01*
X153491034Y-53638362D01*
X153534306Y-53685832D01*
X153569230Y-53721124D01*
X153597217Y-53745536D01*
X153619678Y-53760363D01*
X153638026Y-53766903D01*
X153644862Y-53767491D01*
X153653578Y-53764532D01*
X153659166Y-53754273D01*
X153661667Y-53734638D01*
X153661122Y-53703552D01*
X153657571Y-53658939D01*
X153651054Y-53598725D01*
X153648569Y-53577662D01*
X153638395Y-53499747D01*
X153628011Y-53436916D01*
X153616570Y-53385741D01*
X153603223Y-53342796D01*
X153587123Y-53304657D01*
X153575347Y-53281852D01*
X153558927Y-53249744D01*
X153546930Y-53222026D01*
X153541696Y-53204172D01*
X153541634Y-53202988D01*
X153549061Y-53185088D01*
X153566929Y-53165910D01*
X153588615Y-53151377D01*
X153604135Y-53147075D01*
X153616166Y-53153171D01*
X153637887Y-53169641D01*
X153665897Y-53193757D01*
X153688541Y-53214794D01*
X153743426Y-53266115D01*
X153794674Y-53310960D01*
X153847524Y-53353601D01*
X153907211Y-53398311D01*
X153958331Y-53434865D01*
X153992975Y-53460124D01*
X154038615Y-53494640D01*
X154091975Y-53535866D01*
X154149780Y-53581255D01*
X154208754Y-53628263D01*
X154250019Y-53661614D01*
X154326162Y-53723318D01*
X154389177Y-53773823D01*
X154440078Y-53813890D01*
X154479880Y-53844275D01*
X154509597Y-53865740D01*
X154530243Y-53879042D01*
X154542833Y-53884940D01*
X154548052Y-53884611D01*
X154549285Y-53873265D01*
X154546784Y-53849560D01*
X154542471Y-53825586D01*
X154534379Y-53783548D01*
X154529077Y-53745932D01*
X154526476Y-53708481D01*
X154526488Y-53666937D01*
X154529025Y-53617042D01*
X154533999Y-53554537D01*
X154536326Y-53528600D01*
X154541338Y-53469097D01*
X154545611Y-53409468D01*
X154548825Y-53354896D01*
X154550660Y-53310561D01*
X154550966Y-53291592D01*
X154553039Y-53243101D01*
X154560195Y-53210628D01*
X154573843Y-53192041D01*
X154595393Y-53185206D01*
X154620110Y-53186901D01*
X154648838Y-53187145D01*
X154679371Y-53176720D01*
X154693811Y-53169164D01*
X154731651Y-53152942D01*
X154784316Y-53137389D01*
X154848114Y-53123222D01*
X154919349Y-53111159D01*
X154994330Y-53101918D01*
X155069360Y-53096214D01*
X155069523Y-53096206D01*
X155133992Y-53092065D01*
X155200633Y-53086149D01*
X155266899Y-53078852D01*
X155330242Y-53070568D01*
X155388112Y-53061692D01*
X155437962Y-53052616D01*
X155477244Y-53043736D01*
X155503409Y-53035445D01*
X155513909Y-53028138D01*
X155514000Y-53027481D01*
X155505652Y-53018615D01*
X155482385Y-53004971D01*
X155446862Y-52987590D01*
X155401747Y-52967512D01*
X155349704Y-52945774D01*
X155293395Y-52923417D01*
X155235485Y-52901479D01*
X155178637Y-52881000D01*
X155125515Y-52863019D01*
X155078782Y-52848575D01*
X155041103Y-52838707D01*
X155020530Y-52834953D01*
X154982143Y-52823983D01*
X154954485Y-52803282D01*
X154940790Y-52775619D01*
X154939884Y-52765800D01*
X154947724Y-52733076D01*
X154969430Y-52695323D01*
X155002277Y-52655745D01*
X155043541Y-52617546D01*
X155090499Y-52583933D01*
X155098623Y-52579039D01*
X155138178Y-52559409D01*
X155192128Y-52537803D01*
X155256640Y-52515512D01*
X155327878Y-52493826D01*
X155402008Y-52474032D01*
X155432834Y-52466652D01*
X155478490Y-52455905D01*
X155508751Y-52447919D01*
X155526316Y-52441508D01*
X155533884Y-52435490D01*
X155534157Y-52428680D01*
X155531720Y-52423306D01*
X155511895Y-52401061D01*
X155476861Y-52377334D01*
X155429657Y-52353808D01*
X155373321Y-52332167D01*
X155358714Y-52327421D01*
X155273166Y-52299907D01*
X155204066Y-52275620D01*
X155149924Y-52253190D01*
X155109248Y-52231249D01*
X155080545Y-52208427D01*
X155062325Y-52183358D01*
X155053094Y-52154671D01*
X155051363Y-52120998D01*
X155055638Y-52080971D01*
X155060392Y-52053724D01*
X155079212Y-52003412D01*
X155115094Y-51958450D01*
X155167204Y-51919417D01*
X155234708Y-51886891D01*
X155316775Y-51861449D01*
X155347321Y-51854623D01*
X155358779Y-51851544D01*
X155360840Y-51848148D01*
X155351581Y-51843697D01*
X155329074Y-51837451D01*
X155291393Y-51828672D01*
X155263701Y-51822540D01*
X155201371Y-51808329D01*
X155154622Y-51796100D01*
X155120783Y-51784701D01*
X155097183Y-51772981D01*
X155081150Y-51759788D01*
X155070014Y-51743970D01*
X155066801Y-51737647D01*
X155056467Y-51700119D01*
X155062305Y-51663806D01*
X155084868Y-51627829D01*
X155124706Y-51591306D01*
X155182089Y-51553521D01*
X155240204Y-51522026D01*
X155299523Y-51495404D01*
X155365700Y-51471387D01*
X155444388Y-51447703D01*
X155448136Y-51446658D01*
X155486632Y-51435528D01*
X155518380Y-51425552D01*
X155539140Y-51418106D01*
X155544672Y-51415333D01*
X155539711Y-51410668D01*
X155519649Y-51403534D01*
X155487617Y-51394691D01*
X155446752Y-51384897D01*
X155400186Y-51374911D01*
X155351054Y-51365491D01*
X155310281Y-51358600D01*
X155246780Y-51344559D01*
X155193021Y-51324529D01*
X155151804Y-51299863D01*
X155125928Y-51271908D01*
X155124223Y-51268852D01*
X155114841Y-51246399D01*
X155112977Y-51225950D01*
X155120092Y-51205368D01*
X155137649Y-51182512D01*
X155167109Y-51155245D01*
X155209934Y-51121427D01*
X155240586Y-51098620D01*
X155290600Y-51062718D01*
X155332369Y-51035283D01*
X155371921Y-51012977D01*
X155415279Y-50992462D01*
X155468470Y-50970398D01*
X155480913Y-50965469D01*
X155527534Y-50946721D01*
X155569145Y-50929297D01*
X155602124Y-50914766D01*
X155622848Y-50904694D01*
X155626824Y-50902315D01*
X155635061Y-50896491D01*
X155638802Y-50892014D01*
X155635716Y-50887980D01*
X155623470Y-50883483D01*
X155599733Y-50877617D01*
X155562174Y-50869478D01*
X155518630Y-50860304D01*
X155425682Y-50839919D01*
X155349682Y-50821412D01*
X155289203Y-50804338D01*
X155242818Y-50788254D01*
X155209100Y-50772715D01*
X155186624Y-50757277D01*
X155186044Y-50756752D01*
X155172102Y-50733519D01*
X155168295Y-50710196D01*
X155170965Y-50690510D01*
X155181226Y-50672732D01*
X155202455Y-50651795D01*
X155213386Y-50642547D01*
X155244546Y-50615030D01*
X155275642Y-50584869D01*
X155291324Y-50568183D01*
X155333791Y-50522470D01*
X155375406Y-50482970D01*
X155420421Y-50446252D01*
X155473083Y-50408885D01*
X155537643Y-50367439D01*
X155547437Y-50361384D01*
X155681449Y-50278824D01*
X155525960Y-50249021D01*
X155466418Y-50237881D01*
X155405523Y-50226962D01*
X155348851Y-50217232D01*
X155301978Y-50209658D01*
X155283944Y-50206981D01*
X155226211Y-50196119D01*
X155185915Y-50181493D01*
X155162128Y-50161726D01*
X155153921Y-50135438D01*
X155160366Y-50101250D01*
X155180533Y-50057784D01*
X155181862Y-50055384D01*
X155203816Y-50017159D01*
X155224500Y-49984906D01*
X155246190Y-49956526D01*
X155271158Y-49929919D01*
X155301679Y-49902987D01*
X155340029Y-49873630D01*
X155388480Y-49839750D01*
X155449307Y-49799246D01*
X155483905Y-49776617D01*
X155524071Y-49749580D01*
X155557985Y-49725128D01*
X155582884Y-49705381D01*
X155596005Y-49692460D01*
X155597339Y-49689591D01*
X155590172Y-49674986D01*
X155571578Y-49654647D01*
X155545916Y-49632521D01*
X155517547Y-49612556D01*
X155503229Y-49604369D01*
X155479648Y-49593141D01*
X155446250Y-49578396D01*
X155411921Y-49564012D01*
X155341385Y-49531016D01*
X155287773Y-49495700D01*
X155249500Y-49456481D01*
X155224986Y-49411777D01*
X155213374Y-49365523D01*
X155207717Y-49330598D01*
X155201126Y-49308625D01*
X155190683Y-49294141D01*
X155173467Y-49281685D01*
X155166224Y-49277338D01*
X155140178Y-49255517D01*
X155128678Y-49227560D01*
X155130714Y-49190152D01*
X155134608Y-49173577D01*
X155147525Y-49136723D01*
X155166370Y-49105880D01*
X155194659Y-49076690D01*
X155235908Y-49044793D01*
X155241874Y-49040592D01*
X155286886Y-49010499D01*
X155328753Y-48986115D01*
X155372605Y-48965000D01*
X155423576Y-48944711D01*
X155486798Y-48922807D01*
X155495480Y-48919944D01*
X155536918Y-48906169D01*
X155571505Y-48894353D01*
X155595679Y-48885734D01*
X155605878Y-48881554D01*
X155605920Y-48881519D01*
X155602176Y-48873572D01*
X155586780Y-48856821D01*
X155562690Y-48833839D01*
X155532868Y-48807198D01*
X155500273Y-48779471D01*
X155467867Y-48753230D01*
X155438609Y-48731048D01*
X155415461Y-48715497D01*
X155413594Y-48714404D01*
X155375036Y-48695440D01*
X155330219Y-48677892D01*
X155301469Y-48669028D01*
X155259150Y-48656335D01*
X155231880Y-48642545D01*
X155216330Y-48624252D01*
X155209175Y-48598047D01*
X155207361Y-48572651D01*
X155207106Y-48542751D01*
X155209568Y-48517984D01*
X155216310Y-48494284D01*
X155228893Y-48467583D01*
X155248879Y-48433814D01*
X155277831Y-48388911D01*
X155278063Y-48388557D01*
X155347083Y-48294192D01*
X155419806Y-48216681D01*
X155497801Y-48154485D01*
X155547100Y-48124254D01*
X155591802Y-48098976D01*
X155639350Y-48071110D01*
X155681621Y-48045446D01*
X155694022Y-48037642D01*
X155725142Y-48017265D01*
X155742457Y-48004011D01*
X155748098Y-47995569D01*
X155744196Y-47989624D01*
X155740322Y-47987366D01*
X155724109Y-47977863D01*
X155697838Y-47961301D01*
X155666780Y-47941014D01*
X155662159Y-47937939D01*
X155628913Y-47918301D01*
X155584332Y-47895459D01*
X155534535Y-47872404D01*
X155490850Y-47854157D01*
X155447223Y-47836431D01*
X155408710Y-47819677D01*
X155379269Y-47805694D01*
X155362860Y-47796279D01*
X155362181Y-47795737D01*
X155347769Y-47778355D01*
X155332077Y-47751945D01*
X155326461Y-47740317D01*
X155316591Y-47715471D01*
X155312925Y-47694468D01*
X155314923Y-47669404D01*
X155319837Y-47643088D01*
X155333624Y-47592230D01*
X155354222Y-47548611D01*
X155385112Y-47505892D01*
X155411239Y-47476787D01*
X155443800Y-47446308D01*
X155485632Y-47412551D01*
X155531420Y-47379325D01*
X155575848Y-47350440D01*
X155613601Y-47329704D01*
X155621230Y-47326300D01*
X155645253Y-47313169D01*
X155651702Y-47301683D01*
X155640326Y-47292676D01*
X155632064Y-47290259D01*
X155614583Y-47286262D01*
X155583845Y-47279332D01*
X155544670Y-47270555D01*
X155514000Y-47263711D01*
X155451843Y-47247071D01*
X155396241Y-47226824D01*
X155350177Y-47204414D01*
X155316634Y-47181286D01*
X155298886Y-47159540D01*
X155294841Y-47144239D01*
X155298652Y-47127260D01*
X155311929Y-47103019D01*
X155317836Y-47093746D01*
X155351976Y-47048472D01*
X155397688Y-46998327D01*
X155450418Y-46947553D01*
X155505618Y-46900391D01*
X155558733Y-46861085D01*
X155585409Y-46844352D01*
X155663329Y-46799390D01*
X155598048Y-46796672D01*
X155552298Y-46796619D01*
X155502296Y-46799321D01*
X155470139Y-46802741D01*
X155426167Y-46807004D01*
X155378020Y-46808611D01*
X155330604Y-46807731D01*
X155288827Y-46804535D01*
X155257595Y-46799192D01*
X155245879Y-46794983D01*
X155226143Y-46779319D01*
X155212806Y-46763274D01*
X155204413Y-46741937D01*
X155207970Y-46718750D01*
X155224603Y-46690888D01*
X155255438Y-46655527D01*
X155256023Y-46654916D01*
X155282069Y-46625694D01*
X155312167Y-46588912D01*
X155339971Y-46552334D01*
X155340961Y-46550964D01*
X155368101Y-46517567D01*
X155404165Y-46478962D01*
X155443354Y-46441177D01*
X155463952Y-46423087D01*
X155495040Y-46396325D01*
X155519595Y-46374064D01*
X155534909Y-46358838D01*
X155538610Y-46353287D01*
X155529282Y-46354911D01*
X155505757Y-46361275D01*
X155471426Y-46371321D01*
X155429682Y-46383994D01*
X155383916Y-46398236D01*
X155337521Y-46412991D01*
X155293887Y-46427200D01*
X155256408Y-46439808D01*
X155228475Y-46449757D01*
X155225892Y-46450734D01*
X155203116Y-46468359D01*
X155193716Y-46497646D01*
X155195837Y-46525803D01*
X155193754Y-46551760D01*
X155175471Y-46568877D01*
X155141575Y-46576974D01*
X155100131Y-46574280D01*
X155070898Y-46558028D01*
X155058471Y-46539877D01*
X155053350Y-46523419D01*
X155055139Y-46505953D01*
X155064951Y-46481312D01*
X155071484Y-46467842D01*
X155091229Y-46427117D01*
X155108415Y-46389823D01*
X155121603Y-46359285D01*
X155129354Y-46338829D01*
X155130360Y-46331763D01*
X155120384Y-46335079D01*
X155099327Y-46343491D01*
X155086495Y-46348885D01*
X155053912Y-46361013D01*
X155021814Y-46370279D01*
X155013963Y-46371943D01*
X154992351Y-46374888D01*
X154956447Y-46378702D01*
X154910440Y-46383037D01*
X154858520Y-46387544D01*
X154804873Y-46391875D01*
X154753690Y-46395681D01*
X154709157Y-46398614D01*
X154675465Y-46400324D01*
X154671346Y-46400461D01*
X154618441Y-46409878D01*
X154573564Y-46435389D01*
X154569027Y-46439199D01*
X154551712Y-46449820D01*
X154525107Y-46461824D01*
X154513772Y-46466087D01*
X154486111Y-46477762D01*
X154449627Y-46495710D01*
X154411254Y-46516481D01*
X154403112Y-46521165D01*
X154344896Y-46551150D01*
X154297060Y-46566895D01*
X154258413Y-46568619D01*
X154227761Y-46556542D01*
X154224410Y-46554056D01*
X154204392Y-46528390D01*
X154199371Y-46494043D01*
X154209285Y-46450005D01*
X154216651Y-46431228D01*
X154227420Y-46401527D01*
X154239263Y-46361854D01*
X154249743Y-46320418D01*
X154250415Y-46317430D01*
X154268019Y-46252512D01*
X154292255Y-46190006D01*
X154325997Y-46122702D01*
X154333219Y-46109668D01*
X154347147Y-46079233D01*
X154354957Y-46050730D01*
X154355999Y-46028651D01*
X154349623Y-46017487D01*
X154346630Y-46016926D01*
X154333388Y-46022057D01*
X154312878Y-46034788D01*
X154307275Y-46038825D01*
X154284818Y-46053602D01*
X154252105Y-46072856D01*
X154215490Y-46092877D01*
X154208349Y-46096600D01*
X154178029Y-46113783D01*
X154147168Y-46134837D01*
X154112933Y-46162050D01*
X154072490Y-46197708D01*
X154023005Y-46244100D01*
X154008950Y-46257584D01*
X153962384Y-46302059D01*
X153914424Y-46347244D01*
X153868916Y-46389557D01*
X153829707Y-46425418D01*
X153805232Y-46447254D01*
X153767842Y-46480200D01*
X153729452Y-46514398D01*
X153696083Y-46544470D01*
X153683402Y-46556058D01*
X153645125Y-46586148D01*
X153613373Y-46599498D01*
X153587703Y-46595855D01*
X153567671Y-46574968D01*
X153552835Y-46536584D01*
X153542752Y-46480452D01*
X153542195Y-46475699D01*
X153537956Y-46430304D01*
X153537530Y-46396513D01*
X153541162Y-46367759D01*
X153547050Y-46344320D01*
X153554555Y-46311391D01*
X153561640Y-46268179D01*
X153566999Y-46222901D01*
X153567827Y-46213365D01*
X153574381Y-46131335D01*
X153493987Y-46178305D01*
X153455399Y-46202876D01*
X153413996Y-46233548D01*
X153367170Y-46272448D01*
X153312313Y-46321705D01*
X153271897Y-46359543D01*
X153226000Y-46403254D01*
X153181485Y-46446050D01*
X153141287Y-46485078D01*
X153108341Y-46517486D01*
X153085584Y-46540423D01*
X153083583Y-46542502D01*
X153053446Y-46571314D01*
X153030219Y-46586790D01*
X153011716Y-46591116D01*
X152986581Y-46583478D01*
X152968528Y-46560536D01*
X152957542Y-46521997D01*
X152953607Y-46467565D01*
X152956708Y-46396946D01*
X152966829Y-46309846D01*
X152983955Y-46205969D01*
X152989906Y-46174345D01*
X152997529Y-46132539D01*
X153004489Y-46090574D01*
X153009134Y-46058595D01*
X153014986Y-46012296D01*
X152989828Y-46049335D01*
X152967881Y-46080118D01*
X152942305Y-46112788D01*
X152911421Y-46149216D01*
X152873553Y-46191275D01*
X152827023Y-46240836D01*
X152770151Y-46299773D01*
X152714467Y-46356569D01*
X152668011Y-46403099D01*
X152624464Y-46445573D01*
X152585899Y-46482055D01*
X152554390Y-46510614D01*
X152532012Y-46529316D01*
X152522101Y-46535871D01*
X152486851Y-46542539D01*
X152456744Y-46532849D01*
X152435584Y-46508693D01*
X152424257Y-46472149D01*
X152420375Y-46425226D01*
X152423820Y-46374451D01*
X152434474Y-46326351D01*
X152439127Y-46313244D01*
X152446453Y-46292318D01*
X152456945Y-46259237D01*
X152469714Y-46217124D01*
X152483872Y-46169106D01*
X152498532Y-46118308D01*
X152512805Y-46067855D01*
X152525803Y-46020873D01*
X152536638Y-45980487D01*
X152544422Y-45949823D01*
X152548267Y-45932005D01*
X152548363Y-45928800D01*
X152541618Y-45934597D01*
X152524875Y-45951420D01*
X152500670Y-45976665D01*
X152472111Y-46007112D01*
X152439247Y-46041697D01*
X152407456Y-46073789D01*
X152380770Y-46099391D01*
X152365622Y-46112661D01*
X152345843Y-46128958D01*
X152316229Y-46154016D01*
X152280851Y-46184367D01*
X152245243Y-46215262D01*
X152188136Y-46264425D01*
X152132233Y-46311295D01*
X152079446Y-46354376D01*
X152031685Y-46392173D01*
X151990862Y-46423192D01*
X151958888Y-46445938D01*
X151937675Y-46458914D01*
X151930585Y-46461402D01*
X151912689Y-46454942D01*
X151898207Y-46443116D01*
X151889359Y-46427031D01*
X151886200Y-46402918D01*
X151888911Y-46368434D01*
X151897675Y-46321235D01*
X151912468Y-46259778D01*
X151921769Y-46213822D01*
X151929476Y-46153820D01*
X151935770Y-46078143D01*
X151939562Y-46012296D01*
X151945795Y-45918147D01*
X151954435Y-45837474D01*
X151965277Y-45771553D01*
X151978115Y-45721659D01*
X151991180Y-45691557D01*
X151993871Y-45685745D01*
X151990433Y-45686123D01*
X151978861Y-45694081D01*
X151957149Y-45711008D01*
X151923288Y-45738293D01*
X151921145Y-45740031D01*
X151896611Y-45757280D01*
X151860153Y-45779620D01*
X151816591Y-45804228D01*
X151770745Y-45828283D01*
X151768356Y-45829483D01*
X151720137Y-45854454D01*
X151671581Y-45881013D01*
X151628423Y-45905941D01*
X151597047Y-45925584D01*
X151562442Y-45950063D01*
X151520568Y-45981594D01*
X151473944Y-46018081D01*
X151425085Y-46057427D01*
X151376510Y-46097535D01*
X151330734Y-46136308D01*
X151290274Y-46171648D01*
X151257647Y-46201460D01*
X151235371Y-46223645D01*
X151227085Y-46233831D01*
X151202494Y-46262465D01*
X151171557Y-46283157D01*
X151140059Y-46292687D01*
X151123144Y-46291670D01*
X151105916Y-46284170D01*
X151093345Y-46269982D01*
X151084839Y-46246700D01*
X151079809Y-46211921D01*
X151077663Y-46163239D01*
X151077694Y-46106671D01*
X151077274Y-46051115D01*
X151075044Y-45984136D01*
X151071333Y-45912706D01*
X151066469Y-45843800D01*
X151064049Y-45816100D01*
X151059110Y-45757195D01*
X151055269Y-45699117D01*
X151052773Y-45646679D01*
X151051866Y-45604699D01*
X151052249Y-45585255D01*
X151055689Y-45517120D01*
X151009216Y-45562095D01*
X150985431Y-45583337D01*
X150950456Y-45612288D01*
X150908150Y-45645859D01*
X150862370Y-45680964D01*
X150837733Y-45699345D01*
X150779985Y-45742173D01*
X150733255Y-45777554D01*
X150693916Y-45808591D01*
X150658341Y-45838383D01*
X150622903Y-45870034D01*
X150583975Y-45906644D01*
X150537930Y-45951316D01*
X150503250Y-45985372D01*
X150463102Y-46024165D01*
X150426674Y-46058004D01*
X150396265Y-46084860D01*
X150374176Y-46102705D01*
X150362708Y-46109511D01*
X150362472Y-46109525D01*
X150330461Y-46100640D01*
X150297375Y-46075096D01*
X150264815Y-46034559D01*
X150234386Y-45980694D01*
X150230476Y-45972375D01*
X150211224Y-45930507D01*
X150173028Y-46036221D01*
X150153710Y-46090976D01*
X150132780Y-46152368D01*
X150113348Y-46211193D01*
X150103613Y-46241709D01*
X150072393Y-46341482D01*
X150093547Y-46346792D01*
X150112955Y-46359171D01*
X150132242Y-46382772D01*
X150146917Y-46410817D01*
X150152498Y-46435738D01*
X150144204Y-46462675D01*
X150122776Y-46482081D01*
X150094633Y-46489182D01*
X150077966Y-46487655D01*
X150045998Y-46483371D01*
X150001668Y-46476776D01*
X149947914Y-46468315D01*
X149887677Y-46458435D01*
X149850416Y-46452143D01*
X149788040Y-46441657D01*
X149730704Y-46432323D01*
X149681279Y-46424584D01*
X149642634Y-46418882D01*
X149617641Y-46415661D01*
X149610392Y-46415103D01*
X149589010Y-46421463D01*
X149563258Y-46437797D01*
X149554529Y-46445199D01*
X149521688Y-46475296D01*
X149588076Y-46529911D01*
X149635001Y-46571658D01*
X149673667Y-46614137D01*
X149707792Y-46662270D01*
X149741095Y-46720978D01*
X149758245Y-46755108D01*
X149778607Y-46794084D01*
X149799664Y-46829821D01*
X149818052Y-46856773D01*
X149824725Y-46864733D01*
X149857614Y-46894768D01*
X149903175Y-46929975D01*
X149957292Y-46967707D01*
X150015846Y-47005319D01*
X150074720Y-47040167D01*
X150129797Y-47069604D01*
X150176761Y-47090908D01*
X150211278Y-47107945D01*
X150245723Y-47130629D01*
X150276186Y-47155666D01*
X150298755Y-47179761D01*
X150309520Y-47199619D01*
X150309917Y-47203099D01*
X150302583Y-47228798D01*
X150279869Y-47249095D01*
X150240701Y-47264717D01*
X150207896Y-47272333D01*
X150186392Y-47275704D01*
X150159492Y-47278428D01*
X150125445Y-47280546D01*
X150082500Y-47282098D01*
X150028905Y-47283124D01*
X149962909Y-47283663D01*
X149882761Y-47283756D01*
X149786709Y-47283442D01*
X149733094Y-47283151D01*
X149327580Y-47280723D01*
X149478693Y-47428974D01*
X149525584Y-47475642D01*
X149570930Y-47521989D01*
X149611999Y-47565132D01*
X149646063Y-47602189D01*
X149670390Y-47630278D01*
X149675858Y-47637142D01*
X149765301Y-47742848D01*
X149862495Y-47836032D01*
X149945629Y-47902402D01*
X150006696Y-47949772D01*
X150051669Y-47989413D01*
X150081042Y-48021832D01*
X150095310Y-48047534D01*
X150096938Y-48057529D01*
X150104687Y-48072261D01*
X150119153Y-48081536D01*
X150144385Y-48098327D01*
X150163587Y-48123660D01*
X150171018Y-48149483D01*
X150164792Y-48166465D01*
X150149241Y-48187996D01*
X150142968Y-48194704D01*
X150122622Y-48212487D01*
X150104879Y-48218702D01*
X150080953Y-48216384D01*
X150080464Y-48216293D01*
X150055225Y-48212835D01*
X150018223Y-48209288D01*
X149976197Y-48206270D01*
X149962669Y-48205510D01*
X149927101Y-48204133D01*
X149897817Y-48204728D01*
X149869768Y-48208096D01*
X149837904Y-48215038D01*
X149797175Y-48226356D01*
X149758950Y-48237840D01*
X149703374Y-48253713D01*
X149637276Y-48270973D01*
X149568355Y-48287692D01*
X149504311Y-48301944D01*
X149495042Y-48303864D01*
X149429219Y-48317823D01*
X149371484Y-48331025D01*
X149323976Y-48342913D01*
X149288838Y-48352929D01*
X149268210Y-48360515D01*
X149263544Y-48364183D01*
X149114642Y-48364183D01*
X149117869Y-48334501D01*
X149122658Y-48322867D01*
X149139445Y-48296253D01*
X149163409Y-48272960D01*
X149196446Y-48252160D01*
X149240448Y-48233020D01*
X149297311Y-48214711D01*
X149368927Y-48196401D01*
X149452446Y-48178231D01*
X149516371Y-48164266D01*
X149585294Y-48147779D01*
X149652420Y-48130484D01*
X149710952Y-48114094D01*
X149731171Y-48107945D01*
X149783331Y-48092022D01*
X149823510Y-48081283D01*
X149857193Y-48074746D01*
X149889862Y-48071432D01*
X149927002Y-48070363D01*
X149941735Y-48070337D01*
X149979383Y-48069682D01*
X150008288Y-48067752D01*
X150024760Y-48064879D01*
X150027055Y-48062670D01*
X150017515Y-48055032D01*
X149995406Y-48040388D01*
X149964209Y-48020974D01*
X149933880Y-48002825D01*
X149891366Y-47976341D01*
X149849097Y-47947534D01*
X149813256Y-47920721D01*
X149797603Y-47907567D01*
X149769410Y-47882472D01*
X149743297Y-47859810D01*
X149726475Y-47845763D01*
X149711936Y-47832013D01*
X149688400Y-47807377D01*
X149658861Y-47775081D01*
X149626314Y-47738353D01*
X149618842Y-47729762D01*
X149586311Y-47693754D01*
X149543591Y-47648740D01*
X149494136Y-47598232D01*
X149441403Y-47545747D01*
X149388846Y-47494799D01*
X149373493Y-47480210D01*
X149311174Y-47420848D01*
X149261505Y-47372152D01*
X149223326Y-47332453D01*
X149195473Y-47300079D01*
X149176785Y-47273360D01*
X149166100Y-47250625D01*
X149162257Y-47230205D01*
X149164093Y-47210427D01*
X149170446Y-47189623D01*
X149170779Y-47188744D01*
X149185374Y-47166855D01*
X149210124Y-47154968D01*
X149247411Y-47152391D01*
X149283662Y-47155955D01*
X149306053Y-47157904D01*
X149344534Y-47159866D01*
X149396676Y-47161772D01*
X149460048Y-47163556D01*
X149532222Y-47165151D01*
X149610767Y-47166489D01*
X149693254Y-47167503D01*
X149705145Y-47167617D01*
X150068037Y-47170965D01*
X149996833Y-47128522D01*
X149919844Y-47081552D01*
X149857084Y-47040344D01*
X149806109Y-47002591D01*
X149764477Y-46965991D01*
X149729745Y-46928238D01*
X149699470Y-46887029D01*
X149671209Y-46840058D01*
X149651391Y-46802663D01*
X149626491Y-46755012D01*
X149606024Y-46719710D01*
X149586724Y-46692263D01*
X149565324Y-46668176D01*
X149538558Y-46642955D01*
X149529491Y-46634932D01*
X149476130Y-46587272D01*
X149436481Y-46548919D01*
X149409784Y-46517624D01*
X149395277Y-46491137D01*
X149392201Y-46467209D01*
X149399795Y-46443590D01*
X149417300Y-46418031D01*
X149443955Y-46388281D01*
X149445568Y-46386588D01*
X149474764Y-46357250D01*
X149501412Y-46334719D01*
X149528194Y-46318576D01*
X149557790Y-46308400D01*
X149592881Y-46303771D01*
X149636148Y-46304271D01*
X149690272Y-46309478D01*
X149757934Y-46318974D01*
X149817358Y-46328363D01*
X149877130Y-46337765D01*
X149921070Y-46343952D01*
X149951548Y-46347119D01*
X149970936Y-46347459D01*
X149981605Y-46345166D01*
X149985166Y-46342080D01*
X149990265Y-46328561D01*
X149998368Y-46301152D01*
X150008307Y-46264011D01*
X150017625Y-46226647D01*
X150033612Y-46166129D01*
X150053588Y-46099445D01*
X150076511Y-46029316D01*
X150101340Y-45958464D01*
X150127034Y-45889608D01*
X150152553Y-45825471D01*
X150176854Y-45768772D01*
X150198897Y-45722233D01*
X150217640Y-45688574D01*
X150229578Y-45672731D01*
X150259085Y-45652385D01*
X150289257Y-45647111D01*
X150315794Y-45657340D01*
X150322371Y-45663462D01*
X150331027Y-45675493D01*
X150335753Y-45690416D01*
X150336553Y-45711693D01*
X150333430Y-45742785D01*
X150326388Y-45787152D01*
X150322533Y-45809065D01*
X150314212Y-45867461D01*
X150313182Y-45912114D01*
X150319763Y-45946436D01*
X150334273Y-45973841D01*
X150338391Y-45979077D01*
X150356993Y-46001417D01*
X150370914Y-45981543D01*
X150388605Y-45960782D01*
X150418475Y-45930733D01*
X150458107Y-45893504D01*
X150505083Y-45851206D01*
X150556985Y-45805947D01*
X150611396Y-45759838D01*
X150665898Y-45714987D01*
X150718073Y-45673503D01*
X150763653Y-45638862D01*
X150815795Y-45599326D01*
X150869292Y-45556924D01*
X150919731Y-45515278D01*
X150962701Y-45478012D01*
X150987014Y-45455463D01*
X151019374Y-45425260D01*
X151048188Y-45400564D01*
X151055689Y-45394924D01*
X151070287Y-45383949D01*
X151082389Y-45377990D01*
X151106745Y-45383504D01*
G37*
D13*
%TO.C,R2*%
X127472936Y-43065000D02*
X127927064Y-43065000D01*
X127472936Y-44535000D02*
X127927064Y-44535000D01*
%TO.C,R3*%
X133146800Y-55043200D02*
X133146800Y-54353200D01*
X131426800Y-54353200D02*
X134866800Y-54353200D01*
X134866800Y-54353200D02*
X134866800Y-45113200D01*
X131426800Y-45113200D02*
X131426800Y-54353200D01*
X134866800Y-45113200D02*
X131426800Y-45113200D01*
X133146800Y-44423200D02*
X133146800Y-45113200D01*
%TO.C,Q2*%
X140785600Y-44867200D02*
X136144600Y-44867200D01*
X140785600Y-44867200D02*
X140785600Y-55107200D01*
X139275600Y-44867200D02*
X139275600Y-55107200D01*
X136144600Y-44867200D02*
X136144600Y-55107200D01*
X140785600Y-48137200D02*
X139275600Y-48137200D01*
X140785600Y-51838200D02*
X139275600Y-51838200D01*
X140785600Y-55107200D02*
X136144600Y-55107200D01*
%TO.C,RV1*%
X111957600Y-48737400D02*
X111957600Y-43848400D01*
X111082600Y-51263400D02*
X106717600Y-51263400D01*
X111082600Y-41323400D02*
X106717600Y-41323400D01*
X106717600Y-51263400D02*
X106717600Y-41323400D01*
X106717600Y-49813400D02*
X106717600Y-42773400D01*
X106717600Y-49813400D02*
X105917600Y-49813400D01*
X106717600Y-42773400D02*
X105917600Y-42773400D01*
X105917600Y-49813400D02*
X105917600Y-42773400D01*
X105917600Y-49413400D02*
X105917600Y-43173400D01*
X105917600Y-49413400D02*
X96717600Y-49413400D01*
X105917600Y-43173400D02*
X96717600Y-43173400D01*
X96717600Y-49413400D02*
X96717600Y-43173400D01*
%TO.C,U3*%
X126258000Y-57796200D02*
X126258000Y-54346200D01*
X126258000Y-57796200D02*
X126258000Y-59746200D01*
X121138000Y-57796200D02*
X121138000Y-55846200D01*
X121138000Y-57796200D02*
X121138000Y-59746200D01*
%TO.C,RV2*%
X119556000Y-34286400D02*
X124445000Y-34286400D01*
X117030000Y-33411400D02*
X117030000Y-29046400D01*
X126970000Y-33411400D02*
X126970000Y-29046400D01*
X117030000Y-29046400D02*
X126970000Y-29046400D01*
X118480000Y-29046400D02*
X125520000Y-29046400D01*
X118480000Y-29046400D02*
X118480000Y-28246400D01*
X125520000Y-29046400D02*
X125520000Y-28246400D01*
X118480000Y-28246400D02*
X125520000Y-28246400D01*
X118880000Y-28246400D02*
X125120000Y-28246400D01*
X118880000Y-28246400D02*
X118880000Y-19046400D01*
X125120000Y-28246400D02*
X125120000Y-19046400D01*
X118880000Y-19046400D02*
X125120000Y-19046400D01*
%TO.C,R7*%
X120435000Y-59272936D02*
X120435000Y-59727064D01*
X118965000Y-59272936D02*
X118965000Y-59727064D01*
D12*
%TO.C,J2*%
X110134400Y-55372000D02*
X110134400Y-56388000D01*
X110134400Y-55372000D02*
X111277400Y-55372000D01*
X111277400Y-55372000D02*
X110134400Y-55372000D01*
X107721400Y-54356000D02*
X114579400Y-54356000D01*
X114579400Y-54356000D02*
X114579400Y-63500000D01*
X114579400Y-63500000D02*
X107721400Y-63500000D01*
X107721400Y-63500000D02*
X107721400Y-54356000D01*
D13*
%TO.C,J3*%
X124206000Y-68986400D02*
X124206000Y-67716400D01*
X125476000Y-68986400D02*
X124206000Y-68986400D01*
D12*
X123444000Y-71145400D02*
X130048000Y-71145400D01*
X130048000Y-71145400D02*
X130048000Y-64287400D01*
X130048000Y-64287400D02*
X123444000Y-64287400D01*
X123444000Y-64287400D02*
X123444000Y-71145400D01*
D13*
%TO.C,R9*%
X118746536Y-55776800D02*
X119200664Y-55776800D01*
X118746536Y-54306800D02*
X119200664Y-54306800D01*
%TO.C,J1*%
X115671600Y-68834000D02*
X115671600Y-67564000D01*
X116941600Y-68834000D02*
X115671600Y-68834000D01*
D12*
X114909600Y-70993000D02*
X121513600Y-70993000D01*
X121513600Y-70993000D02*
X121513600Y-64135000D01*
X121513600Y-64135000D02*
X114909600Y-64135000D01*
X114909600Y-64135000D02*
X114909600Y-70993000D01*
D13*
%TO.C,D1*%
X136740000Y-42650000D02*
X136740000Y-44350000D01*
X136740000Y-42650000D02*
X140000000Y-42650000D01*
X136740000Y-44350000D02*
X140000000Y-44350000D01*
%TO.C,U1*%
X123337000Y-46264600D02*
X123337000Y-42814600D01*
X123337000Y-46264600D02*
X123337000Y-48214600D01*
X118217000Y-46264600D02*
X118217000Y-44314600D01*
X118217000Y-46264600D02*
X118217000Y-48214600D01*
%TO.C,R5*%
X123239264Y-51081000D02*
X122785136Y-51081000D01*
X123239264Y-52551000D02*
X122785136Y-52551000D01*
D12*
%TO.C,J4*%
X130403600Y-29210000D02*
X155803600Y-29210000D01*
X155803600Y-41910000D02*
X155803600Y-29210000D01*
X155803600Y-41910000D02*
X144373600Y-41910000D01*
X144373600Y-41910000D02*
X144373600Y-58420000D01*
X141833600Y-41910000D02*
X130403600Y-41910000D01*
X130403600Y-41910000D02*
X130403600Y-29210000D01*
X144373600Y-58420000D02*
X155803600Y-58420000D01*
X141833600Y-58420000D02*
X141833600Y-41910000D01*
X130403600Y-58420000D02*
X141833600Y-58420000D01*
X155803600Y-71120000D02*
X155803600Y-58420000D01*
X130403600Y-71120000D02*
X130403600Y-58420000D01*
X130403600Y-71120000D02*
X155803600Y-71120000D01*
D13*
%TO.C,R8*%
X127265000Y-55272936D02*
X127265000Y-55727064D01*
X128735000Y-55272936D02*
X128735000Y-55727064D01*
%TD*%
%LPC*%
D14*
%TO.C,R2*%
X126700000Y-43800000D03*
X128700000Y-43800000D03*
%TD*%
D15*
%TO.C,R3*%
X133146800Y-56083200D03*
D16*
X133146800Y-43383200D03*
%TD*%
D17*
%TO.C,Q2*%
X137515600Y-47447200D03*
D18*
X137515600Y-49987200D03*
X137515600Y-52527200D03*
%TD*%
D19*
%TO.C,RV1*%
X113637600Y-51293400D03*
X113637600Y-41293400D03*
D20*
X110337600Y-43793400D03*
X110337600Y-46293400D03*
X110337600Y-48793400D03*
%TD*%
D21*
%TO.C,U3*%
X125603000Y-55321200D03*
X124333000Y-55321200D03*
X123063000Y-55321200D03*
X121793000Y-55321200D03*
X121793000Y-60271200D03*
X123063000Y-60271200D03*
X124333000Y-60271200D03*
X125603000Y-60271200D03*
%TD*%
D19*
%TO.C,RV2*%
X117000000Y-35966400D03*
X127000000Y-35966400D03*
D20*
X124500000Y-32666400D03*
X122000000Y-32666400D03*
X119500000Y-32666400D03*
%TD*%
D22*
%TO.C,R7*%
X119700000Y-58500000D03*
X119700000Y-60500000D03*
%TD*%
D23*
%TO.C,J2*%
X111150400Y-56388000D03*
D24*
X111150400Y-58928000D03*
X111150400Y-61468000D03*
%TD*%
D23*
%TO.C,J3*%
X125476000Y-67716400D03*
D24*
X128016000Y-67716400D03*
%TD*%
D14*
%TO.C,R9*%
X119973600Y-55041800D03*
X117973600Y-55041800D03*
%TD*%
D23*
%TO.C,J1*%
X116941600Y-67564000D03*
D24*
X119481600Y-67564000D03*
%TD*%
D25*
%TO.C,D1*%
X137500000Y-43500000D03*
X140000000Y-43500000D03*
%TD*%
D21*
%TO.C,U1*%
X122682000Y-43789600D03*
X121412000Y-43789600D03*
X120142000Y-43789600D03*
X118872000Y-43789600D03*
X118872000Y-48739600D03*
X120142000Y-48739600D03*
X121412000Y-48739600D03*
X122682000Y-48739600D03*
%TD*%
D26*
%TO.C,R5*%
X122012200Y-51816000D03*
X124012200Y-51816000D03*
%TD*%
D27*
%TO.C,J4*%
X143103600Y-37465000D03*
X143103600Y-62865000D03*
%TD*%
D22*
%TO.C,R8*%
X128000000Y-56500000D03*
X128000000Y-54500000D03*
%TD*%
%LPD*%
M02*
