%TF.GenerationSoftware,KiCad,Pcbnew,7.0.6*%
%TF.CreationDate,2023-07-30T21:01:10-06:00*%
%TF.ProjectId,current_sink_swim,63757272-656e-4745-9f73-696e6b5f7377,rev?*%
%TF.SameCoordinates,Original*%
%TF.FileFunction,Soldermask,Top*%
%TF.FilePolarity,Negative*%
%FSLAX46Y46*%
G04 Gerber Fmt 4.6, Leading zero omitted, Abs format (unit mm)*
G04 Created by KiCad (PCBNEW 7.0.6) date 2023-07-30 21:01:10*
%MOMM*%
%LPD*%
G01*
G04 APERTURE LIST*
G04 Aperture macros list*
%AMRoundRect*
0 Rectangle with rounded corners*
0 $1 Rounding radius*
0 $2 $3 $4 $5 $6 $7 $8 $9 X,Y pos of 4 corners*
0 Add a 4 corners polygon primitive as box body*
4,1,4,$2,$3,$4,$5,$6,$7,$8,$9,$2,$3,0*
0 Add four circle primitives for the rounded corners*
1,1,$1+$1,$2,$3*
1,1,$1+$1,$4,$5*
1,1,$1+$1,$6,$7*
1,1,$1+$1,$8,$9*
0 Add four rect primitives between the rounded corners*
20,1,$1+$1,$2,$3,$4,$5,0*
20,1,$1+$1,$4,$5,$6,$7,0*
20,1,$1+$1,$6,$7,$8,$9,0*
20,1,$1+$1,$8,$9,$2,$3,0*%
G04 Aperture macros list end*
%ADD10RoundRect,0.250000X-0.350000X-0.450000X0.350000X-0.450000X0.350000X0.450000X-0.350000X0.450000X0*%
%ADD11O,1.600000X1.600000*%
%ADD12C,1.600000*%
%ADD13R,2.000000X1.905000*%
%ADD14O,2.000000X1.905000*%
%ADD15C,4.600000*%
%ADD16C,1.800000*%
%ADD17RoundRect,0.150000X-0.150000X0.825000X-0.150000X-0.825000X0.150000X-0.825000X0.150000X0.825000X0*%
%ADD18RoundRect,0.250000X-0.450000X0.350000X-0.450000X-0.350000X0.450000X-0.350000X0.450000X0.350000X0*%
%ADD19R,1.700000X1.700000*%
%ADD20O,1.700000X1.700000*%
%ADD21RoundRect,0.250000X-0.250000X-0.250000X0.250000X-0.250000X0.250000X0.250000X-0.250000X0.250000X0*%
%ADD22RoundRect,0.250000X0.350000X0.450000X-0.350000X0.450000X-0.350000X-0.450000X0.350000X-0.450000X0*%
%ADD23RoundRect,0.381000X0.381000X-0.762000X0.381000X0.762000X-0.381000X0.762000X-0.381000X-0.762000X0*%
G04 APERTURE END LIST*
D10*
%TO.C,R2*%
X126700000Y-43800000D03*
X128700000Y-43800000D03*
%TD*%
D11*
%TO.C,R3*%
X133146800Y-56083200D03*
D12*
X133146800Y-43383200D03*
%TD*%
D13*
%TO.C,Q2*%
X137515600Y-47447200D03*
D14*
X137515600Y-49987200D03*
X137515600Y-52527200D03*
%TD*%
D15*
%TO.C,RV1*%
X113637600Y-51293400D03*
X113637600Y-41293400D03*
D16*
X110337600Y-43793400D03*
X110337600Y-46293400D03*
X110337600Y-48793400D03*
%TD*%
D17*
%TO.C,U3*%
X125603000Y-55321200D03*
X124333000Y-55321200D03*
X123063000Y-55321200D03*
X121793000Y-55321200D03*
X121793000Y-60271200D03*
X123063000Y-60271200D03*
X124333000Y-60271200D03*
X125603000Y-60271200D03*
%TD*%
D15*
%TO.C,RV2*%
X117000000Y-35966400D03*
X127000000Y-35966400D03*
D16*
X124500000Y-32666400D03*
X122000000Y-32666400D03*
X119500000Y-32666400D03*
%TD*%
D18*
%TO.C,R7*%
X119700000Y-58500000D03*
X119700000Y-60500000D03*
%TD*%
D19*
%TO.C,J2*%
X111150400Y-56388000D03*
D20*
X111150400Y-58928000D03*
X111150400Y-61468000D03*
%TD*%
D19*
%TO.C,J3*%
X125476000Y-67716400D03*
D20*
X128016000Y-67716400D03*
%TD*%
D10*
%TO.C,R9*%
X119973600Y-55041800D03*
X117973600Y-55041800D03*
%TD*%
D19*
%TO.C,J1*%
X116941600Y-67564000D03*
D20*
X119481600Y-67564000D03*
%TD*%
D21*
%TO.C,D1*%
X137500000Y-43500000D03*
X140000000Y-43500000D03*
%TD*%
D17*
%TO.C,U1*%
X122682000Y-43789600D03*
X121412000Y-43789600D03*
X120142000Y-43789600D03*
X118872000Y-43789600D03*
X118872000Y-48739600D03*
X120142000Y-48739600D03*
X121412000Y-48739600D03*
X122682000Y-48739600D03*
%TD*%
D22*
%TO.C,R5*%
X122012200Y-51816000D03*
X124012200Y-51816000D03*
%TD*%
D23*
%TO.C,J4*%
X143103600Y-37465000D03*
X143103600Y-62865000D03*
%TD*%
D18*
%TO.C,R8*%
X128000000Y-56500000D03*
X128000000Y-54500000D03*
%TD*%
M02*
